    <svg width="23" height="23" viewBox="0 0 23 23" fill="none" xmlns="http://www.w3.org/2000/svg">
<g clip-path="url(#clip0_221_8142)">
<path d="M7.66683 10.3117H7.111C6.35248 10.2843 5.59642 10.4131 4.88974 10.69C4.18307 10.967 3.54085 11.3862 3.00294 11.9217L2.84961 12.1006V17.3906H5.45628V14.3878L5.80767 13.9917L5.96739 13.8064C6.79917 12.9519 7.83472 12.3231 8.97655 11.9792C8.40487 11.5442 7.954 10.9702 7.66683 10.3117V10.3117Z" fill="#FE6637"/>
<path d="M20.0227 11.9026C19.4847 11.3671 18.8425 10.9478 18.1358 10.6709C17.4292 10.3939 16.6731 10.2651 15.9146 10.2926C15.682 10.2932 15.4495 10.306 15.2182 10.3309C14.9257 10.9486 14.4871 11.4859 13.9404 11.8962C15.1594 12.2334 16.2637 12.896 17.1349 13.8128L17.2946 13.9917L17.6396 14.3878V17.397H20.1568V12.0814L20.0227 11.9026Z" fill="#FE6637"/>
<path d="M7.09191 9.06579H7.28997C7.19794 8.27564 7.33659 7.47574 7.68916 6.76265C8.04174 6.04956 8.59318 5.45377 9.27691 5.04718C9.02906 4.66854 8.68713 4.36076 8.28459 4.15398C7.88206 3.94719 7.43272 3.8485 6.98058 3.86755C6.52843 3.88661 6.08899 4.02276 5.70528 4.26267C5.32157 4.50259 5.00674 4.83805 4.79163 5.23619C4.57651 5.63434 4.46849 6.08153 4.47813 6.53397C4.48778 6.98641 4.61475 7.42859 4.84664 7.81721C5.07852 8.20583 5.40735 8.52757 5.80094 8.75092C6.19452 8.97427 6.63937 9.09157 7.09191 9.09134V9.06579Z" fill="#FE6637"/>
<path d="M15.6079 8.58666C15.6157 8.7335 15.6157 8.88065 15.6079 9.0275C15.7305 9.04693 15.8543 9.05761 15.9785 9.05944H16.0999C16.5504 9.03542 16.9871 8.89514 17.3673 8.65226C17.7476 8.40939 18.0584 8.07219 18.2697 7.67351C18.4809 7.27482 18.5853 6.82823 18.5728 6.37721C18.5602 5.9262 18.431 5.48612 18.1979 5.09983C17.9647 4.71355 17.6355 4.39421 17.2423 4.17292C16.8491 3.95162 16.4053 3.83591 15.9541 3.83704C15.503 3.83818 15.0597 3.95612 14.6677 4.17939C14.2756 4.40266 13.948 4.72365 13.7168 5.11111C14.295 5.48865 14.7705 6.00383 15.1006 6.61043C15.4307 7.21703 15.605 7.89608 15.6079 8.58666V8.58666Z" fill="#FE6637"/>
<path d="M11.4174 11.4488C12.9946 11.4488 14.2732 10.1702 14.2732 8.59302C14.2732 7.01578 12.9946 5.73718 11.4174 5.73718C9.84012 5.73718 8.56152 7.01578 8.56152 8.59302C8.56152 10.1702 9.84012 11.4488 11.4174 11.4488Z" fill="#FE6637"/>
<path d="M11.5704 12.9695C10.736 12.9358 9.90347 13.0712 9.12283 13.3677C8.34218 13.6641 7.62957 14.1155 7.02789 14.6945L6.86816 14.8734V18.9175C6.87066 19.0493 6.89908 19.1792 6.9518 19.3C7.00453 19.4207 7.08053 19.5299 7.17545 19.6212C7.27038 19.7126 7.38238 19.7844 7.50505 19.8324C7.62772 19.8805 7.75866 19.904 7.89039 19.9014H15.2312C15.363 19.904 15.4939 19.8805 15.6166 19.8324C15.7392 19.7844 15.8512 19.7126 15.9462 19.6212C16.0411 19.5299 16.1171 19.4207 16.1698 19.3C16.2225 19.1792 16.251 19.0493 16.2534 18.9175V14.8861L16.1001 14.6945C15.5023 14.1137 14.7922 13.6611 14.0133 13.3645C13.2344 13.0678 12.4031 12.9334 11.5704 12.9695V12.9695Z" fill="#FE6637"/>
</g>
<defs>
<clipPath id="clip0_221_8142">
<rect width="23" height="23" fill="white"/>
</clipPath>
</defs>
</svg>
