<svg width="21" height="21" viewBox="0 0 21 21" fill="none" xmlns="http://www.w3.org/2000/svg">
<path fill-rule="evenodd" clip-rule="evenodd" d="M0.344727 10.5C0.344727 7.80665 1.41465 5.22362 3.31914 3.31914C5.22362 1.41465 7.80665 0.344727 10.5 0.344727C13.1933 0.344727 15.7764 1.41465 17.6809 3.31914C19.5853 5.22362 20.6553 7.80665 20.6553 10.5C20.6553 13.1933 19.5853 15.7764 17.6809 17.6809C15.7764 19.5853 13.1933 20.6553 10.5 20.6553C7.80665 20.6553 5.22362 19.5853 3.31914 17.6809C1.41465 15.7764 0.344727 13.1933 0.344727 10.5ZM10.5 1.80139C8.19298 1.80139 5.98046 2.71785 4.34915 4.34915C2.71785 5.98046 1.80139 8.19298 1.80139 10.5C1.80139 12.807 2.71785 15.0195 4.34915 16.6508C5.98046 18.2821 8.19298 19.1986 10.5 19.1986C12.807 19.1986 15.0195 18.2821 16.6508 16.6508C18.2821 15.0195 19.1986 12.807 19.1986 10.5C19.1986 8.19298 18.2821 5.98046 16.6508 4.34915C15.0195 2.71785 12.807 1.80139 10.5 1.80139ZM14.1095 6.89206C14.2532 7.03583 14.3339 7.2308 14.3339 7.43409C14.3339 7.63739 14.2532 7.83236 14.1095 7.97613L11.5841 10.5L14.1095 13.0239C14.2534 13.1678 14.3343 13.3631 14.3343 13.5667C14.3343 13.7702 14.2534 13.9655 14.1095 14.1095C13.9655 14.2534 13.7702 14.3343 13.5667 14.3343C13.3631 14.3343 13.1678 14.2534 13.0239 14.1095L10.5 11.5841L7.97613 14.1095C7.90485 14.1807 7.82022 14.2373 7.72709 14.2759C7.63395 14.3144 7.53413 14.3343 7.43333 14.3343C7.33252 14.3343 7.2327 14.3144 7.13956 14.2759C7.04643 14.2373 6.96181 14.1807 6.89053 14.1095C6.81924 14.0382 6.7627 13.9536 6.72412 13.8604C6.68555 13.7673 6.66569 13.6675 6.66569 13.5667C6.66569 13.4659 6.68555 13.366 6.72412 13.2729C6.7627 13.1798 6.81924 13.0951 6.89053 13.0239L9.41593 10.5L6.89053 7.97613C6.74657 7.83217 6.66569 7.63692 6.66569 7.43333C6.66569 7.22974 6.74657 7.03449 6.89053 6.89053C7.03449 6.74657 7.22974 6.66569 7.43333 6.66569C7.63692 6.66569 7.83217 6.74657 7.97613 6.89053L10.5 9.41593L13.0239 6.89053C13.0951 6.81913 13.1797 6.76248 13.2728 6.72383C13.366 6.68518 13.4658 6.66529 13.5667 6.66529C13.6675 6.66529 13.7674 6.68518 13.8605 6.72383C13.9536 6.76248 14.0382 6.81913 14.1095 6.89053V6.89206Z" fill="#F10305"/>
</svg>
