<svg width="17" height="21" viewBox="0 0 17 21" fill="none" xmlns="http://www.w3.org/2000/svg">
<path d="M12.4531 6.00781V4.92969C12.4531 4.83086 12.3723 4.75 12.2734 4.75H3.64844C3.54961 4.75 3.46875 4.83086 3.46875 4.92969V6.00781C3.46875 6.10664 3.54961 6.1875 3.64844 6.1875H12.2734C12.3723 6.1875 12.4531 6.10664 12.4531 6.00781ZM3.64844 7.98438C3.54961 7.98438 3.46875 8.06523 3.46875 8.16406V9.24219C3.46875 9.34102 3.54961 9.42188 3.64844 9.42188H7.78125C7.88008 9.42188 7.96094 9.34102 7.96094 9.24219V8.16406C7.96094 8.06523 7.88008 7.98438 7.78125 7.98438H3.64844ZM12.0938 10.5898C9.41416 10.5898 7.24219 12.7618 7.24219 15.4414C7.24219 18.121 9.41416 20.293 12.0938 20.293C14.7733 20.293 16.9453 18.121 16.9453 15.4414C16.9453 12.7618 14.7733 10.5898 12.0938 10.5898ZM14.5083 17.856C13.8637 18.5006 13.0057 18.8555 12.0938 18.8555C11.1818 18.8555 10.3238 18.5006 9.6792 17.856C9.03457 17.2113 8.67969 16.3533 8.67969 15.4414C8.67969 14.5295 9.03457 13.6715 9.6792 13.0269C10.3238 12.3822 11.1818 12.0273 12.0938 12.0273C13.0057 12.0273 13.8637 12.3822 14.5083 13.0269C15.1529 13.6715 15.5078 14.5295 15.5078 15.4414C15.5078 16.3533 15.1529 17.2113 14.5083 17.856ZM14.0928 13.7344H13.0978C13.0394 13.7344 12.9854 13.7613 12.9518 13.8085L11.5255 15.7806L11.0066 15.0641C10.99 15.0409 10.9681 15.0221 10.9427 15.0092C10.9173 14.9963 10.8891 14.9897 10.8606 14.9899H9.87012C9.72412 14.9899 9.63877 15.1562 9.72412 15.2752L11.3817 17.5685C11.4536 17.6673 11.5996 17.6673 11.6715 17.5685L14.2365 14.0196C14.3241 13.9006 14.2388 13.7344 14.0928 13.7344ZM6.88281 18.1367H1.67188V2.32422H14.25V10.0508C14.25 10.1496 14.3309 10.2305 14.4297 10.2305H15.6875C15.7863 10.2305 15.8672 10.1496 15.8672 10.0508V1.42578C15.8672 1.02822 15.546 0.707031 15.1484 0.707031H0.773438C0.375879 0.707031 0.0546875 1.02822 0.0546875 1.42578V19.0352C0.0546875 19.4327 0.375879 19.7539 0.773438 19.7539H6.88281C6.98164 19.7539 7.0625 19.673 7.0625 19.5742V18.3164C7.0625 18.2176 6.98164 18.1367 6.88281 18.1367Z" fill="#6BC432"/>
</svg>
