<svg width="115" height="115" viewBox="0 0 115 115" fill="none" xmlns="http://www.w3.org/2000/svg">
<g clip-path="url(#clip0_101_1037)">
<mask id="path-1-outside-1_101_1037" maskUnits="userSpaceOnUse" x="-1" y="4" width="117" height="106" fill="black">
<rect fill="white" x="-1" y="4" width="117" height="106"/>
<path d="M107.462 61.3158C108.438 61.3525 109.412 61.1907 110.325 60.8402C111.238 60.4897 112.071 59.9576 112.775 59.2758C113.479 58.5939 114.038 57.7764 114.421 56.872C114.803 55.9676 115 54.995 115 54.0122C115 53.0295 114.803 52.0568 114.421 51.1524C114.038 50.2481 113.479 49.4305 112.775 48.7487C112.071 48.0669 111.238 47.5348 110.325 47.1843C109.412 46.8338 108.438 46.672 107.462 46.7087C107.305 46.7087 107.158 46.7392 106.996 46.7494L104.557 37.0792C105.364 36.4703 106.035 35.6987 106.527 34.8138C107.02 33.9289 107.323 32.9502 107.418 31.9405C107.512 30.9308 107.396 29.9123 107.076 28.9505C106.756 27.9887 106.24 27.1047 105.561 26.3552C104.882 25.6057 104.054 25.0073 103.131 24.5983C102.209 24.1893 101.211 23.9788 100.203 23.9802C99.1943 23.9817 98.1973 24.1951 97.2757 24.6067C96.3542 25.0184 95.5283 25.6192 94.8511 26.3706L70.1051 14.802C70.3637 14.0624 70.5004 13.2854 70.51 12.5015C70.5356 11.5258 70.3666 10.5549 70.0131 9.64594C69.6595 8.737 69.1285 7.90849 68.4514 7.20929C67.7743 6.5101 66.9648 5.95438 66.0707 5.57494C65.1766 5.19549 64.216 5 63.2456 5C62.2751 5 61.3145 5.19549 60.4204 5.57494C59.5263 5.95438 58.7168 6.5101 58.0397 7.20929C57.3627 7.90849 56.8317 8.737 56.4781 9.64594C56.1245 10.5549 55.9556 11.5258 55.9812 12.5015C55.9936 12.7504 56.0189 12.9984 56.0571 13.2446L40.2986 18.1051C39.2104 16.7453 37.6724 15.824 35.9652 15.5094C34.258 15.1949 32.4952 15.5079 30.9983 16.3914C29.5014 17.275 28.3701 18.6702 27.8107 20.3227C27.2513 21.9752 27.3011 23.7748 27.9509 25.3934L13.1236 38.7078C12.0052 38.019 10.7206 37.6511 9.40917 37.6441C7.67322 37.6357 5.99204 38.2548 4.67188 39.3885C3.35172 40.5223 2.48043 42.0952 2.21674 43.8209C1.95305 45.5466 2.31451 47.3101 3.23526 48.7902C4.15602 50.2703 5.5748 51.3685 7.23314 51.8848L6.2514 61.382C5.14477 61.5363 4.0886 61.9459 3.16541 62.5787C2.24222 63.2115 1.47702 64.0504 0.929582 65.0299C0.382146 66.0094 0.067304 67.103 0.00965481 68.2251C-0.0479944 69.3472 0.15311 70.4676 0.597257 71.4986C1.0414 72.5297 1.71656 73.4434 2.56999 74.1686C3.42341 74.8937 4.43198 75.4106 5.51691 75.6788C6.60183 75.947 7.73372 75.9593 8.82415 75.7147C9.91458 75.4701 10.934 74.9753 11.8028 74.2688L16.6913 76.4319L16.6761 76.5846C16.6833 78.4046 17.3664 80.1562 18.5914 81.4959C19.8164 82.8355 21.4949 83.6665 23.2976 83.8258C25.1003 83.9851 26.8971 83.4613 28.3356 82.357C29.7742 81.2528 30.7505 79.6478 31.0733 77.857H36.6601C37.0986 79.445 38.06 80.8363 39.387 81.8033C40.714 82.7702 42.3281 83.2556 43.965 83.1799C45.602 83.1042 47.165 82.472 48.3982 81.3867C49.6314 80.3014 50.4619 78.8273 50.7537 77.2055L66.4767 77.7246C67.6277 78.7234 69.067 79.3242 70.5828 79.4387C72.0987 79.5532 73.611 79.1754 74.8974 78.3608C83.7735 83.2315 91.26 90.309 96.6425 98.9177C96.2878 99.7849 96.1039 100.713 96.1011 101.651C96.0942 102.9 96.4057 104.13 97.0058 105.223C97.6059 106.317 98.4747 107.237 99.5292 107.897C100.584 108.557 101.789 108.934 103.029 108.992C104.27 109.05 105.504 108.788 106.615 108.23C107.726 107.671 108.677 106.836 109.375 105.804C110.074 104.771 110.498 103.576 110.607 102.331C110.716 101.087 110.505 99.8356 109.997 98.6963C109.488 97.5569 108.697 96.5678 107.7 95.8232C105.157 92.1029 103.372 87.9135 102.447 83.4962C103.693 83.0983 104.807 82.3666 105.671 81.3797C106.535 80.3928 107.115 79.1879 107.349 77.8945C107.583 76.601 107.462 75.2679 107 74.0382C106.537 72.8085 105.751 71.7287 104.724 70.9148L107.457 61.3158H107.462ZM110.321 54.0122C110.32 54.5795 110.152 55.1338 109.838 55.6051C109.524 56.0764 109.078 56.4435 108.557 56.6601C108.036 56.8768 107.462 56.9332 106.909 56.8223C106.356 56.7113 105.848 56.438 105.449 56.0369C105.05 55.6358 104.778 55.1248 104.668 54.5684C104.558 54.012 104.614 53.4353 104.829 52.911C105.045 52.3867 105.41 51.9383 105.878 51.6225C106.347 51.3067 106.898 51.1376 107.462 51.1366C108.22 51.1366 108.947 51.4396 109.484 51.9789C110.02 52.5181 110.321 53.2496 110.321 54.0122ZM104.532 47.3347C103.346 47.8675 102.325 48.7106 101.573 49.7759C100.822 50.8412 100.369 52.0898 100.261 53.3913H94.588C94.5048 52.3969 94.2188 51.4304 93.7478 50.5521C93.2767 49.6738 92.6308 48.9025 91.8502 48.2864L98.9704 38.4482C100.061 38.6695 101.19 38.5993 102.245 38.2447L104.532 47.3347ZM93.0243 75.6684L78.3588 71.892C78.2994 70.246 77.6835 68.6697 76.613 67.4233L82.5338 59.4072C83.4425 60.2678 84.5646 60.8668 85.7825 61.1417C87.0004 61.4166 88.2693 61.3572 89.4566 60.9697L95.7924 70.813C95.0348 71.3981 94.4001 72.1285 93.9249 72.962C93.4498 73.7954 93.1437 74.7153 93.0243 75.6684ZM40.0911 27.5107L60.7432 38.3821C60.3021 39.6725 60.272 41.069 60.6571 42.3774L47.3985 49.2331C46.7236 48.4431 45.8875 47.8083 44.9472 47.3718C44.0068 46.9354 42.984 46.7075 41.9484 46.7036C41.8876 46.7036 41.832 46.7188 41.7712 46.7239L36.9992 29.572C38.1904 29.1668 39.2561 28.4563 40.0911 27.5107ZM96.511 37.5321L89.5932 47.0802C88.4264 46.6748 87.1733 46.5894 85.9628 46.8327C84.7523 47.076 83.6281 47.6393 82.7058 48.4646L74.6545 42.3571C74.9314 41.4859 74.9922 40.5598 74.8317 39.6596L93.591 34.2646C94.2109 35.6247 95.2299 36.7614 96.511 37.5219V37.5321ZM87.3818 56.8828C86.8175 56.8818 86.2662 56.7125 85.7975 56.3965C85.3288 56.0805 84.9637 55.6318 84.7485 55.1072C84.5332 54.5826 84.4774 54.0056 84.5881 53.4491C84.6988 52.8926 84.9711 52.3816 85.3704 51.9807C85.7698 51.5797 86.2784 51.3068 86.8319 51.1965C87.3854 51.0861 87.959 51.1433 88.4802 51.3607C89.0015 51.5781 89.4469 51.946 89.7603 52.418C90.0737 52.8899 90.241 53.4447 90.241 54.0122C90.2396 54.774 89.9378 55.5041 89.4017 56.0423C88.8657 56.5805 88.1392 56.8828 87.3818 56.8828ZM67.6508 43.3953C67.0867 43.3943 66.5356 43.2252 66.067 42.9094C65.5984 42.5936 65.2334 42.1453 65.018 41.621C64.8026 41.0966 64.7465 40.5199 64.8568 39.9636C64.9671 39.4072 65.2388 38.8962 65.6377 38.495C66.0365 38.0939 66.5446 37.8206 67.0978 37.7097C67.651 37.5988 68.2244 37.6552 68.7457 37.8718C69.267 38.0884 69.7129 38.4556 70.0269 38.9269C70.3409 39.3981 70.509 39.9524 70.51 40.5197C70.5086 41.2815 70.2068 42.0116 69.6707 42.5498C69.1347 43.088 68.4082 43.3902 67.6508 43.3902V43.3953ZM41.9433 51.1366C42.5076 51.1366 43.0592 51.3048 43.5284 51.62C43.9977 51.9352 44.3635 52.3832 44.5797 52.9075C44.7959 53.4317 44.8527 54.0086 44.743 54.5653C44.6332 55.122 44.3619 55.6335 43.9633 56.0351C43.5646 56.4368 43.0565 56.7106 42.5032 56.8219C41.9499 56.9332 41.3762 56.8771 40.8546 56.6606C40.333 56.4441 39.8868 56.077 39.5726 55.6056C39.2584 55.1342 39.0902 54.5797 39.0892 54.0122C39.0892 53.2496 39.3904 52.5181 39.9266 51.9789C40.4628 51.4396 41.19 51.1366 41.9484 51.1366H41.9433ZM49.2102 54.0122C49.2056 53.122 49.0374 52.2403 48.7143 51.4114L61.7097 44.6932C62.3771 45.6578 63.2661 46.4462 64.3014 46.9911C65.3366 47.5361 66.4874 47.8216 67.6558 47.8233L67.7773 47.8131L65.581 66.441L45.8146 68.9553C45.4184 68.8284 45.0121 68.7365 44.6001 68.6804L43.0971 61.1987C44.798 60.9247 46.3466 60.0515 47.4664 58.735C48.5862 57.4186 49.2043 55.7447 49.2102 54.0122ZM43.6284 73.0117C44.1925 73.0127 44.7436 73.1818 45.2122 73.4976C45.6808 73.8134 46.0458 74.2617 46.2612 74.786C46.4766 75.3104 46.5327 75.8871 46.4224 76.4435C46.3121 76.9998 46.0404 77.5108 45.6416 77.912C45.2427 78.3131 44.7346 78.5864 44.1814 78.6973C43.6283 78.8083 43.0548 78.7518 42.5335 78.5352C42.0122 78.3186 41.5664 77.9514 41.2524 77.4802C40.9384 77.0089 40.7703 76.4546 40.7693 75.8873C40.7693 75.1246 41.0705 74.3932 41.6067 73.8539C42.1429 73.3146 42.8701 73.0117 43.6284 73.0117ZM49.0736 71.1031L64.5234 69.1436C64.0907 70.0778 63.8644 71.0953 63.8601 72.1258C63.8557 73.1564 64.0734 74.1758 64.4981 75.1137L50.7689 74.6658C50.5429 73.3432 49.9559 72.1097 49.0736 71.1031ZM70.3936 47.2736C71.673 46.746 72.777 45.8635 73.5766 44.7288L81.0966 50.4291C80.4872 51.466 80.1532 52.6431 80.1266 53.8472C80.1 55.0514 80.3818 56.2422 80.9448 57.3052L74.6545 65.8048C73.6905 65.2434 72.6084 64.9186 71.4961 64.8567C70.3838 64.7948 69.2727 64.9976 68.253 65.4485L70.3936 47.2736ZM100.2 28.4014C100.765 28.4014 101.316 28.5697 101.786 28.8852C102.255 29.2006 102.621 29.6489 102.837 30.1734C103.053 30.6979 103.11 31.2751 102.999 31.8319C102.889 32.3888 102.617 32.9002 102.218 33.3017C101.819 33.7031 101.311 33.9765 100.757 34.0873C100.203 34.1981 99.6294 34.1412 99.1078 33.924C98.5863 33.7067 98.1406 33.3388 97.827 32.8667C97.5133 32.3947 97.3459 31.8397 97.3459 31.2719C97.3473 30.5101 97.6491 29.78 98.1852 29.2418C98.7212 28.7037 99.4477 28.4014 100.205 28.4014H100.2ZM93.4797 28.5337C93.1244 29.4025 92.9404 30.3325 92.9382 31.2719C92.9382 31.4501 92.9787 31.618 92.9888 31.7962L74.1029 37.2217C73.5008 36.0201 72.5798 35.0095 71.4419 34.3016C70.3041 33.5938 68.9937 33.2164 67.6558 33.2111C67.4382 33.2111 67.2257 33.262 67.0131 33.2772L64.3766 19.688C66.1586 19.4041 67.7706 18.4601 68.8957 17.0414L93.4797 28.5337ZM63.2431 9.6208C63.8073 9.6208 64.3589 9.78902 64.8282 10.1042C65.2974 10.4194 65.6633 10.8674 65.8794 11.3917C66.0956 11.9159 66.1524 12.4928 66.0427 13.0495C65.933 13.6062 65.6617 14.1176 65.263 14.5193C64.8644 14.921 64.3563 15.1947 63.803 15.3061C63.2496 15.4174 62.6759 15.3613 62.1543 15.1448C61.6327 14.9283 61.1866 14.5612 60.8724 14.0898C60.5582 13.6184 60.3899 13.0639 60.3889 12.4964C60.3889 11.7346 60.6895 11.004 61.2246 10.4648C61.7597 9.92571 62.4856 9.62215 63.2431 9.6208ZM56.7453 15.6876C57.2295 16.691 57.9354 17.5699 58.8089 18.2571C59.6825 18.9442 60.7006 19.4215 61.7856 19.6524L64.5588 33.9287C63.5112 34.4328 62.5986 35.1814 61.897 36.1121L41.4271 25.3426C42.0765 23.7602 42.118 21.9916 41.5435 20.3802L56.7453 15.6876ZM34.6814 19.8C35.2457 19.8 35.7973 19.9682 36.2666 20.2834C36.7358 20.5986 37.1017 21.0466 37.3178 21.5708C37.534 22.0951 37.5908 22.672 37.4811 23.2287C37.3714 23.7853 37.1001 24.2968 36.7014 24.6985C36.3027 25.1001 35.7947 25.3739 35.2413 25.4853C34.688 25.5966 34.1143 25.5405 33.5927 25.324C33.0711 25.1075 32.625 24.7404 32.3108 24.269C31.9965 23.7976 31.8283 23.2431 31.8273 22.6756C31.8273 21.9138 32.1278 21.1832 32.6629 20.644C33.1981 20.1049 33.924 19.8013 34.6814 19.8ZM34.479 29.9588L39.2865 47.2227C37.8974 47.7754 36.7104 48.7436 35.8858 49.9965L16.6609 45.0647L16.6761 44.9477C16.6676 43.2831 16.0885 41.6724 15.0365 40.3874L29.3274 27.5667C29.9802 28.2942 30.7728 28.8813 31.6573 29.2924C32.5418 29.7035 33.5 29.9302 34.474 29.9588H34.479ZM10.1581 68.5736C10.1581 69.1413 9.99073 69.6963 9.67712 70.1683C9.3635 70.6404 8.91774 71.0083 8.39622 71.2256C7.87469 71.4428 7.30082 71.4997 6.74717 71.3889C6.19352 71.2782 5.68497 71.0048 5.28581 70.6033C4.88665 70.2019 4.61482 69.6904 4.50469 69.1336C4.39456 68.5767 4.45108 67.9996 4.66711 67.475C4.88313 66.9505 5.24895 66.5022 5.71831 66.1868C6.18767 65.8714 6.73949 65.703 7.30399 65.703C8.06054 65.7044 8.78572 66.0072 9.32069 66.5453C9.85565 67.0833 10.1568 67.8127 10.1581 68.5736ZM8.79178 61.4227L9.74822 52.2207C11.1516 52.1543 12.5057 51.6793 13.6457 50.8535C14.7858 50.0276 15.6627 48.8865 16.17 47.5688L34.8839 52.3683C34.6432 53.328 34.619 54.3296 34.813 55.2999L12.8351 63.9013C11.7995 62.6437 10.3737 61.7725 8.78672 61.4278L8.79178 61.4227ZM9.40917 42.072C9.97344 42.072 10.5251 42.2403 10.9943 42.5555C11.4636 42.8707 11.8294 43.3187 12.0456 43.8429C12.2617 44.3671 12.3185 44.944 12.2088 45.5007C12.0991 46.0574 11.8278 46.5689 11.4291 46.9705C11.0305 47.3722 10.5224 47.646 9.96908 47.7573C9.41576 47.8687 8.84205 47.8125 8.32044 47.5961C7.79882 47.3796 7.35272 47.0124 7.0385 46.5411C6.72427 46.0697 6.55603 45.5152 6.55503 44.9477C6.55503 44.1859 6.85557 43.4552 7.39068 42.9161C7.92579 42.3769 8.65174 42.0734 9.40917 42.072ZM13.5436 72.2533C14.0977 71.3455 14.4377 70.3222 14.5377 69.2618C14.6377 68.2014 14.495 67.132 14.1205 66.1356L35.7087 57.6869C36.1974 58.5264 36.848 59.2592 37.6224 59.8422C38.3967 60.4252 39.2791 60.8466 40.2177 61.0817L30.7798 74.2281C30.307 72.8156 29.4141 71.5833 28.222 70.698C27.03 69.8126 25.5962 69.317 24.1149 69.2781C22.6335 69.2393 21.176 69.659 19.9397 70.4807C18.7033 71.3023 17.7478 72.4861 17.2024 73.8718L13.5436 72.2533ZM23.9379 79.4551C23.3739 79.4541 22.8228 79.285 22.3542 78.9692C21.8856 78.6534 21.5206 78.205 21.3052 77.6807C21.0898 77.1564 21.0337 76.5797 21.144 76.0233C21.2542 75.467 21.526 74.9559 21.9248 74.5548C22.3237 74.1537 22.8318 73.8804 23.3849 73.7694C23.9381 73.6585 24.5116 73.7149 25.0329 73.9316C25.5542 74.1482 26 74.5153 26.314 74.9866C26.628 75.4579 26.7961 76.0122 26.7971 76.5795C26.7971 77.3421 26.4959 78.0736 25.9597 78.6129C25.4235 79.1521 24.6962 79.4551 23.9379 79.4551ZM41.1792 62.6289L42.085 68.7466C40.565 69.0848 39.1935 69.9056 38.1729 71.0879C37.1523 72.2701 36.5368 73.7511 36.4172 75.3122H32.8748L41.1792 62.6289ZM71.1172 75.0221C70.5532 75.0211 70.0021 74.852 69.5335 74.5362C69.0649 74.2204 68.6998 73.772 68.4845 73.2477C68.2691 72.7234 68.213 72.1466 68.3232 71.5903C68.4335 71.0339 68.7053 70.5229 69.1041 70.1218C69.503 69.7206 70.0111 69.4473 70.5642 69.3364C71.1174 69.2255 71.6909 69.2819 72.2122 69.4985C72.7335 69.7152 73.1793 70.0823 73.4933 70.5536C73.8073 71.0249 73.9754 71.5791 73.9764 72.1464C73.9764 72.9091 73.6752 73.6405 73.139 74.1798C72.6028 74.7191 71.8755 75.0221 71.1172 75.0221ZM103.368 104.516C102.803 104.516 102.252 104.348 101.782 104.032C101.313 103.717 100.947 103.269 100.731 102.744C100.515 102.22 100.459 101.643 100.569 101.086C100.679 100.529 100.951 100.017 101.35 99.616C101.749 99.2145 102.258 98.9411 102.811 98.8304C103.365 98.7196 103.939 98.7764 104.46 98.9937C104.982 99.211 105.427 99.5789 105.741 100.051C106.055 100.523 106.222 101.078 106.222 101.646C106.221 102.407 105.92 103.136 105.385 103.674C104.85 104.212 104.125 104.515 103.368 104.516ZM103.368 94.3371C102.403 94.3372 101.448 94.5313 100.559 94.908C99.6702 95.2847 98.865 95.8364 98.1911 96.5307C92.8033 88.2317 85.4922 81.3728 76.8862 76.5439C77.3074 75.9884 77.6466 75.3747 77.8933 74.7218L93.1912 78.4016C93.5838 79.9303 94.4591 81.2897 95.6856 82.2754C96.912 83.2611 98.4234 83.8199 99.9926 83.8678C100.621 87.5954 101.953 91.1679 103.915 94.3931C103.727 94.3778 103.555 94.3422 103.368 94.3422V94.3371ZM100.2 79.4551C99.6358 79.4551 99.0842 79.2869 98.6149 78.9717C98.1457 78.6565 97.7799 78.2085 97.5637 77.6842C97.3475 77.16 97.2907 76.5831 97.4004 76.0264C97.5101 75.4697 97.7815 74.9583 98.1801 74.5566C98.5788 74.1549 99.0869 73.8811 99.6402 73.7698C100.193 73.6585 100.767 73.7146 101.289 73.9311C101.81 74.1476 102.257 74.5147 102.571 74.9861C102.885 75.4575 103.053 76.012 103.054 76.5795C103.054 77.3413 102.754 78.0719 102.219 78.6111C101.683 79.1502 100.958 79.4538 100.2 79.4551ZM102.447 69.6678C101.026 69.1506 99.472 69.1398 98.0443 69.6373L91.7237 59.8245C93.0028 58.8575 93.9281 57.4922 94.3552 55.9412H100.494C100.8 57.0546 101.365 58.0789 102.142 58.9301C102.919 59.7812 103.885 60.4349 104.962 60.8374L102.447 69.6678Z"/>
</mask>
<path d="M107.462 61.3158C108.438 61.3525 109.412 61.1907 110.325 60.8402C111.238 60.4897 112.071 59.9576 112.775 59.2758C113.479 58.5939 114.038 57.7764 114.421 56.872C114.803 55.9676 115 54.995 115 54.0122C115 53.0295 114.803 52.0568 114.421 51.1524C114.038 50.2481 113.479 49.4305 112.775 48.7487C112.071 48.0669 111.238 47.5348 110.325 47.1843C109.412 46.8338 108.438 46.672 107.462 46.7087C107.305 46.7087 107.158 46.7392 106.996 46.7494L104.557 37.0792C105.364 36.4703 106.035 35.6987 106.527 34.8138C107.02 33.9289 107.323 32.9502 107.418 31.9405C107.512 30.9308 107.396 29.9123 107.076 28.9505C106.756 27.9887 106.24 27.1047 105.561 26.3552C104.882 25.6057 104.054 25.0073 103.131 24.5983C102.209 24.1893 101.211 23.9788 100.203 23.9802C99.1943 23.9817 98.1973 24.1951 97.2757 24.6067C96.3542 25.0184 95.5283 25.6192 94.8511 26.3706L70.1051 14.802C70.3637 14.0624 70.5004 13.2854 70.51 12.5015C70.5356 11.5258 70.3666 10.5549 70.0131 9.64594C69.6595 8.737 69.1285 7.90849 68.4514 7.20929C67.7743 6.5101 66.9648 5.95438 66.0707 5.57494C65.1766 5.19549 64.216 5 63.2456 5C62.2751 5 61.3145 5.19549 60.4204 5.57494C59.5263 5.95438 58.7168 6.5101 58.0397 7.20929C57.3627 7.90849 56.8317 8.737 56.4781 9.64594C56.1245 10.5549 55.9556 11.5258 55.9812 12.5015C55.9936 12.7504 56.0189 12.9984 56.0571 13.2446L40.2986 18.1051C39.2104 16.7453 37.6724 15.824 35.9652 15.5094C34.258 15.1949 32.4952 15.5079 30.9983 16.3914C29.5014 17.275 28.3701 18.6702 27.8107 20.3227C27.2513 21.9752 27.3011 23.7748 27.9509 25.3934L13.1236 38.7078C12.0052 38.019 10.7206 37.6511 9.40917 37.6441C7.67322 37.6357 5.99204 38.2548 4.67188 39.3885C3.35172 40.5223 2.48043 42.0952 2.21674 43.8209C1.95305 45.5466 2.31451 47.3101 3.23526 48.7902C4.15602 50.2703 5.5748 51.3685 7.23314 51.8848L6.2514 61.382C5.14477 61.5363 4.0886 61.9459 3.16541 62.5787C2.24222 63.2115 1.47702 64.0504 0.929582 65.0299C0.382146 66.0094 0.067304 67.103 0.00965481 68.2251C-0.0479944 69.3472 0.15311 70.4676 0.597257 71.4986C1.0414 72.5297 1.71656 73.4434 2.56999 74.1686C3.42341 74.8937 4.43198 75.4106 5.51691 75.6788C6.60183 75.947 7.73372 75.9593 8.82415 75.7147C9.91458 75.4701 10.934 74.9753 11.8028 74.2688L16.6913 76.4319L16.6761 76.5846C16.6833 78.4046 17.3664 80.1562 18.5914 81.4959C19.8164 82.8355 21.4949 83.6665 23.2976 83.8258C25.1003 83.9851 26.8971 83.4613 28.3356 82.357C29.7742 81.2528 30.7505 79.6478 31.0733 77.857H36.6601C37.0986 79.445 38.06 80.8363 39.387 81.8033C40.714 82.7702 42.3281 83.2556 43.965 83.1799C45.602 83.1042 47.165 82.472 48.3982 81.3867C49.6314 80.3014 50.4619 78.8273 50.7537 77.2055L66.4767 77.7246C67.6277 78.7234 69.067 79.3242 70.5828 79.4387C72.0987 79.5532 73.611 79.1754 74.8974 78.3608C83.7735 83.2315 91.26 90.309 96.6425 98.9177C96.2878 99.7849 96.1039 100.713 96.1011 101.651C96.0942 102.9 96.4057 104.13 97.0058 105.223C97.6059 106.317 98.4747 107.237 99.5292 107.897C100.584 108.557 101.789 108.934 103.029 108.992C104.27 109.05 105.504 108.788 106.615 108.23C107.726 107.671 108.677 106.836 109.375 105.804C110.074 104.771 110.498 103.576 110.607 102.331C110.716 101.087 110.505 99.8356 109.997 98.6963C109.488 97.5569 108.697 96.5678 107.7 95.8232C105.157 92.1029 103.372 87.9135 102.447 83.4962C103.693 83.0983 104.807 82.3666 105.671 81.3797C106.535 80.3928 107.115 79.1879 107.349 77.8945C107.583 76.601 107.462 75.2679 107 74.0382C106.537 72.8085 105.751 71.7287 104.724 70.9148L107.457 61.3158H107.462ZM110.321 54.0122C110.32 54.5795 110.152 55.1338 109.838 55.6051C109.524 56.0764 109.078 56.4435 108.557 56.6601C108.036 56.8768 107.462 56.9332 106.909 56.8223C106.356 56.7113 105.848 56.438 105.449 56.0369C105.05 55.6358 104.778 55.1248 104.668 54.5684C104.558 54.012 104.614 53.4353 104.829 52.911C105.045 52.3867 105.41 51.9383 105.878 51.6225C106.347 51.3067 106.898 51.1376 107.462 51.1366C108.22 51.1366 108.947 51.4396 109.484 51.9789C110.02 52.5181 110.321 53.2496 110.321 54.0122ZM104.532 47.3347C103.346 47.8675 102.325 48.7106 101.573 49.7759C100.822 50.8412 100.369 52.0898 100.261 53.3913H94.588C94.5048 52.3969 94.2188 51.4304 93.7478 50.5521C93.2767 49.6738 92.6308 48.9025 91.8502 48.2864L98.9704 38.4482C100.061 38.6695 101.19 38.5993 102.245 38.2447L104.532 47.3347ZM93.0243 75.6684L78.3588 71.892C78.2994 70.246 77.6835 68.6697 76.613 67.4233L82.5338 59.4072C83.4425 60.2678 84.5646 60.8668 85.7825 61.1417C87.0004 61.4166 88.2693 61.3572 89.4566 60.9697L95.7924 70.813C95.0348 71.3981 94.4001 72.1285 93.9249 72.962C93.4498 73.7954 93.1437 74.7153 93.0243 75.6684ZM40.0911 27.5107L60.7432 38.3821C60.3021 39.6725 60.272 41.069 60.6571 42.3774L47.3985 49.2331C46.7236 48.4431 45.8875 47.8083 44.9472 47.3718C44.0068 46.9354 42.984 46.7075 41.9484 46.7036C41.8876 46.7036 41.832 46.7188 41.7712 46.7239L36.9992 29.572C38.1904 29.1668 39.2561 28.4563 40.0911 27.5107ZM96.511 37.5321L89.5932 47.0802C88.4264 46.6748 87.1733 46.5894 85.9628 46.8327C84.7523 47.076 83.6281 47.6393 82.7058 48.4646L74.6545 42.3571C74.9314 41.4859 74.9922 40.5598 74.8317 39.6596L93.591 34.2646C94.2109 35.6247 95.2299 36.7614 96.511 37.5219V37.5321ZM87.3818 56.8828C86.8175 56.8818 86.2662 56.7125 85.7975 56.3965C85.3288 56.0805 84.9637 55.6318 84.7485 55.1072C84.5332 54.5826 84.4774 54.0056 84.5881 53.4491C84.6988 52.8926 84.9711 52.3816 85.3704 51.9807C85.7698 51.5797 86.2784 51.3068 86.8319 51.1965C87.3854 51.0861 87.959 51.1433 88.4802 51.3607C89.0015 51.5781 89.4469 51.946 89.7603 52.418C90.0737 52.8899 90.241 53.4447 90.241 54.0122C90.2396 54.774 89.9378 55.5041 89.4017 56.0423C88.8657 56.5805 88.1392 56.8828 87.3818 56.8828ZM67.6508 43.3953C67.0867 43.3943 66.5356 43.2252 66.067 42.9094C65.5984 42.5936 65.2334 42.1453 65.018 41.621C64.8026 41.0966 64.7465 40.5199 64.8568 39.9636C64.9671 39.4072 65.2388 38.8962 65.6377 38.495C66.0365 38.0939 66.5446 37.8206 67.0978 37.7097C67.651 37.5988 68.2244 37.6552 68.7457 37.8718C69.267 38.0884 69.7129 38.4556 70.0269 38.9269C70.3409 39.3981 70.509 39.9524 70.51 40.5197C70.5086 41.2815 70.2068 42.0116 69.6707 42.5498C69.1347 43.088 68.4082 43.3902 67.6508 43.3902V43.3953ZM41.9433 51.1366C42.5076 51.1366 43.0592 51.3048 43.5284 51.62C43.9977 51.9352 44.3635 52.3832 44.5797 52.9075C44.7959 53.4317 44.8527 54.0086 44.743 54.5653C44.6332 55.122 44.3619 55.6335 43.9633 56.0351C43.5646 56.4368 43.0565 56.7106 42.5032 56.8219C41.9499 56.9332 41.3762 56.8771 40.8546 56.6606C40.333 56.4441 39.8868 56.077 39.5726 55.6056C39.2584 55.1342 39.0902 54.5797 39.0892 54.0122C39.0892 53.2496 39.3904 52.5181 39.9266 51.9789C40.4628 51.4396 41.19 51.1366 41.9484 51.1366H41.9433ZM49.2102 54.0122C49.2056 53.122 49.0374 52.2403 48.7143 51.4114L61.7097 44.6932C62.3771 45.6578 63.2661 46.4462 64.3014 46.9911C65.3366 47.5361 66.4874 47.8216 67.6558 47.8233L67.7773 47.8131L65.581 66.441L45.8146 68.9553C45.4184 68.8284 45.0121 68.7365 44.6001 68.6804L43.0971 61.1987C44.798 60.9247 46.3466 60.0515 47.4664 58.735C48.5862 57.4186 49.2043 55.7447 49.2102 54.0122ZM43.6284 73.0117C44.1925 73.0127 44.7436 73.1818 45.2122 73.4976C45.6808 73.8134 46.0458 74.2617 46.2612 74.786C46.4766 75.3104 46.5327 75.8871 46.4224 76.4435C46.3121 76.9998 46.0404 77.5108 45.6416 77.912C45.2427 78.3131 44.7346 78.5864 44.1814 78.6973C43.6283 78.8083 43.0548 78.7518 42.5335 78.5352C42.0122 78.3186 41.5664 77.9514 41.2524 77.4802C40.9384 77.0089 40.7703 76.4546 40.7693 75.8873C40.7693 75.1246 41.0705 74.3932 41.6067 73.8539C42.1429 73.3146 42.8701 73.0117 43.6284 73.0117ZM49.0736 71.1031L64.5234 69.1436C64.0907 70.0778 63.8644 71.0953 63.8601 72.1258C63.8557 73.1564 64.0734 74.1758 64.4981 75.1137L50.7689 74.6658C50.5429 73.3432 49.9559 72.1097 49.0736 71.1031ZM70.3936 47.2736C71.673 46.746 72.777 45.8635 73.5766 44.7288L81.0966 50.4291C80.4872 51.466 80.1532 52.6431 80.1266 53.8472C80.1 55.0514 80.3818 56.2422 80.9448 57.3052L74.6545 65.8048C73.6905 65.2434 72.6084 64.9186 71.4961 64.8567C70.3838 64.7948 69.2727 64.9976 68.253 65.4485L70.3936 47.2736ZM100.2 28.4014C100.765 28.4014 101.316 28.5697 101.786 28.8852C102.255 29.2006 102.621 29.6489 102.837 30.1734C103.053 30.6979 103.11 31.2751 102.999 31.8319C102.889 32.3888 102.617 32.9002 102.218 33.3017C101.819 33.7031 101.311 33.9765 100.757 34.0873C100.203 34.1981 99.6294 34.1412 99.1078 33.924C98.5863 33.7067 98.1406 33.3388 97.827 32.8667C97.5133 32.3947 97.3459 31.8397 97.3459 31.2719C97.3473 30.5101 97.6491 29.78 98.1852 29.2418C98.7212 28.7037 99.4477 28.4014 100.205 28.4014H100.2ZM93.4797 28.5337C93.1244 29.4025 92.9404 30.3325 92.9382 31.2719C92.9382 31.4501 92.9787 31.618 92.9888 31.7962L74.1029 37.2217C73.5008 36.0201 72.5798 35.0095 71.4419 34.3016C70.3041 33.5938 68.9937 33.2164 67.6558 33.2111C67.4382 33.2111 67.2257 33.262 67.0131 33.2772L64.3766 19.688C66.1586 19.4041 67.7706 18.4601 68.8957 17.0414L93.4797 28.5337ZM63.2431 9.6208C63.8073 9.6208 64.3589 9.78902 64.8282 10.1042C65.2974 10.4194 65.6633 10.8674 65.8794 11.3917C66.0956 11.9159 66.1524 12.4928 66.0427 13.0495C65.933 13.6062 65.6617 14.1176 65.263 14.5193C64.8644 14.921 64.3563 15.1947 63.803 15.3061C63.2496 15.4174 62.6759 15.3613 62.1543 15.1448C61.6327 14.9283 61.1866 14.5612 60.8724 14.0898C60.5582 13.6184 60.3899 13.0639 60.3889 12.4964C60.3889 11.7346 60.6895 11.004 61.2246 10.4648C61.7597 9.92571 62.4856 9.62215 63.2431 9.6208ZM56.7453 15.6876C57.2295 16.691 57.9354 17.5699 58.8089 18.2571C59.6825 18.9442 60.7006 19.4215 61.7856 19.6524L64.5588 33.9287C63.5112 34.4328 62.5986 35.1814 61.897 36.1121L41.4271 25.3426C42.0765 23.7602 42.118 21.9916 41.5435 20.3802L56.7453 15.6876ZM34.6814 19.8C35.2457 19.8 35.7973 19.9682 36.2666 20.2834C36.7358 20.5986 37.1017 21.0466 37.3178 21.5708C37.534 22.0951 37.5908 22.672 37.4811 23.2287C37.3714 23.7853 37.1001 24.2968 36.7014 24.6985C36.3027 25.1001 35.7947 25.3739 35.2413 25.4853C34.688 25.5966 34.1143 25.5405 33.5927 25.324C33.0711 25.1075 32.625 24.7404 32.3108 24.269C31.9965 23.7976 31.8283 23.2431 31.8273 22.6756C31.8273 21.9138 32.1278 21.1832 32.6629 20.644C33.1981 20.1049 33.924 19.8013 34.6814 19.8ZM34.479 29.9588L39.2865 47.2227C37.8974 47.7754 36.7104 48.7436 35.8858 49.9965L16.6609 45.0647L16.6761 44.9477C16.6676 43.2831 16.0885 41.6724 15.0365 40.3874L29.3274 27.5667C29.9802 28.2942 30.7728 28.8813 31.6573 29.2924C32.5418 29.7035 33.5 29.9302 34.474 29.9588H34.479ZM10.1581 68.5736C10.1581 69.1413 9.99073 69.6963 9.67712 70.1683C9.3635 70.6404 8.91774 71.0083 8.39622 71.2256C7.87469 71.4428 7.30082 71.4997 6.74717 71.3889C6.19352 71.2782 5.68497 71.0048 5.28581 70.6033C4.88665 70.2019 4.61482 69.6904 4.50469 69.1336C4.39456 68.5767 4.45108 67.9996 4.66711 67.475C4.88313 66.9505 5.24895 66.5022 5.71831 66.1868C6.18767 65.8714 6.73949 65.703 7.30399 65.703C8.06054 65.7044 8.78572 66.0072 9.32069 66.5453C9.85565 67.0833 10.1568 67.8127 10.1581 68.5736ZM8.79178 61.4227L9.74822 52.2207C11.1516 52.1543 12.5057 51.6793 13.6457 50.8535C14.7858 50.0276 15.6627 48.8865 16.17 47.5688L34.8839 52.3683C34.6432 53.328 34.619 54.3296 34.813 55.2999L12.8351 63.9013C11.7995 62.6437 10.3737 61.7725 8.78672 61.4278L8.79178 61.4227ZM9.40917 42.072C9.97344 42.072 10.5251 42.2403 10.9943 42.5555C11.4636 42.8707 11.8294 43.3187 12.0456 43.8429C12.2617 44.3671 12.3185 44.944 12.2088 45.5007C12.0991 46.0574 11.8278 46.5689 11.4291 46.9705C11.0305 47.3722 10.5224 47.646 9.96908 47.7573C9.41576 47.8687 8.84205 47.8125 8.32044 47.5961C7.79882 47.3796 7.35272 47.0124 7.0385 46.5411C6.72427 46.0697 6.55603 45.5152 6.55503 44.9477C6.55503 44.1859 6.85557 43.4552 7.39068 42.9161C7.92579 42.3769 8.65174 42.0734 9.40917 42.072ZM13.5436 72.2533C14.0977 71.3455 14.4377 70.3222 14.5377 69.2618C14.6377 68.2014 14.495 67.132 14.1205 66.1356L35.7087 57.6869C36.1974 58.5264 36.848 59.2592 37.6224 59.8422C38.3967 60.4252 39.2791 60.8466 40.2177 61.0817L30.7798 74.2281C30.307 72.8156 29.4141 71.5833 28.222 70.698C27.03 69.8126 25.5962 69.317 24.1149 69.2781C22.6335 69.2393 21.176 69.659 19.9397 70.4807C18.7033 71.3023 17.7478 72.4861 17.2024 73.8718L13.5436 72.2533ZM23.9379 79.4551C23.3739 79.4541 22.8228 79.285 22.3542 78.9692C21.8856 78.6534 21.5206 78.205 21.3052 77.6807C21.0898 77.1564 21.0337 76.5797 21.144 76.0233C21.2542 75.467 21.526 74.9559 21.9248 74.5548C22.3237 74.1537 22.8318 73.8804 23.3849 73.7694C23.9381 73.6585 24.5116 73.7149 25.0329 73.9316C25.5542 74.1482 26 74.5153 26.314 74.9866C26.628 75.4579 26.7961 76.0122 26.7971 76.5795C26.7971 77.3421 26.4959 78.0736 25.9597 78.6129C25.4235 79.1521 24.6962 79.4551 23.9379 79.4551ZM41.1792 62.6289L42.085 68.7466C40.565 69.0848 39.1935 69.9056 38.1729 71.0879C37.1523 72.2701 36.5368 73.7511 36.4172 75.3122H32.8748L41.1792 62.6289ZM71.1172 75.0221C70.5532 75.0211 70.0021 74.852 69.5335 74.5362C69.0649 74.2204 68.6998 73.772 68.4845 73.2477C68.2691 72.7234 68.213 72.1466 68.3232 71.5903C68.4335 71.0339 68.7053 70.5229 69.1041 70.1218C69.503 69.7206 70.0111 69.4473 70.5642 69.3364C71.1174 69.2255 71.6909 69.2819 72.2122 69.4985C72.7335 69.7152 73.1793 70.0823 73.4933 70.5536C73.8073 71.0249 73.9754 71.5791 73.9764 72.1464C73.9764 72.9091 73.6752 73.6405 73.139 74.1798C72.6028 74.7191 71.8755 75.0221 71.1172 75.0221ZM103.368 104.516C102.803 104.516 102.252 104.348 101.782 104.032C101.313 103.717 100.947 103.269 100.731 102.744C100.515 102.22 100.459 101.643 100.569 101.086C100.679 100.529 100.951 100.017 101.35 99.616C101.749 99.2145 102.258 98.9411 102.811 98.8304C103.365 98.7196 103.939 98.7764 104.46 98.9937C104.982 99.211 105.427 99.5789 105.741 100.051C106.055 100.523 106.222 101.078 106.222 101.646C106.221 102.407 105.92 103.136 105.385 103.674C104.85 104.212 104.125 104.515 103.368 104.516ZM103.368 94.3371C102.403 94.3372 101.448 94.5313 100.559 94.908C99.6702 95.2847 98.865 95.8364 98.1911 96.5307C92.8033 88.2317 85.4922 81.3728 76.8862 76.5439C77.3074 75.9884 77.6466 75.3747 77.8933 74.7218L93.1912 78.4016C93.5838 79.9303 94.4591 81.2897 95.6856 82.2754C96.912 83.2611 98.4234 83.8199 99.9926 83.8678C100.621 87.5954 101.953 91.1679 103.915 94.3931C103.727 94.3778 103.555 94.3422 103.368 94.3422V94.3371ZM100.2 79.4551C99.6358 79.4551 99.0842 79.2869 98.6149 78.9717C98.1457 78.6565 97.7799 78.2085 97.5637 77.6842C97.3475 77.16 97.2907 76.5831 97.4004 76.0264C97.5101 75.4697 97.7815 74.9583 98.1801 74.5566C98.5788 74.1549 99.0869 73.8811 99.6402 73.7698C100.193 73.6585 100.767 73.7146 101.289 73.9311C101.81 74.1476 102.257 74.5147 102.571 74.9861C102.885 75.4575 103.053 76.012 103.054 76.5795C103.054 77.3413 102.754 78.0719 102.219 78.6111C101.683 79.1502 100.958 79.4538 100.2 79.4551ZM102.447 69.6678C101.026 69.1506 99.472 69.1398 98.0443 69.6373L91.7237 59.8245C93.0028 58.8575 93.9281 57.4922 94.3552 55.9412H100.494C100.8 57.0546 101.365 58.0789 102.142 58.9301C102.919 59.7812 103.885 60.4349 104.962 60.8374L102.447 69.6678Z" fill="#FF431A"/>
<path d="M107.462 61.3158C108.438 61.3525 109.412 61.1907 110.325 60.8402C111.238 60.4897 112.071 59.9576 112.775 59.2758C113.479 58.5939 114.038 57.7764 114.421 56.872C114.803 55.9676 115 54.995 115 54.0122C115 53.0295 114.803 52.0568 114.421 51.1524C114.038 50.2481 113.479 49.4305 112.775 48.7487C112.071 48.0669 111.238 47.5348 110.325 47.1843C109.412 46.8338 108.438 46.672 107.462 46.7087C107.305 46.7087 107.158 46.7392 106.996 46.7494L104.557 37.0792C105.364 36.4703 106.035 35.6987 106.527 34.8138C107.02 33.9289 107.323 32.9502 107.418 31.9405C107.512 30.9308 107.396 29.9123 107.076 28.9505C106.756 27.9887 106.24 27.1047 105.561 26.3552C104.882 25.6057 104.054 25.0073 103.131 24.5983C102.209 24.1893 101.211 23.9788 100.203 23.9802C99.1943 23.9817 98.1973 24.1951 97.2757 24.6067C96.3542 25.0184 95.5283 25.6192 94.8511 26.3706L70.1051 14.802C70.3637 14.0624 70.5004 13.2854 70.51 12.5015C70.5356 11.5258 70.3666 10.5549 70.0131 9.64594C69.6595 8.737 69.1285 7.90849 68.4514 7.20929C67.7743 6.5101 66.9648 5.95438 66.0707 5.57494C65.1766 5.19549 64.216 5 63.2456 5C62.2751 5 61.3145 5.19549 60.4204 5.57494C59.5263 5.95438 58.7168 6.5101 58.0397 7.20929C57.3627 7.90849 56.8317 8.737 56.4781 9.64594C56.1245 10.5549 55.9556 11.5258 55.9812 12.5015C55.9936 12.7504 56.0189 12.9984 56.0571 13.2446L40.2986 18.1051C39.2104 16.7453 37.6724 15.824 35.9652 15.5094C34.258 15.1949 32.4952 15.5079 30.9983 16.3914C29.5014 17.275 28.3701 18.6702 27.8107 20.3227C27.2513 21.9752 27.3011 23.7748 27.9509 25.3934L13.1236 38.7078C12.0052 38.019 10.7206 37.6511 9.40917 37.6441C7.67322 37.6357 5.99204 38.2548 4.67188 39.3885C3.35172 40.5223 2.48043 42.0952 2.21674 43.8209C1.95305 45.5466 2.31451 47.3101 3.23526 48.7902C4.15602 50.2703 5.5748 51.3685 7.23314 51.8848L6.2514 61.382C5.14477 61.5363 4.0886 61.9459 3.16541 62.5787C2.24222 63.2115 1.47702 64.0504 0.929582 65.0299C0.382146 66.0094 0.067304 67.103 0.00965481 68.2251C-0.0479944 69.3472 0.15311 70.4676 0.597257 71.4986C1.0414 72.5297 1.71656 73.4434 2.56999 74.1686C3.42341 74.8937 4.43198 75.4106 5.51691 75.6788C6.60183 75.947 7.73372 75.9593 8.82415 75.7147C9.91458 75.4701 10.934 74.9753 11.8028 74.2688L16.6913 76.4319L16.6761 76.5846C16.6833 78.4046 17.3664 80.1562 18.5914 81.4959C19.8164 82.8355 21.4949 83.6665 23.2976 83.8258C25.1003 83.9851 26.8971 83.4613 28.3356 82.357C29.7742 81.2528 30.7505 79.6478 31.0733 77.857H36.6601C37.0986 79.445 38.06 80.8363 39.387 81.8033C40.714 82.7702 42.3281 83.2556 43.965 83.1799C45.602 83.1042 47.165 82.472 48.3982 81.3867C49.6314 80.3014 50.4619 78.8273 50.7537 77.2055L66.4767 77.7246C67.6277 78.7234 69.067 79.3242 70.5828 79.4387C72.0987 79.5532 73.611 79.1754 74.8974 78.3608C83.7735 83.2315 91.26 90.309 96.6425 98.9177C96.2878 99.7849 96.1039 100.713 96.1011 101.651C96.0942 102.9 96.4057 104.13 97.0058 105.223C97.6059 106.317 98.4747 107.237 99.5292 107.897C100.584 108.557 101.789 108.934 103.029 108.992C104.27 109.05 105.504 108.788 106.615 108.23C107.726 107.671 108.677 106.836 109.375 105.804C110.074 104.771 110.498 103.576 110.607 102.331C110.716 101.087 110.505 99.8356 109.997 98.6963C109.488 97.5569 108.697 96.5678 107.7 95.8232C105.157 92.1029 103.372 87.9135 102.447 83.4962C103.693 83.0983 104.807 82.3666 105.671 81.3797C106.535 80.3928 107.115 79.1879 107.349 77.8945C107.583 76.601 107.462 75.2679 107 74.0382C106.537 72.8085 105.751 71.7287 104.724 70.9148L107.457 61.3158H107.462ZM110.321 54.0122C110.32 54.5795 110.152 55.1338 109.838 55.6051C109.524 56.0764 109.078 56.4435 108.557 56.6601C108.036 56.8768 107.462 56.9332 106.909 56.8223C106.356 56.7113 105.848 56.438 105.449 56.0369C105.05 55.6358 104.778 55.1248 104.668 54.5684C104.558 54.012 104.614 53.4353 104.829 52.911C105.045 52.3867 105.41 51.9383 105.878 51.6225C106.347 51.3067 106.898 51.1376 107.462 51.1366C108.22 51.1366 108.947 51.4396 109.484 51.9789C110.02 52.5181 110.321 53.2496 110.321 54.0122ZM104.532 47.3347C103.346 47.8675 102.325 48.7106 101.573 49.7759C100.822 50.8412 100.369 52.0898 100.261 53.3913H94.588C94.5048 52.3969 94.2188 51.4304 93.7478 50.5521C93.2767 49.6738 92.6308 48.9025 91.8502 48.2864L98.9704 38.4482C100.061 38.6695 101.19 38.5993 102.245 38.2447L104.532 47.3347ZM93.0243 75.6684L78.3588 71.892C78.2994 70.246 77.6835 68.6697 76.613 67.4233L82.5338 59.4072C83.4425 60.2678 84.5646 60.8668 85.7825 61.1417C87.0004 61.4166 88.2693 61.3572 89.4566 60.9697L95.7924 70.813C95.0348 71.3981 94.4001 72.1285 93.9249 72.962C93.4498 73.7954 93.1437 74.7153 93.0243 75.6684ZM40.0911 27.5107L60.7432 38.3821C60.3021 39.6725 60.272 41.069 60.6571 42.3774L47.3985 49.2331C46.7236 48.4431 45.8875 47.8083 44.9472 47.3718C44.0068 46.9354 42.984 46.7075 41.9484 46.7036C41.8876 46.7036 41.832 46.7188 41.7712 46.7239L36.9992 29.572C38.1904 29.1668 39.2561 28.4563 40.0911 27.5107ZM96.511 37.5321L89.5932 47.0802C88.4264 46.6748 87.1733 46.5894 85.9628 46.8327C84.7523 47.076 83.6281 47.6393 82.7058 48.4646L74.6545 42.3571C74.9314 41.4859 74.9922 40.5598 74.8317 39.6596L93.591 34.2646C94.2109 35.6247 95.2299 36.7614 96.511 37.5219V37.5321ZM87.3818 56.8828C86.8175 56.8818 86.2662 56.7125 85.7975 56.3965C85.3288 56.0805 84.9637 55.6318 84.7485 55.1072C84.5332 54.5826 84.4774 54.0056 84.5881 53.4491C84.6988 52.8926 84.9711 52.3816 85.3704 51.9807C85.7698 51.5797 86.2784 51.3068 86.8319 51.1965C87.3854 51.0861 87.959 51.1433 88.4802 51.3607C89.0015 51.5781 89.4469 51.946 89.7603 52.418C90.0737 52.8899 90.241 53.4447 90.241 54.0122C90.2396 54.774 89.9378 55.5041 89.4017 56.0423C88.8657 56.5805 88.1392 56.8828 87.3818 56.8828ZM67.6508 43.3953C67.0867 43.3943 66.5356 43.2252 66.067 42.9094C65.5984 42.5936 65.2334 42.1453 65.018 41.621C64.8026 41.0966 64.7465 40.5199 64.8568 39.9636C64.9671 39.4072 65.2388 38.8962 65.6377 38.495C66.0365 38.0939 66.5446 37.8206 67.0978 37.7097C67.651 37.5988 68.2244 37.6552 68.7457 37.8718C69.267 38.0884 69.7129 38.4556 70.0269 38.9269C70.3409 39.3981 70.509 39.9524 70.51 40.5197C70.5086 41.2815 70.2068 42.0116 69.6707 42.5498C69.1347 43.088 68.4082 43.3902 67.6508 43.3902V43.3953ZM41.9433 51.1366C42.5076 51.1366 43.0592 51.3048 43.5284 51.62C43.9977 51.9352 44.3635 52.3832 44.5797 52.9075C44.7959 53.4317 44.8527 54.0086 44.743 54.5653C44.6332 55.122 44.3619 55.6335 43.9633 56.0351C43.5646 56.4368 43.0565 56.7106 42.5032 56.8219C41.9499 56.9332 41.3762 56.8771 40.8546 56.6606C40.333 56.4441 39.8868 56.077 39.5726 55.6056C39.2584 55.1342 39.0902 54.5797 39.0892 54.0122C39.0892 53.2496 39.3904 52.5181 39.9266 51.9789C40.4628 51.4396 41.19 51.1366 41.9484 51.1366H41.9433ZM49.2102 54.0122C49.2056 53.122 49.0374 52.2403 48.7143 51.4114L61.7097 44.6932C62.3771 45.6578 63.2661 46.4462 64.3014 46.9911C65.3366 47.5361 66.4874 47.8216 67.6558 47.8233L67.7773 47.8131L65.581 66.441L45.8146 68.9553C45.4184 68.8284 45.0121 68.7365 44.6001 68.6804L43.0971 61.1987C44.798 60.9247 46.3466 60.0515 47.4664 58.735C48.5862 57.4186 49.2043 55.7447 49.2102 54.0122ZM43.6284 73.0117C44.1925 73.0127 44.7436 73.1818 45.2122 73.4976C45.6808 73.8134 46.0458 74.2617 46.2612 74.786C46.4766 75.3104 46.5327 75.8871 46.4224 76.4435C46.3121 76.9998 46.0404 77.5108 45.6416 77.912C45.2427 78.3131 44.7346 78.5864 44.1814 78.6973C43.6283 78.8083 43.0548 78.7518 42.5335 78.5352C42.0122 78.3186 41.5664 77.9514 41.2524 77.4802C40.9384 77.0089 40.7703 76.4546 40.7693 75.8873C40.7693 75.1246 41.0705 74.3932 41.6067 73.8539C42.1429 73.3146 42.8701 73.0117 43.6284 73.0117ZM49.0736 71.1031L64.5234 69.1436C64.0907 70.0778 63.8644 71.0953 63.8601 72.1258C63.8557 73.1564 64.0734 74.1758 64.4981 75.1137L50.7689 74.6658C50.5429 73.3432 49.9559 72.1097 49.0736 71.1031ZM70.3936 47.2736C71.673 46.746 72.777 45.8635 73.5766 44.7288L81.0966 50.4291C80.4872 51.466 80.1532 52.6431 80.1266 53.8472C80.1 55.0514 80.3818 56.2422 80.9448 57.3052L74.6545 65.8048C73.6905 65.2434 72.6084 64.9186 71.4961 64.8567C70.3838 64.7948 69.2727 64.9976 68.253 65.4485L70.3936 47.2736ZM100.2 28.4014C100.765 28.4014 101.316 28.5697 101.786 28.8852C102.255 29.2006 102.621 29.6489 102.837 30.1734C103.053 30.6979 103.11 31.2751 102.999 31.8319C102.889 32.3888 102.617 32.9002 102.218 33.3017C101.819 33.7031 101.311 33.9765 100.757 34.0873C100.203 34.1981 99.6294 34.1412 99.1078 33.924C98.5863 33.7067 98.1406 33.3388 97.827 32.8667C97.5133 32.3947 97.3459 31.8397 97.3459 31.2719C97.3473 30.5101 97.6491 29.78 98.1852 29.2418C98.7212 28.7037 99.4477 28.4014 100.205 28.4014H100.2ZM93.4797 28.5337C93.1244 29.4025 92.9404 30.3325 92.9382 31.2719C92.9382 31.4501 92.9787 31.618 92.9888 31.7962L74.1029 37.2217C73.5008 36.0201 72.5798 35.0095 71.4419 34.3016C70.3041 33.5938 68.9937 33.2164 67.6558 33.2111C67.4382 33.2111 67.2257 33.262 67.0131 33.2772L64.3766 19.688C66.1586 19.4041 67.7706 18.4601 68.8957 17.0414L93.4797 28.5337ZM63.2431 9.6208C63.8073 9.6208 64.3589 9.78902 64.8282 10.1042C65.2974 10.4194 65.6633 10.8674 65.8794 11.3917C66.0956 11.9159 66.1524 12.4928 66.0427 13.0495C65.933 13.6062 65.6617 14.1176 65.263 14.5193C64.8644 14.921 64.3563 15.1947 63.803 15.3061C63.2496 15.4174 62.6759 15.3613 62.1543 15.1448C61.6327 14.9283 61.1866 14.5612 60.8724 14.0898C60.5582 13.6184 60.3899 13.0639 60.3889 12.4964C60.3889 11.7346 60.6895 11.004 61.2246 10.4648C61.7597 9.92571 62.4856 9.62215 63.2431 9.6208ZM56.7453 15.6876C57.2295 16.691 57.9354 17.5699 58.8089 18.2571C59.6825 18.9442 60.7006 19.4215 61.7856 19.6524L64.5588 33.9287C63.5112 34.4328 62.5986 35.1814 61.897 36.1121L41.4271 25.3426C42.0765 23.7602 42.118 21.9916 41.5435 20.3802L56.7453 15.6876ZM34.6814 19.8C35.2457 19.8 35.7973 19.9682 36.2666 20.2834C36.7358 20.5986 37.1017 21.0466 37.3178 21.5708C37.534 22.0951 37.5908 22.672 37.4811 23.2287C37.3714 23.7853 37.1001 24.2968 36.7014 24.6985C36.3027 25.1001 35.7947 25.3739 35.2413 25.4853C34.688 25.5966 34.1143 25.5405 33.5927 25.324C33.0711 25.1075 32.625 24.7404 32.3108 24.269C31.9965 23.7976 31.8283 23.2431 31.8273 22.6756C31.8273 21.9138 32.1278 21.1832 32.6629 20.644C33.1981 20.1049 33.924 19.8013 34.6814 19.8ZM34.479 29.9588L39.2865 47.2227C37.8974 47.7754 36.7104 48.7436 35.8858 49.9965L16.6609 45.0647L16.6761 44.9477C16.6676 43.2831 16.0885 41.6724 15.0365 40.3874L29.3274 27.5667C29.9802 28.2942 30.7728 28.8813 31.6573 29.2924C32.5418 29.7035 33.5 29.9302 34.474 29.9588H34.479ZM10.1581 68.5736C10.1581 69.1413 9.99073 69.6963 9.67712 70.1683C9.3635 70.6404 8.91774 71.0083 8.39622 71.2256C7.87469 71.4428 7.30082 71.4997 6.74717 71.3889C6.19352 71.2782 5.68497 71.0048 5.28581 70.6033C4.88665 70.2019 4.61482 69.6904 4.50469 69.1336C4.39456 68.5767 4.45108 67.9996 4.66711 67.475C4.88313 66.9505 5.24895 66.5022 5.71831 66.1868C6.18767 65.8714 6.73949 65.703 7.30399 65.703C8.06054 65.7044 8.78572 66.0072 9.32069 66.5453C9.85565 67.0833 10.1568 67.8127 10.1581 68.5736ZM8.79178 61.4227L9.74822 52.2207C11.1516 52.1543 12.5057 51.6793 13.6457 50.8535C14.7858 50.0276 15.6627 48.8865 16.17 47.5688L34.8839 52.3683C34.6432 53.328 34.619 54.3296 34.813 55.2999L12.8351 63.9013C11.7995 62.6437 10.3737 61.7725 8.78672 61.4278L8.79178 61.4227ZM9.40917 42.072C9.97344 42.072 10.5251 42.2403 10.9943 42.5555C11.4636 42.8707 11.8294 43.3187 12.0456 43.8429C12.2617 44.3671 12.3185 44.944 12.2088 45.5007C12.0991 46.0574 11.8278 46.5689 11.4291 46.9705C11.0305 47.3722 10.5224 47.646 9.96908 47.7573C9.41576 47.8687 8.84205 47.8125 8.32044 47.5961C7.79882 47.3796 7.35272 47.0124 7.0385 46.5411C6.72427 46.0697 6.55603 45.5152 6.55503 44.9477C6.55503 44.1859 6.85557 43.4552 7.39068 42.9161C7.92579 42.3769 8.65174 42.0734 9.40917 42.072ZM13.5436 72.2533C14.0977 71.3455 14.4377 70.3222 14.5377 69.2618C14.6377 68.2014 14.495 67.132 14.1205 66.1356L35.7087 57.6869C36.1974 58.5264 36.848 59.2592 37.6224 59.8422C38.3967 60.4252 39.2791 60.8466 40.2177 61.0817L30.7798 74.2281C30.307 72.8156 29.4141 71.5833 28.222 70.698C27.03 69.8126 25.5962 69.317 24.1149 69.2781C22.6335 69.2393 21.176 69.659 19.9397 70.4807C18.7033 71.3023 17.7478 72.4861 17.2024 73.8718L13.5436 72.2533ZM23.9379 79.4551C23.3739 79.4541 22.8228 79.285 22.3542 78.9692C21.8856 78.6534 21.5206 78.205 21.3052 77.6807C21.0898 77.1564 21.0337 76.5797 21.144 76.0233C21.2542 75.467 21.526 74.9559 21.9248 74.5548C22.3237 74.1537 22.8318 73.8804 23.3849 73.7694C23.9381 73.6585 24.5116 73.7149 25.0329 73.9316C25.5542 74.1482 26 74.5153 26.314 74.9866C26.628 75.4579 26.7961 76.0122 26.7971 76.5795C26.7971 77.3421 26.4959 78.0736 25.9597 78.6129C25.4235 79.1521 24.6962 79.4551 23.9379 79.4551ZM41.1792 62.6289L42.085 68.7466C40.565 69.0848 39.1935 69.9056 38.1729 71.0879C37.1523 72.2701 36.5368 73.7511 36.4172 75.3122H32.8748L41.1792 62.6289ZM71.1172 75.0221C70.5532 75.0211 70.0021 74.852 69.5335 74.5362C69.0649 74.2204 68.6998 73.772 68.4845 73.2477C68.2691 72.7234 68.213 72.1466 68.3232 71.5903C68.4335 71.0339 68.7053 70.5229 69.1041 70.1218C69.503 69.7206 70.0111 69.4473 70.5642 69.3364C71.1174 69.2255 71.6909 69.2819 72.2122 69.4985C72.7335 69.7152 73.1793 70.0823 73.4933 70.5536C73.8073 71.0249 73.9754 71.5791 73.9764 72.1464C73.9764 72.9091 73.6752 73.6405 73.139 74.1798C72.6028 74.7191 71.8755 75.0221 71.1172 75.0221ZM103.368 104.516C102.803 104.516 102.252 104.348 101.782 104.032C101.313 103.717 100.947 103.269 100.731 102.744C100.515 102.22 100.459 101.643 100.569 101.086C100.679 100.529 100.951 100.017 101.35 99.616C101.749 99.2145 102.258 98.9411 102.811 98.8304C103.365 98.7196 103.939 98.7764 104.46 98.9937C104.982 99.211 105.427 99.5789 105.741 100.051C106.055 100.523 106.222 101.078 106.222 101.646C106.221 102.407 105.92 103.136 105.385 103.674C104.85 104.212 104.125 104.515 103.368 104.516ZM103.368 94.3371C102.403 94.3372 101.448 94.5313 100.559 94.908C99.6702 95.2847 98.865 95.8364 98.1911 96.5307C92.8033 88.2317 85.4922 81.3728 76.8862 76.5439C77.3074 75.9884 77.6466 75.3747 77.8933 74.7218L93.1912 78.4016C93.5838 79.9303 94.4591 81.2897 95.6856 82.2754C96.912 83.2611 98.4234 83.8199 99.9926 83.8678C100.621 87.5954 101.953 91.1679 103.915 94.3931C103.727 94.3778 103.555 94.3422 103.368 94.3422V94.3371ZM100.2 79.4551C99.6358 79.4551 99.0842 79.2869 98.6149 78.9717C98.1457 78.6565 97.7799 78.2085 97.5637 77.6842C97.3475 77.16 97.2907 76.5831 97.4004 76.0264C97.5101 75.4697 97.7815 74.9583 98.1801 74.5566C98.5788 74.1549 99.0869 73.8811 99.6402 73.7698C100.193 73.6585 100.767 73.7146 101.289 73.9311C101.81 74.1476 102.257 74.5147 102.571 74.9861C102.885 75.4575 103.053 76.012 103.054 76.5795C103.054 77.3413 102.754 78.0719 102.219 78.6111C101.683 79.1502 100.958 79.4538 100.2 79.4551ZM102.447 69.6678C101.026 69.1506 99.472 69.1398 98.0443 69.6373L91.7237 59.8245C93.0028 58.8575 93.9281 57.4922 94.3552 55.9412H100.494C100.8 57.0546 101.365 58.0789 102.142 58.9301C102.919 59.7812 103.885 60.4349 104.962 60.8374L102.447 69.6678Z" stroke="#FF431A" stroke-width="2" mask="url(#path-1-outside-1_101_1037)"/>
</g>
<defs>
<clipPath id="clip0_101_1037">
<rect width="115" height="115" fill="white"/>
</clipPath>
</defs>
</svg>
