<svg width="182" height="238" viewBox="0 0 182 238" fill="none" xmlns="http://www.w3.org/2000/svg">
<path d="M142.639 205.646C144.054 208.07 143.197 211.184 140.741 212.542L95.9697 237.306C92.0961 239.448 87.5543 235.872 88.7288 231.604L107.704 162.656C108.879 158.388 114.611 157.639 116.843 161.461L142.639 205.646Z" fill="#FF431A"/>
<path d="M139.544 53.0835C145.16 52.0065 148.802 46.5334 147.627 40.9367L142.28 15.4763C140.525 7.12019 129.78 4.66536 124.57 11.4302L88.0377 58.8682C68.6394 84.0574 62.3746 116.97 71.1625 147.524L92.9981 223.443L107.332 171.359C62.5393 136.096 79.9609 64.5096 135.948 53.773L139.544 53.0835Z" fill="#FF431A"/>
</svg>
