<svg width="115" height="115" viewBox="0 0 115 115" fill="none" xmlns="http://www.w3.org/2000/svg">
<path d="M57.5 105.417C54.9578 105.404 52.5225 104.392 50.7204 102.599C48.9182 100.806 47.8939 98.3755 47.8688 95.8333H67.0355C67.0471 97.1141 66.8044 98.3845 66.3215 99.5708C65.7015 100.992 64.7526 102.247 63.553 103.23C62.3533 104.213 60.9373 104.897 59.4215 105.225H59.2011C58.6412 105.341 58.0717 105.405 57.5 105.417ZM95.8334 91.0416H19.1667V81.4583L28.75 76.6666V50.3125C28.4976 43.552 30.0243 36.8437 33.1775 30.8583C34.7293 28.114 36.8452 25.7298 39.3859 23.8632C41.9265 21.9965 44.834 20.6898 47.9167 20.0291V9.58331H67.0834V20.0291C79.4411 22.9712 86.25 33.7237 86.25 50.3125V76.6666L95.8334 81.4583V91.0416ZM105.273 47.9166H95.6896C95.4692 41.7965 93.8987 35.8007 91.0906 30.3583C88.2824 24.9159 84.306 20.1616 79.4459 16.4354L86.25 9.58331C91.9811 14.0419 96.6122 19.7565 99.7865 26.2871C103.069 33.0482 104.936 40.4085 105.273 47.9166ZM19.1667 47.9166H9.58337C9.91879 40.4081 11.7875 33.0481 15.0698 26.2871C18.2441 19.7565 22.8752 14.0419 28.6063 9.58331L35.4105 16.4354C30.5498 20.1611 26.5731 24.9154 23.7649 30.3578C20.9566 35.8003 19.3865 41.7963 19.1667 47.9166Z" fill="#FF431A"/>
</svg>
