<svg width="115" height="115" viewBox="0 0 115 115" fill="none" xmlns="http://www.w3.org/2000/svg">
<path d="M57.5 33.0625C57.5 38.0187 55.5311 42.772 52.0266 46.2766C48.522 49.7811 43.7687 51.75 38.8125 51.75C33.8563 51.75 29.103 49.7811 25.5984 46.2766C22.0939 42.772 20.125 38.0187 20.125 33.0625C20.125 28.1063 22.0939 23.353 25.5984 19.8484C29.103 16.3439 33.8563 14.375 38.8125 14.375C43.7687 14.375 48.522 16.3439 52.0266 19.8484C55.5311 23.353 57.5 28.1063 57.5 33.0625ZM83.375 51.75C87.1875 51.75 90.8438 50.2355 93.5397 47.5397C96.2355 44.8438 97.75 41.1875 97.75 37.375C97.75 33.5625 96.2355 29.9062 93.5397 27.2103C90.8438 24.5145 87.1875 23 83.375 23C79.5625 23 75.9062 24.5145 73.2103 27.2103C70.5145 29.9062 69 33.5625 69 37.375C69 41.1875 70.5145 44.8438 73.2103 47.5397C75.9062 50.2355 79.5625 51.75 83.375 51.75ZM20.125 57.5C17.075 57.5 14.1499 58.7116 11.9933 60.8683C9.8366 63.0249 8.625 65.95 8.625 69C8.625 69 8.625 92 38.8125 92C69 92 69 69 69 69C69 65.95 67.7884 63.0249 65.6317 60.8683C63.4751 58.7116 60.55 57.5 57.5 57.5H20.125ZM90.4705 59.363L88.1705 64.768L87.9577 65.3718C87.2735 67.5855 87.8773 70.0465 89.5447 71.6278L94.6047 76.429L94.4323 77.6595C93.9622 80.2193 93.0393 82.6747 91.7067 84.9102C90.1704 87.602 88.1096 89.9581 85.6463 91.839L79.5685 89.815L78.9935 89.654C77.9256 89.4357 76.8169 89.5426 75.8103 89.9607C74.8038 90.3789 73.9458 91.0893 73.347 92L70.058 96.83L69.736 97.3648C69.1134 98.5253 68.8759 99.8538 69.0578 101.158C69.2397 102.463 69.8316 103.675 70.748 104.621L72.933 106.806L73.4965 107.324C75.624 109.112 78.4473 109.71 81.0807 108.888C87.86 106.772 94.0872 100.493 99.774 90.0565C105.466 79.603 107.479 70.7365 105.806 63.4455C105.488 61.9702 104.791 60.603 103.785 59.478C102.779 58.3531 101.498 57.5089 100.067 57.0285L97.1922 56.1085L96.6517 55.9705C94.1217 55.4415 91.5458 56.8215 90.4705 59.363Z" fill="#FF431A"/>
</svg>
