<svg width="112" height="112" viewBox="0 0 112 112" fill="none" xmlns="http://www.w3.org/2000/svg">
<path d="M92.9249 67.55H79.7999V74.2H92.9249C94.6749 74.2 96.2499 75.6 96.2499 77.525C96.2499 79.45 94.8499 80.85 92.9249 80.85H11.025C9.27495 80.85 7.69995 82.25 7.69995 84.175C7.69995 85.925 9.09995 87.5 11.025 87.5H93.1C98.5249 87.5 102.9 83.125 102.9 77.7C102.9 71.925 98.3499 67.55 92.9249 67.55ZM95.3749 44.975L88.8999 44.45C88.8999 44.275 92.9249 20.3 93.7999 15.4C94.3249 12.6 95.3749 4.72498 105.35 4.72498V11.375C101.325 11.375 100.8 12.95 100.45 15.925C99.3999 20.825 95.3749 44.625 95.3749 44.975Z" fill="#FF431A"/>
<path d="M95.7249 21.525H6.99992C3.67492 21.525 3.14992 24.675 3.67492 26.425L13.6499 70.875C14.1749 72.625 15.9249 74.025 17.8499 74.025H87.4999C89.2499 74.025 90.9999 72.625 91.3499 70.7L98.6999 24.675C98.8749 23.1 97.4749 21.525 95.7249 21.525ZM12.0749 36.4L10.3249 29.75C10.1499 28.875 10.6749 28.175 11.5499 28.175H23.9749C24.8499 28.175 25.7249 28.875 25.7249 29.75L26.4249 36.4C26.5999 37.275 25.8999 37.975 25.0249 37.975H13.9999C13.1249 37.975 12.2499 37.275 12.0749 36.4ZM17.6749 52.675C16.7999 52.675 15.9249 51.975 15.5749 51.1L14.3499 46.025C14.1749 45.15 14.6999 44.45 15.5749 44.45H25.5499C26.4249 44.45 27.2999 45.15 27.2999 46.025L27.8249 50.925C27.9999 51.8 27.2999 52.5 26.4249 52.5C26.5999 52.675 17.6749 52.675 17.6749 52.675ZM28.1749 67.55H21.3499C20.4749 67.55 19.5999 66.85 19.2499 65.975L18.0249 60.9C17.8499 60.025 18.3749 59.325 19.2499 59.325H27.1249C27.9999 59.325 28.8749 60.025 28.8749 60.9L29.3999 65.8C29.7499 66.675 29.0499 67.55 28.1749 67.55ZM48.2999 65.8C48.2999 66.675 47.5999 67.375 46.7249 67.375H38.1499C37.2749 67.375 36.3999 66.675 36.3999 65.8L35.8749 60.9C35.6999 60.025 36.3999 59.325 37.2749 59.325H46.7249C47.5999 59.325 48.2999 60.025 48.2999 60.9V65.8ZM48.2999 51.1C48.2999 51.975 47.5999 52.675 46.7249 52.675H36.5749C35.6999 52.675 34.8249 51.975 34.8249 51.1L34.2999 46.2C34.1249 45.325 34.8249 44.625 35.6999 44.625H46.7249C47.5999 44.625 48.2999 45.325 48.2999 46.2V51.1ZM48.2999 36.4C48.2999 37.275 47.5999 37.975 46.7249 37.975H34.9999C34.1249 37.975 33.2499 37.275 33.2499 36.4L32.3749 29.75C32.1999 28.875 32.8999 28.175 33.7749 28.175H46.5499C47.4249 28.175 48.1249 28.875 48.1249 29.75C48.2999 29.75 48.2999 36.4 48.2999 36.4ZM66.1499 65.8C65.9749 66.675 65.2749 67.375 64.3999 67.375H56.6999C55.8249 67.375 55.1249 66.675 55.1249 65.8V60.9C55.1249 60.025 55.8249 59.325 56.6999 59.325H65.2749C66.1499 59.325 66.8499 60.025 66.6749 60.9L66.1499 65.8ZM67.7249 51.1C67.5499 51.975 66.8499 52.675 65.9749 52.675H56.6999C55.8249 52.675 55.1249 51.975 55.1249 51.1V46.2C55.1249 45.325 55.8249 44.625 56.6999 44.625H66.8499C67.7249 44.625 68.4249 45.325 68.2499 46.2L67.7249 51.1ZM69.2999 36.4C69.1249 37.275 68.4249 37.975 67.5499 37.975H56.6999C55.8249 37.975 55.1249 37.275 55.1249 36.4V29.75C55.1249 28.875 55.8249 28.175 56.6999 28.175H68.5999C69.4749 28.175 70.1749 28.875 69.9999 29.75L69.2999 36.4ZM84.5249 65.8C84.3499 66.675 83.4749 67.375 82.5999 67.375H74.1999C73.3249 67.375 72.6249 66.675 72.7999 65.8L73.3249 60.9C73.4999 60.025 74.1999 59.325 75.0749 59.325H83.9999C84.8749 59.325 85.5749 60.025 85.3999 60.9L84.5249 65.8ZM86.7999 51.1C86.6249 51.975 85.7499 52.675 84.8749 52.675H75.5999C74.7249 52.675 74.0249 51.975 74.1999 51.1L74.7249 46.2C74.8999 45.325 75.5999 44.625 76.4749 44.625H86.0999C86.9749 44.625 87.6749 45.325 87.4999 46.2L86.7999 51.1ZM89.0749 36.4C88.8999 37.275 88.0249 37.975 87.1499 37.975H77.1749C76.2999 37.975 75.5999 37.275 75.7749 36.4L76.4749 29.75C76.6499 28.875 77.3499 28.175 78.2249 28.175H88.5499C89.4249 28.175 90.1249 28.875 89.9499 29.75L89.0749 36.4Z" fill="#FF431A"/>
<path d="M21.5251 108.5C26.9375 108.5 31.3251 104.112 31.3251 98.7C31.3251 93.2876 26.9375 88.9 21.5251 88.9C16.1127 88.9 11.7251 93.2876 11.7251 98.7C11.7251 104.112 16.1127 108.5 21.5251 108.5Z" fill="#FF431A"/>
<path d="M21.525 103.6C24.2312 103.6 26.425 101.406 26.425 98.7C26.425 95.9938 24.2312 93.8 21.525 93.8C18.8188 93.8 16.625 95.9938 16.625 98.7C16.625 101.406 18.8188 103.6 21.525 103.6Z" fill="white"/>
<path d="M80.675 108.5C86.0874 108.5 90.475 104.112 90.475 98.7C90.475 93.2876 86.0874 88.9 80.675 88.9C75.2626 88.9 70.875 93.2876 70.875 98.7C70.875 104.112 75.2626 108.5 80.675 108.5Z" fill="#FF431A"/>
<path d="M85.5749 98.7C85.5749 101.5 83.2999 103.6 80.6749 103.6C77.8749 103.6 75.7749 101.325 75.7749 98.7C75.7749 95.9 78.0499 93.8 80.6749 93.8C83.2999 93.8 85.5749 95.9 85.5749 98.7Z" fill="white"/>
<path d="M106.925 3.5H102.025V13.3H106.925C107.8 13.3 108.5 12.6 108.5 11.725V5.075C108.5 4.2 107.8 3.5 106.925 3.5Z" fill="#FF431A"/>
<path d="M21.5249 85.575C14.3499 85.575 8.3999 91.525 8.3999 98.7H34.6499C34.6499 91.35 28.8749 85.575 21.5249 85.575ZM80.6749 85.575C73.4999 85.575 67.5499 91.525 67.5499 98.7H93.7999C93.7999 91.35 87.8499 85.575 80.6749 85.575Z" fill="#FF431A"/>
</svg>
