<svg width="114" height="114" viewBox="0 0 114 114" fill="none" xmlns="http://www.w3.org/2000/svg">
<path d="M38 57C43.0391 57 47.8718 54.9982 51.435 51.435C54.9982 47.8718 57 43.0391 57 38C57 32.9609 54.9982 28.1282 51.435 24.565C47.8718 21.0018 43.0391 19 38 19C32.9609 19 28.1282 21.0018 24.565 24.565C21.0018 28.1282 19 32.9609 19 38C19 43.0391 21.0018 47.8718 24.565 51.435C28.1282 54.9982 32.9609 57 38 57ZM80.75 57C84.5293 57 88.1539 55.4987 90.8263 52.8263C93.4987 50.1539 95 46.5293 95 42.75C95 38.9707 93.4987 35.3461 90.8263 32.6737C88.1539 30.0013 84.5293 28.5 80.75 28.5C76.9707 28.5 73.3461 30.0013 70.6737 32.6737C68.0013 35.3461 66.5 38.9707 66.5 42.75C66.5 46.5293 68.0013 50.1539 70.6737 52.8263C73.3461 55.4987 76.9707 57 80.75 57ZM20.1875 66.5C17.353 66.5 14.6346 67.626 12.6303 69.6303C10.626 71.6346 9.5 74.353 9.5 77.1875V78.375C9.5 78.375 9.5 99.75 38 99.75C46.8112 99.75 52.896 97.7075 57.0998 94.886C57.3848 93.081 58.2492 91.4707 59.4937 90.25C58.7028 89.4769 58.0746 88.5532 57.6463 87.5335C57.218 86.5137 56.9982 85.4185 57 84.3125C57 81.985 57.9547 79.8855 59.4937 78.375C58.7028 77.6019 58.0746 76.6782 57.6463 75.6585C57.218 74.6387 56.9982 73.5435 57 72.4375C57 70.357 57.7648 68.4475 59.033 66.994C57.991 66.6658 56.9049 66.4992 55.8125 66.5H20.1875ZM65.3125 68.875C64.3677 68.875 63.4615 69.2503 62.7934 69.9184C62.1253 70.5865 61.75 71.4927 61.75 72.4375C61.75 73.3823 62.1253 74.2885 62.7934 74.9566C63.4615 75.6247 64.3677 76 65.3125 76H100.938C101.882 76 102.788 75.6247 103.457 74.9566C104.125 74.2885 104.5 73.3823 104.5 72.4375C104.5 71.4927 104.125 70.5865 103.457 69.9184C102.788 69.2503 101.882 68.875 100.938 68.875H83.125H65.3125ZM65.3125 80.75C64.3677 80.75 63.4615 81.1253 62.7934 81.7934C62.1253 82.4615 61.75 83.3677 61.75 84.3125C61.75 85.2573 62.1253 86.1635 62.7934 86.8316C63.4615 87.4997 64.3677 87.875 65.3125 87.875H100.938C101.882 87.875 102.788 87.4997 103.457 86.8316C104.125 86.1635 104.5 85.2573 104.5 84.3125C104.5 83.3677 104.125 82.4615 103.457 81.7934C102.788 81.1253 101.882 80.75 100.938 80.75H65.3125ZM65.3125 92.625C64.3677 92.625 63.4615 93.0003 62.7934 93.6684C62.1253 94.3365 61.75 95.2427 61.75 96.1875C61.75 97.1323 62.1253 98.0385 62.7934 98.7066C63.4615 99.3747 64.3677 99.75 65.3125 99.75H100.938C101.882 99.75 102.788 99.3747 103.457 98.7066C104.125 98.0385 104.5 97.1323 104.5 96.1875C104.5 95.2427 104.125 94.3365 103.457 93.6684C102.788 93.0003 101.882 92.625 100.938 92.625H65.3125Z" fill="#FF431A"/>
</svg>
