<svg width="118" height="118" viewBox="0 0 118 118" fill="none" xmlns="http://www.w3.org/2000/svg">
<path d="M34.22 71.98V35.4H11.8C5.31 35.4 0 40.71 0 47.2V82.6C0 89.09 5.31 94.4 11.8 94.4H17.7V112.1L35.4 94.4H64.9C71.39 94.4 76.7 89.09 76.7 82.6V71.862C76.3122 71.9453 75.9166 71.9868 75.52 71.9859H34.22V71.98ZM106.2 5.90002H53.1C46.61 5.90002 41.3 11.21 41.3 17.7V64.9H82.6L100.3 82.6V64.9H106.2C112.69 64.9 118 59.5959 118 53.1V17.7C118 11.21 112.69 5.90002 106.2 5.90002Z" fill="#FF431A"/>
</svg>
