<svg width="129" height="117" viewBox="0 0 129 117" fill="none" xmlns="http://www.w3.org/2000/svg">
<path d="M56.8954 65.1L61.5368 62.6676L55.5177 58.0753L56.8954 65.1Z" fill="#FF431A"/>
<path d="M114.24 58.4532C114.24 57.4178 113.679 56.5075 112.825 55.9365L112.843 55.9085L100.815 49.6104L107.738 38.734L107.715 38.7212C107.934 38.2729 108.033 37.7842 108.004 37.2947C107.976 36.8052 107.821 36.3287 107.551 35.9038C107.28 35.4793 106.902 35.1188 106.448 34.8517C105.994 34.5846 105.477 34.4183 104.939 34.3664V34.336H91.0482V21.7737H91.0198C90.962 21.2863 90.7784 20.8182 90.4839 20.4072C90.1894 19.9961 89.7923 19.6538 89.3248 19.408C88.8556 19.1628 88.3291 19.0218 87.7884 18.9964C87.2476 18.971 86.7079 19.0619 86.2133 19.2617L86.1965 19.2348L73.966 25.6394L67.1935 14.9994L67.169 15.0123C66.8502 14.6165 66.4331 14.2944 65.9515 14.072C65.4698 13.8496 64.9372 13.7333 64.3968 13.7323C63.2551 13.7323 62.2502 14.2412 61.622 15.0158L61.591 14.9994L54.7063 25.8149L42.8512 19.6069L42.837 19.6291C42.3428 19.4308 41.804 19.3408 41.2643 19.3667C40.7246 19.3925 40.1992 19.5333 39.7307 19.7777C39.2624 20.0237 38.8646 20.3665 38.5699 20.7782C38.2751 21.1898 38.0916 21.6588 38.0344 22.1469H37.9995V34.6355H24.3101V34.6601C23.7727 34.7125 23.2565 34.879 22.8033 35.1461C22.3502 35.4132 21.9728 35.7734 21.7017 36.1975C21.4321 36.6228 21.2769 37.0998 21.2486 37.5897C21.2204 38.0796 21.3199 38.5687 21.5391 39.0172L21.5095 39.0336L28.2768 49.6653L16.1585 56.0114L16.1727 56.0336C15.7364 56.3228 15.3812 56.7011 15.136 57.138C14.8909 57.5748 14.7625 58.0578 14.7615 58.548C14.7615 59.5834 15.3226 60.4949 16.1766 61.0647L16.1585 61.0927L28.1865 67.3908L21.2631 78.2672L21.2863 78.2789C21.0676 78.7271 20.9685 79.2158 20.9969 79.7053C21.0254 80.1948 21.1807 80.6713 21.4501 81.0962C21.7216 81.5207 22.0996 81.8812 22.5535 82.1483C23.0074 82.4154 23.5243 82.5817 24.0624 82.6336V82.6652H37.9518V95.2263H37.9802C38.0989 96.181 38.6884 97.0749 39.6752 97.5921C40.1445 97.8369 40.671 97.9778 41.2117 98.0032C41.7524 98.0286 42.292 97.9379 42.7867 97.7383L42.8035 97.7652L55.034 91.3606L61.8065 102.001L61.831 101.988C62.1498 102.384 62.5669 102.706 63.0486 102.928C63.5302 103.15 64.0628 103.267 64.6032 103.268C65.7449 103.268 66.7498 102.759 67.378 101.985L67.4077 102.001L74.2924 91.1851L86.1488 97.3932L86.163 97.3709C86.6572 97.5693 87.196 97.6592 87.7357 97.6334C88.2754 97.6075 88.8008 97.4667 89.2693 97.2223C89.7378 96.9765 90.1356 96.6337 90.4304 96.222C90.7252 95.8103 90.9086 95.3413 90.9656 94.8531H91.0005V82.3657H104.691V82.3411C105.229 82.2887 105.745 82.1222 106.198 81.8551C106.651 81.588 107.029 81.2278 107.3 80.8037C107.569 80.3784 107.724 79.9014 107.753 79.4115C107.781 78.9216 107.681 78.4325 107.462 77.984L107.492 77.9688L100.724 67.337L112.843 60.9909L112.829 60.9687C113.265 60.6793 113.62 60.3008 113.865 59.8638C114.11 59.4268 114.239 58.9435 114.24 58.4532ZM48.4227 76.2805C45.546 77.7875 42.9377 77.9934 40.7201 77.4528L41.031 74.2974C42.7106 74.7384 44.8817 74.7361 46.9328 73.6609C48.6962 72.7377 49.0716 71.5958 48.5698 70.8084C47.0747 68.4614 39.5501 74.5875 36.3161 69.5085C34.8868 67.2621 35.8427 64.2775 39.3476 62.4429C41.7122 61.2039 44.0883 60.8248 46.3471 61.287L45.9485 64.3559C44.0999 63.9768 42.1972 64.3512 40.6802 65.1444C39.3411 65.8464 38.9167 66.7696 39.4327 67.5804C40.7859 69.7051 48.4176 63.7943 51.6245 68.8311C53.197 71.2986 52.4192 74.1897 48.4227 76.2805ZM66.4092 66.5391L64.0175 64.7431L57.6359 68.0847L58.1532 70.8622L54.5606 72.7424L51.7032 56.2419L55.6751 54.1628L70.0019 64.6589L66.4092 66.5391ZM71.2506 64.0049L62.6579 50.5054L65.8493 48.8335L72.8321 59.8022L79.1247 56.5075L80.7359 59.0382L71.2506 64.0049ZM82.8761 57.9174L74.2834 44.4191L84.8149 38.9025L86.4248 41.4321L79.0628 45.2884L80.8662 48.1221L88.0722 44.3477L89.6821 46.8772L82.4762 50.6505L84.4344 53.7276L91.7977 49.8713L93.4089 52.4008L82.8761 57.9174Z" fill="#FF431A"/>
</svg>
