<svg width="25" height="25" viewBox="0 0 25 25" fill="none" xmlns="http://www.w3.org/2000/svg">
<circle cx="12.5" cy="12.5" r="12.5" fill="#FFDBBA"/>
<path d="M11.1691 16.8919L7.77605 14.5465C7.68716 14.4843 7.58679 14.4403 7.48077 14.4171C7.37475 14.3939 7.26519 14.3921 7.15843 14.4115C7.05168 14.431 6.94985 14.4715 6.85886 14.5307C6.76787 14.5898 6.68952 14.6664 6.62835 14.7561C6.56611 14.8449 6.52213 14.9453 6.49896 15.0513C6.47579 15.1573 6.4739 15.2669 6.49339 15.3737C6.51288 15.4804 6.55336 15.5823 6.6125 15.6732C6.67164 15.7642 6.74825 15.8426 6.83789 15.9037L10.8999 18.7115C11.278 18.9729 11.7944 18.8786 12.0558 18.5005L19.1605 8.23249C19.2227 8.1436 19.2667 8.04323 19.2899 7.93721C19.3131 7.83119 19.3149 7.72163 19.2955 7.61487C19.276 7.50812 19.2355 7.40629 19.1763 7.3153C19.1172 7.22431 19.0406 7.14596 18.9509 7.0848C18.8621 7.02255 18.7617 6.97857 18.6557 6.9554C18.5496 6.93223 18.4401 6.93034 18.3333 6.94983C18.2266 6.96932 18.1247 7.00981 18.0338 7.06894C17.9428 7.12808 17.8644 7.20469 17.8033 7.29433L11.1691 16.8919Z" fill="#FF431A"/>
</svg>
