<svg width="121" height="121" viewBox="0 0 121 121" fill="none" xmlns="http://www.w3.org/2000/svg">
<path d="M61.4736 87.4414C52.8807 87.4414 47.5019 93.5103 47.5019 100.997C47.5019 108.494 52.8807 114.562 61.4736 114.562C70.076 114.562 75.4453 108.494 75.4453 100.997C75.4453 93.5103 70.0665 87.4414 61.4736 87.4414ZM61.4736 108.04C57.0117 108.04 54.2136 104.892 54.2136 100.997C54.2136 97.1119 57.0023 93.9546 61.4736 93.9546C65.9449 93.9546 68.7336 97.1119 68.7336 100.997C68.7336 104.892 65.9355 108.04 61.4736 108.04ZM89.4738 87.6966H79.9356C79.9167 87.6966 79.9072 87.7155 79.8883 87.725H78.2057C77.8937 87.725 77.6385 87.9802 77.6385 88.2922V113.721C77.6385 114.033 77.8937 114.288 78.2057 114.288H83.7263C84.0382 114.288 84.2935 114.033 84.2935 113.721V105.639H89.4927C94.4839 105.639 98.5488 101.621 98.5488 96.6771C98.5299 91.7237 94.465 87.6966 89.4738 87.6966ZM88.916 100.345C88.8688 100.345 88.8215 100.364 88.7742 100.364H84.3785L84.2367 100.213V93.1133L84.3785 92.9715H88.7742C88.831 92.9715 88.8782 92.9809 88.9349 92.9904C90.8256 93.0849 92.3381 94.692 92.3381 96.6677C92.3381 98.6528 90.8161 100.269 88.916 100.345ZM47.7004 92.8108V88.2733C47.7004 87.9613 47.4452 87.7061 47.1332 87.7061H23.0278C22.7158 87.7061 22.4606 87.9613 22.4606 88.2733V92.8108C22.4606 93.1227 22.7158 93.378 23.0278 93.378H31.753V113.712C31.753 114.024 32.0082 114.279 32.3202 114.279H37.8408C38.1528 114.279 38.408 114.024 38.408 113.712V93.378H47.1332C47.4452 93.378 47.7004 93.1322 47.7004 92.8108Z" fill="#FF431A"/>
<path d="M60.5095 17.9231L92.4705 61.5115H72.5244V76.8066H48.6836V61.5209H28.5485L60.5095 17.9231Z" fill="#FF431A"/>
</svg>
