<svg width="104" height="89" viewBox="0 0 104 89" fill="none" xmlns="http://www.w3.org/2000/svg">
<path fill-rule="evenodd" clip-rule="evenodd" d="M56.606 17.7867C58.3991 16.7696 59.805 15.1874 60.6043 13.2872C61.4036 11.387 61.5513 9.27557 61.0243 7.28257C60.4974 5.28957 59.3254 3.52712 57.6914 2.27029C56.0573 1.01347 54.0531 0.332995 51.9916 0.335088C49.9301 0.337181 47.9273 1.02172 46.2959 2.28186C44.6644 3.542 43.496 5.30684 42.973 7.3009C42.4501 9.29496 42.6021 11.406 43.4052 13.3046C44.2084 15.2032 45.6175 16.7825 47.4127 17.796L47.366 17.88C44.3094 24.2593 40.0627 33.3967 33.506 36.8267C28.1207 39.6407 20.3927 38.2267 14.6527 37.172C14.5606 35.8668 14.1045 34.6135 13.3363 33.5544C12.568 32.4952 11.5182 31.6726 10.306 31.1799C9.0939 30.6872 7.76793 30.544 6.47856 30.7668C5.1892 30.9895 3.98806 31.5691 3.01145 32.4399C2.03483 33.3107 1.32184 34.4378 0.953354 35.6933C0.584871 36.9488 0.575656 38.2824 0.926754 39.5429C1.27785 40.8034 1.97521 41.9402 2.9397 42.8244C3.90419 43.7086 5.09719 44.3048 6.38336 44.5453L20.1407 80.0587C21.1609 82.6915 22.9534 84.9542 25.2829 86.5499C27.6123 88.1457 30.3698 88.9997 33.1934 89H70.8067C73.6303 88.9997 76.3877 88.1457 78.7172 86.5499C81.0466 84.9542 82.8391 82.6915 83.8594 80.0587L97.612 44.5453C98.8901 44.3075 100.077 43.7184 101.039 42.8441C102.001 41.9699 102.701 40.845 103.059 39.5955C103.418 38.3459 103.422 37.0212 103.07 35.7697C102.718 34.5182 102.025 33.3893 101.068 32.5096C100.111 31.6299 98.9277 31.0341 97.651 30.789C96.3743 30.5439 95.0546 30.6592 93.8397 31.1219C92.6248 31.5846 91.5628 32.3765 90.7727 33.4088C89.9825 34.4412 89.4954 35.6731 89.366 36.9667C83.4907 37.7273 75.9167 38.698 70.494 35.8653C64.068 32.5053 59.7607 23.998 56.606 17.7867ZM52.1167 28.8327C55.7007 34.6473 59.9987 40.9053 66.1727 44.1393C72.3653 47.3733 79.986 47.21 86.7994 46.6267L75.156 76.6847C74.8163 77.5623 74.2191 78.3167 73.4429 78.8489C72.6667 79.3811 71.7478 79.6661 70.8067 79.6667H33.1934C32.2523 79.6661 31.3333 79.3811 30.5571 78.8489C29.7809 78.3167 29.1838 77.5623 28.844 76.6847L17.3594 47.0373C24.0747 47.896 31.672 48.316 37.8274 45.096C44.258 41.736 48.5607 34.96 52.1167 28.8327Z" fill="#FF4319"/>
</svg>
