<svg width="30" height="30" viewBox="0 0 30 30" fill="none" xmlns="http://www.w3.org/2000/svg">
<path d="M2.10871 2.10871C0 4.21754 0 7.61196 0 14.4V15.6C0 22.3881 0 25.7825 2.10871 27.8912C4.21754 30 7.61196 30 14.4 30H15.6C22.3881 30 25.7825 30 27.8912 27.8912C30 25.7825 30 22.3881 30 15.6V14.4C30 7.6119 30 4.21748 27.8912 2.10871C25.7825 1.27724e-07 22.3881 0 15.6 0H14.4C7.6119 0 4.21748 1.27724e-07 2.10871 2.10871ZM5.0625 9.12509H8.48752C8.60002 14.8501 11.125 17.275 13.125 17.7751V9.12502H16.35V14.0625C18.325 13.85 20.4 11.6 21.1 9.12502H24.325C24.0611 10.4086 23.5353 11.6239 22.7804 12.695C22.0254 13.7662 21.0576 14.67 19.9375 15.35C21.1882 15.9709 22.2929 16.8502 23.1785 17.9298C24.0641 19.0093 24.7105 20.2646 25.075 21.6125H21.525C21.1979 20.4417 20.5322 19.3935 19.6115 18.5996C18.6909 17.8057 17.5562 17.3014 16.35 17.15V21.6125H15.9625C9.12502 21.6125 5.22502 16.925 5.0625 9.12502V9.12509Z" fill="#0077FF"/>
</svg>
