<svg width="32" height="35" viewBox="0 0 32 35" fill="none" xmlns="http://www.w3.org/2000/svg">
<rect y="5" width="30" height="30" rx="15" fill="#FE6637"/>
<mask id="path-2-inside-1_3_7583" fill="white">
<path d="M29.2109 2.46557C30.0205 2.93866 30.6168 3.72766 30.8686 4.65909C31.1205 5.59053 31.0073 6.58814 30.554 7.43257L19.0444 28.8669C18.7529 29.4097 18.3486 29.8777 17.8611 30.2365C17.3737 30.5953 16.8155 30.8358 16.2273 30.9405C15.6392 31.0452 15.036 31.0114 14.4621 30.8415C13.8881 30.6716 13.3578 30.37 12.9101 29.9587L4.18668 21.9456C3.49005 21.3058 3.06571 20.4036 3.00701 19.4374C2.94831 18.4713 3.26005 17.5205 3.87366 16.7941C4.48727 16.0676 5.35248 15.6251 6.27895 15.5639C7.20543 15.5027 8.11728 15.8278 8.8139 16.4676L14.2872 21.4951C14.3431 21.5464 14.4092 21.5841 14.4809 21.6053C14.5525 21.6265 14.6278 21.6308 14.7012 21.6178C14.7746 21.6048 14.8443 21.5749 14.9052 21.5302C14.9661 21.4855 15.0167 21.4272 15.0532 21.3596L24.4467 3.86609C24.9003 3.02157 25.6572 2.39958 26.5506 2.13693C27.4441 1.87428 28.401 1.9925 29.2109 2.46557Z"/>
</mask>
<path d="M29.2109 2.46557C30.0205 2.93866 30.6168 3.72766 30.8686 4.65909C31.1205 5.59053 31.0073 6.58814 30.554 7.43257L19.0444 28.8669C18.7529 29.4097 18.3486 29.8777 17.8611 30.2365C17.3737 30.5953 16.8155 30.8358 16.2273 30.9405C15.6392 31.0452 15.036 31.0114 14.4621 30.8415C13.8881 30.6716 13.3578 30.37 12.9101 29.9587L4.18668 21.9456C3.49005 21.3058 3.06571 20.4036 3.00701 19.4374C2.94831 18.4713 3.26005 17.5205 3.87366 16.7941C4.48727 16.0676 5.35248 15.6251 6.27895 15.5639C7.20543 15.5027 8.11728 15.8278 8.8139 16.4676L14.2872 21.4951C14.3431 21.5464 14.4092 21.5841 14.4809 21.6053C14.5525 21.6265 14.6278 21.6308 14.7012 21.6178C14.7746 21.6048 14.8443 21.5749 14.9052 21.5302C14.9661 21.4855 15.0167 21.4272 15.0532 21.3596L24.4467 3.86609C24.9003 3.02157 25.6572 2.39958 26.5506 2.13693C27.4441 1.87428 28.401 1.9925 29.2109 2.46557Z" fill="white"/>
<path d="M30.554 7.43257L31.435 7.90565L31.435 7.90558L30.554 7.43257ZM19.0444 28.8669L19.9254 29.34L19.9254 29.34L19.0444 28.8669ZM12.9101 29.9587L13.5866 29.2223L13.5866 29.2223L12.9101 29.9587ZM4.18668 21.9456L4.86316 21.2092L4.86314 21.2092L4.18668 21.9456ZM8.8139 16.4676L9.49038 15.7312L9.49036 15.7312L8.8139 16.4676ZM14.2872 21.4951L13.6107 22.2316L13.611 22.2319L14.2872 21.4951ZM15.0532 21.3596L15.9331 21.8347L15.9342 21.8326L15.0532 21.3596ZM24.4467 3.86609L23.5657 3.39284L23.5656 3.39301L24.4467 3.86609ZM28.7064 3.32896C29.282 3.66533 29.7178 4.23399 29.9033 4.92012L31.834 4.39807C31.5158 3.22133 30.759 2.21198 29.7154 1.60217L28.7064 3.32896ZM29.9033 4.92012C30.089 5.60694 30.0046 6.34176 29.6729 6.95956L31.435 7.90558C32.01 6.83451 32.152 5.57412 31.834 4.39807L29.9033 4.92012ZM29.6729 6.95949L18.1634 28.3938L19.9254 29.34L31.435 7.90565L29.6729 6.95949ZM18.1634 28.3938C17.9408 28.8083 17.634 29.162 17.2683 29.4312L18.4539 31.0418C19.0631 30.5934 19.5649 30.0112 19.9254 29.34L18.1634 28.3938ZM17.2683 29.4312C16.9028 29.7002 16.4871 29.8786 16.0521 29.956L16.4025 31.9251C17.1438 31.7931 17.8446 31.4904 18.4539 31.0418L17.2683 29.4312ZM16.0521 29.956C15.6172 30.0334 15.1712 30.0085 14.7458 29.8826L14.1783 31.8004C14.9009 32.0143 15.6612 32.057 16.4025 31.9251L16.0521 29.956ZM14.7458 29.8826C14.3204 29.7567 13.9239 29.5321 13.5866 29.2223L12.2336 30.6952C12.7917 31.2079 13.4558 31.5866 14.1783 31.8004L14.7458 29.8826ZM13.5866 29.2223L4.86316 21.2092L3.51019 22.6821L12.2336 30.6952L13.5866 29.2223ZM4.86314 21.2092C4.36207 20.7489 4.04858 20.0912 4.00517 19.3768L2.00885 19.4981C2.08285 20.7159 2.61803 21.8626 3.51021 22.6821L4.86314 21.2092ZM4.00517 19.3768C3.96175 18.6623 4.1932 17.9655 4.6376 17.4393L3.10972 16.1488C2.32691 17.0755 1.93486 18.2804 2.00885 19.4981L4.00517 19.3768ZM4.6376 17.4393C5.08079 16.9147 5.69656 16.6046 6.34488 16.5617L6.21303 14.5661C5.0084 14.6457 3.89375 15.2206 3.10972 16.1488L4.6376 17.4393ZM6.34488 16.5617C6.99285 16.5189 7.63789 16.7453 8.13744 17.2041L9.49036 15.7312C8.59666 14.9103 7.41801 14.4865 6.21303 14.5661L6.34488 16.5617ZM8.13742 17.2041L13.6107 22.2316L14.9636 20.7587L9.49038 15.7312L8.13742 17.2041ZM13.611 22.2319C13.7772 22.3844 13.977 22.499 14.1968 22.5641L14.7649 20.6465C14.8415 20.6692 14.9089 20.7084 14.9633 20.7584L13.611 22.2319ZM14.1968 22.5641C14.4168 22.6293 14.649 22.6426 14.8754 22.6025L14.5269 20.6331C14.6065 20.619 14.6882 20.6237 14.7649 20.6465L14.1968 22.5641ZM14.8754 22.6025C15.1018 22.5624 15.3139 22.4706 15.4967 22.3365L14.3137 20.7239C14.3747 20.6791 14.4474 20.6472 14.5269 20.6331L14.8754 22.6025ZM15.4967 22.3365C15.6793 22.2026 15.8275 22.0304 15.9331 21.8347L14.1733 20.8844C14.2059 20.8241 14.2529 20.7684 14.3137 20.7239L15.4967 22.3365ZM15.9342 21.8326L25.3277 4.33917L23.5656 3.39301L14.1722 20.8865L15.9342 21.8326ZM25.3276 4.33933C25.6589 3.72268 26.2042 3.28109 26.8327 3.09633L26.2686 1.17752C25.1102 1.51806 24.1418 2.32047 23.5657 3.39284L25.3276 4.33933ZM26.8327 3.09633C27.4598 2.91197 28.1325 2.99373 28.7065 3.32905L29.7153 1.60208C28.6696 0.991264 27.4284 0.836594 26.2686 1.17752L26.8327 3.09633Z" fill="#FE6637" mask="url(#path-2-inside-1_3_7583)"/>
</svg>
