<svg width="23" height="23" viewBox="0 0 23 23" fill="none" xmlns="http://www.w3.org/2000/svg">
<path d="M11.5 20.5C16.4725 20.5 20.5 16.4725 20.5 11.5C20.5 6.5275 16.4725 2.5 11.5 2.5C6.5275 2.5 2.5 6.5275 2.5 11.5C2.5 16.4725 6.5275 20.5 11.5 20.5ZM11.5 0.25C17.6875 0.25 22.75 5.3125 22.75 11.5C22.75 17.6875 17.6875 22.75 11.5 22.75C5.27875 22.75 0.25 17.6875 0.25 11.5C0.25 5.3125 5.3125 0.25 11.5 0.25ZM15.2125 6.775L11.8375 12.625H10.375V5.875H12.0625V8.85625L13.75 5.93125L15.2125 6.775Z" fill="#FE6637"/>
</svg>
