<svg width="15" height="9" viewBox="0 0 15 9" fill="none" xmlns="http://www.w3.org/2000/svg">
<path d="M5.5738 4.5C5.5738 4.8771 5.76969 5.23876 6.11839 5.50542C6.4671 5.77207 6.94003 5.92188 7.43317 5.92188C7.92631 5.92188 8.39925 5.77207 8.74795 5.50542C9.09665 5.23876 9.29255 4.8771 9.29255 4.5C9.29255 4.1229 9.09665 3.76124 8.74795 3.49458C8.39925 3.22793 7.92631 3.07812 7.43317 3.07812C6.94003 3.07812 6.4671 3.22793 6.11839 3.49458C5.76969 3.76124 5.5738 4.1229 5.5738 4.5ZM14.6416 4.17246C13.0677 1.63721 10.6887 0.361328 7.49958 0.361328C4.30876 0.361328 1.93141 1.63721 0.357585 4.17373C0.294458 4.27595 0.261719 4.38759 0.261719 4.50063C0.261719 4.61368 0.294458 4.72532 0.357585 4.82754C1.93141 7.36279 4.31042 8.63867 7.49958 8.63867C10.6904 8.63867 13.0677 7.36279 14.6416 4.82627C14.7694 4.62061 14.7694 4.38193 14.6416 4.17246ZM7.43317 6.73438C5.8195 6.73438 4.5113 5.73398 4.5113 4.5C4.5113 3.26602 5.8195 2.26562 7.43317 2.26562C9.04684 2.26562 10.355 3.26602 10.355 4.5C10.355 5.73398 9.04684 6.73438 7.43317 6.73438Z" fill="#2A5885" fill-opacity="0.6"/>
</svg>
