<svg width="20" height="20" viewBox="0 0 20 20" fill="none" xmlns="http://www.w3.org/2000/svg">
<path fill-rule="evenodd" clip-rule="evenodd" d="M12.761 0.878371C12.9324 0.821999 13.1179 0.81836 13.2915 0.867964C13.4652 0.917567 13.6184 1.01793 13.7296 1.15504L19.8165 8.65499C19.9352 8.80127 19.9997 8.98132 19.9997 9.16665C19.9997 9.35199 19.9352 9.53203 19.8165 9.67832L13.7296 17.1783C13.6183 17.3152 13.4652 17.4155 13.2916 17.465C13.118 17.5145 12.9326 17.5108 12.7613 17.4545C12.59 17.3981 12.4413 17.2919 12.336 17.1507C12.2307 17.0094 12.1741 16.8402 12.174 16.6666V13.3416C7.49671 13.435 5.2498 14.2858 4.12113 15.2108C3.0481 16.0899 2.85159 17.1241 2.64724 18.2074L2.5942 18.4866C2.55518 18.6863 2.44133 18.8656 2.27408 18.9905C2.10683 19.1154 1.89771 19.1775 1.68605 19.165C1.47439 19.1525 1.27479 19.0663 1.1248 18.9227C0.974813 18.779 0.884774 18.5878 0.871625 18.3849C0.722062 16.0949 0.946406 12.7766 2.6342 10.0008C4.27243 7.30666 7.22193 5.21658 12.174 4.99992V1.6667C12.174 1.49308 12.2305 1.32377 12.3357 1.18244C12.441 1.0411 12.5896 0.934798 12.761 0.878371Z" fill="#818C99"/>
</svg>
