<svg width="20" height="19" viewBox="0 0 20 19" fill="none" xmlns="http://www.w3.org/2000/svg">
<path d="M14.4264 0.666748C12.5209 0.666748 10.8927 2.02691 9.99818 2.96464C9.10364 2.02691 7.47909 0.666748 5.57455 0.666748C2.29182 0.666748 0 2.95826 0 6.23849C0 9.85284 2.84636 12.189 5.6 14.4486C6.9 15.5165 8.24545 16.62 9.27727 17.8436C9.45091 18.0484 9.70545 18.1667 9.97273 18.1667H10.0255C10.2936 18.1667 10.5473 18.0475 10.72 17.8436C11.7536 16.62 13.0982 15.5156 14.3991 14.4486C17.1518 12.1899 20 9.85375 20 6.23849C20 2.95826 17.7082 0.666748 14.4264 0.666748Z" fill="#818C99"/>
</svg>
