<svg width="17" height="17" viewBox="0 0 17 17" fill="none" xmlns="http://www.w3.org/2000/svg">
<path fill-rule="evenodd" clip-rule="evenodd" d="M0.111328 8.5C0.111328 6.27507 0.995181 4.14126 2.56845 2.56799C4.14172 0.994723 6.27553 0.11087 8.50046 0.11087C10.7254 0.11087 12.8592 0.994723 14.4325 2.56799C16.0057 4.14126 16.8896 6.27507 16.8896 8.5C16.8896 10.7249 16.0057 12.8587 14.4325 14.432C12.8592 16.0053 10.7254 16.8891 8.50046 16.8891C6.27553 16.8891 4.14172 16.0053 2.56845 14.432C0.995181 12.8587 0.111328 10.7249 0.111328 8.5ZM8.50046 1.3142C6.59467 1.3142 4.76693 2.07128 3.41933 3.41888C2.07173 4.76647 1.31466 6.59421 1.31466 8.5C1.31466 10.4058 2.07173 12.2335 3.41933 13.5811C4.76693 14.9287 6.59467 15.6858 8.50046 15.6858C10.4063 15.6858 12.234 14.9287 13.5816 13.5811C14.9292 12.2335 15.6863 10.4058 15.6863 8.5C15.6863 6.59421 14.9292 4.76647 13.5816 3.41888C12.234 2.07128 10.4063 1.3142 8.50046 1.3142ZM11.4822 5.51954C11.6009 5.6383 11.6676 5.79937 11.6676 5.9673C11.6676 6.13524 11.6009 6.2963 11.4822 6.41507L9.39599 8.5L11.4822 10.5849C11.6011 10.7039 11.6679 10.8652 11.6679 11.0333C11.6679 11.2015 11.6011 11.3628 11.4822 11.4817C11.3633 11.6007 11.202 11.6675 11.0338 11.6675C10.8656 11.6675 10.7043 11.6007 10.5854 11.4817L8.50046 9.39554L6.41553 11.4817C6.35664 11.5406 6.28674 11.5873 6.2098 11.6192C6.13286 11.6511 6.0504 11.6675 5.96713 11.6675C5.88385 11.6675 5.80139 11.6511 5.72446 11.6192C5.64752 11.5873 5.57761 11.5406 5.51873 11.4817C5.45984 11.4229 5.41313 11.3529 5.38127 11.276C5.3494 11.1991 5.33299 11.1166 5.33299 11.0333C5.33299 10.9501 5.3494 10.8676 5.38127 10.7907C5.41313 10.7137 5.45984 10.6438 5.51873 10.5849L7.60493 8.5L5.51873 6.41507C5.39981 6.29615 5.33299 6.13485 5.33299 5.96667C5.33299 5.79849 5.39981 5.63719 5.51873 5.51827C5.63765 5.39935 5.79895 5.33254 5.96713 5.33254C6.13531 5.33254 6.29661 5.39935 6.41553 5.51827L8.50046 7.60447L10.5854 5.51827C10.6442 5.45929 10.7141 5.4125 10.7911 5.38057C10.868 5.34864 10.9505 5.33221 11.0338 5.33221C11.1171 5.33221 11.1996 5.34864 11.2765 5.38057C11.3535 5.4125 11.4234 5.45929 11.4822 5.51827V5.51954Z" fill="black" fill-opacity="0.6"/>
</svg>
