<svg width="19" height="19" viewBox="0 0 19 19" fill="none" xmlns="http://www.w3.org/2000/svg">
<rect x="2.80273" y="2.79932" width="13.435" height="13.435" rx="3" fill="#FE6637"/>
<rect y="9.5" width="13.435" height="13.435" rx="3" transform="rotate(-45 0 9.5)" fill="#FE6637"/>
<path d="M7.84028 11.8678L5.88101 9.90849C5.82978 9.85663 5.76876 9.81546 5.70149 9.78736C5.63423 9.75925 5.56205 9.74478 5.48915 9.74478C5.41626 9.74478 5.34408 9.75925 5.27682 9.78736C5.20955 9.81546 5.14853 9.85663 5.0973 9.90849C5.04544 9.95972 5.00427 10.0207 4.97617 10.088C4.94806 10.1553 4.93359 10.2274 4.93359 10.3003C4.93359 10.3732 4.94806 10.4454 4.97617 10.5127C5.00427 10.5799 5.04544 10.641 5.0973 10.6922L7.44283 13.0377C7.66115 13.2561 8.01382 13.2561 8.23214 13.0377L14.1659 7.10952C14.2178 7.05829 14.259 6.99727 14.2871 6.93001C14.3152 6.86274 14.3297 6.79057 14.3297 6.71767C14.3297 6.64477 14.3152 6.5726 14.2871 6.50533C14.259 6.43807 14.2178 6.37705 14.1659 6.32581C14.1147 6.27396 14.0537 6.23278 13.9864 6.20468C13.9192 6.17658 13.847 6.16211 13.7741 6.16211C13.7012 6.16211 13.629 6.17658 13.5618 6.20468C13.4945 6.23278 13.4335 6.27396 13.3822 6.32581L7.84028 11.8678Z" fill="white"/>
</svg>
