<svg width="65" height="65" viewBox="0 0 65 65" fill="none" xmlns="http://www.w3.org/2000/svg">
<path d="M39.0007 15.6667H39.034M25.6673 55.6667H12.334C9.68182 55.6667 7.13828 54.6131 5.26292 52.7377C3.38755 50.8624 2.33398 48.3188 2.33398 45.6667V12.3333C2.33398 9.68117 3.38755 7.13763 5.26292 5.26227C7.13828 3.3869 9.68182 2.33334 12.334 2.33334H45.6673C48.3195 2.33334 50.863 3.3869 52.7384 5.26227C54.6137 7.13763 55.6673 9.68117 55.6673 12.3333V25.6667" stroke="#FE6637" stroke-width="4" stroke-linecap="round" stroke-linejoin="round"/>
<path d="M2.33398 39L15.6673 25.6667C18.7607 22.69 22.574 22.69 25.6673 25.6667L35.6673 35.6667M35.6673 35.6667L39.0007 32.3333C40.034 31.34 41.1473 30.6767 42.2907 30.3467M50.4007 41.0333C51.0507 40.3833 51.8224 39.8676 52.6717 39.5158C53.5211 39.164 54.4314 38.983 55.3507 38.983C56.27 38.983 57.1802 39.164 58.0296 39.5158C58.8789 39.8676 59.6506 40.3833 60.3006 41.0333C60.9507 41.6834 61.4663 42.4551 61.8181 43.3044C62.1699 44.1537 62.351 45.064 62.351 45.9833C62.351 46.9026 62.1699 47.8129 61.8181 48.6623C61.4663 49.5116 60.9507 50.2833 60.3006 50.9333L49.0006 62.3333H39.0007V52.3333L50.4007 41.0333Z" stroke="#FE6637" stroke-width="4" stroke-linecap="round" stroke-linejoin="round"/>
</svg>
