<svg width="34" height="36" viewBox="0 0 34 36" fill="none" xmlns="http://www.w3.org/2000/svg">
<g filter="url(#filter0_f_317_1877)">
<path d="M6.53906 12.769L7.47313 15.5479L9.80829 31.2947H7.94016L6.53906 12.769Z" fill="#FA7A04"/>
</g>
<rect width="34" height="34" rx="17" fill="url(#paint0_linear_317_1877)"/>
<path d="M16.7193 1.27246H17.0929V33.6923H16.3457L16.7193 1.27246Z" fill="url(#paint1_linear_317_1877)"/>
<g filter="url(#filter1_f_317_1877)">
<rect x="9.33984" y="22.5767" width="6.53845" height="8.33653" fill="#FB512C"/>
</g>
<path d="M20.2997 25.8848L13.9417 18.5368V25.8848H9.47566V10.7488H13.7217L20.0797 18.2068V10.7488H24.5457V25.8848H20.2997Z" fill="white"/>
<g filter="url(#filter2_f_317_1877)">
<path d="M9.89426 2.96143H11.1148L9.47764 6.41817C5.17883 15.495 5.33272 26.0522 9.89426 34.9998C4.89545 25.1945 4.76383 13.6169 9.53842 3.70047L9.89426 2.96143Z" fill="#FEAE37"/>
</g>
<g filter="url(#filter3_f_317_1877)">
<path d="M24.4971 31.0767H23.5382L24.8441 27.7821C28.2626 19.1578 28.138 9.53259 24.4971 0.999775C28.4879 10.3526 28.5946 20.9087 24.7938 30.3404L24.4971 31.0767Z" fill="#FE4337"/>
</g>
<g filter="url(#filter4_f_317_1877)">
<path d="M28.116 15.2047V12.1152L26.5903 29.7691H23.5391L28.116 15.2047Z" fill="#F34B27"/>
</g>
<defs>
<filter id="filter0_f_317_1877" x="2.53906" y="8.76904" width="11.2695" height="26.5254" filterUnits="userSpaceOnUse" color-interpolation-filters="sRGB">
<feFlood flood-opacity="0" result="BackgroundImageFix"/>
<feBlend mode="normal" in="SourceGraphic" in2="BackgroundImageFix" result="shape"/>
<feGaussianBlur stdDeviation="2" result="effect1_foregroundBlur_317_1877"/>
</filter>
<filter id="filter1_f_317_1877" x="7.33984" y="20.5767" width="10.5391" height="12.3364" filterUnits="userSpaceOnUse" color-interpolation-filters="sRGB">
<feFlood flood-opacity="0" result="BackgroundImageFix"/>
<feBlend mode="normal" in="SourceGraphic" in2="BackgroundImageFix" result="shape"/>
<feGaussianBlur stdDeviation="1" result="effect1_foregroundBlur_317_1877"/>
</filter>
<filter id="filter2_f_317_1877" x="5.04883" y="1.96143" width="7.06641" height="34.0386" filterUnits="userSpaceOnUse" color-interpolation-filters="sRGB">
<feFlood flood-opacity="0" result="BackgroundImageFix"/>
<feBlend mode="normal" in="SourceGraphic" in2="BackgroundImageFix" result="shape"/>
<feGaussianBlur stdDeviation="0.5" result="effect1_foregroundBlur_317_1877"/>
</filter>
<filter id="filter3_f_317_1877" x="22.5391" y="0" width="6.0293" height="32.0767" filterUnits="userSpaceOnUse" color-interpolation-filters="sRGB">
<feFlood flood-opacity="0" result="BackgroundImageFix"/>
<feBlend mode="normal" in="SourceGraphic" in2="BackgroundImageFix" result="shape"/>
<feGaussianBlur stdDeviation="0.5" result="effect1_foregroundBlur_317_1877"/>
</filter>
<filter id="filter4_f_317_1877" x="21.5391" y="10.1152" width="8.57617" height="21.6538" filterUnits="userSpaceOnUse" color-interpolation-filters="sRGB">
<feFlood flood-opacity="0" result="BackgroundImageFix"/>
<feBlend mode="normal" in="SourceGraphic" in2="BackgroundImageFix" result="shape"/>
<feGaussianBlur stdDeviation="1" result="effect1_foregroundBlur_317_1877"/>
</filter>
<linearGradient id="paint0_linear_317_1877" x1="0" y1="0" x2="34" y2="34" gradientUnits="userSpaceOnUse">
<stop stop-color="#FE7F37"/>
<stop offset="1" stop-color="#FF431A"/>
</linearGradient>
<linearGradient id="paint1_linear_317_1877" x1="16.9528" y1="1.27246" x2="16.9528" y2="33.6923" gradientUnits="userSpaceOnUse">
<stop stop-color="#FE8846"/>
<stop offset="1" stop-color="#FF4141" stop-opacity="0.97"/>
</linearGradient>
</defs>
</svg>
