<svg width="21" height="21" viewBox="0 0 21 21" fill="none" xmlns="http://www.w3.org/2000/svg">
<path d="M13.3403 11.3818C13.1558 11.498 12.978 11.6177 12.8071 11.7407C12.6362 11.8638 12.4688 12.0073 12.3047 12.1714C11.6963 11.6245 11.0127 11.2109 10.2539 10.9307C9.49512 10.6504 8.70215 10.5068 7.875 10.5C6.95898 10.5 6.10107 10.6675 5.30127 11.0024C4.50146 11.3374 3.80762 11.8022 3.21973 12.397C2.63184 12.9917 2.16699 13.689 1.8252 14.4888C1.4834 15.2886 1.3125 16.1465 1.3125 17.0625H0C0 16.2422 0.119629 15.4492 0.358887 14.6836C0.598145 13.918 0.939941 13.2139 1.38428 12.5713C1.82861 11.9287 2.36182 11.3579 2.98389 10.8589C3.60596 10.3599 4.31006 9.97021 5.09619 9.68994C4.72021 9.45068 4.38184 9.17041 4.08105 8.84912C3.78027 8.52783 3.52051 8.17236 3.30176 7.78271C3.08301 7.39307 2.91553 6.98975 2.79932 6.57275C2.68311 6.15576 2.625 5.71484 2.625 5.25C2.625 4.52539 2.76172 3.84521 3.03516 3.20947C3.30859 2.57373 3.68457 2.02002 4.16309 1.54834C4.6416 1.07666 5.19873 0.700684 5.83447 0.42041C6.47021 0.140137 7.15039 0 7.875 0C8.59961 0 9.27979 0.136719 9.91553 0.410156C10.5513 0.683594 11.105 1.05957 11.5767 1.53809C12.0483 2.0166 12.4243 2.57373 12.7046 3.20947C12.9849 3.84521 13.125 4.52539 13.125 5.25C13.125 5.70117 13.0669 6.13867 12.9507 6.5625C12.8345 6.98633 12.6704 7.39307 12.4585 7.78271C12.2466 8.17236 11.9868 8.52441 11.6792 8.83887C11.3716 9.15332 11.0298 9.43701 10.6538 9.68994C11.1597 9.86768 11.6348 10.1001 12.0791 10.3872C12.5234 10.6743 12.9438 11.0059 13.3403 11.3818ZM3.9375 5.25C3.9375 5.79004 4.04004 6.29932 4.24512 6.77783C4.4502 7.25635 4.73389 7.67334 5.09619 8.02881C5.4585 8.38428 5.87549 8.66455 6.34717 8.86963C6.81885 9.07471 7.32812 9.18066 7.875 9.1875C8.41504 9.1875 8.92432 9.08496 9.40283 8.87988C9.88135 8.6748 10.2983 8.39111 10.6538 8.02881C11.0093 7.6665 11.2896 7.24951 11.4946 6.77783C11.6997 6.30615 11.8057 5.79688 11.8125 5.25C11.8125 4.70996 11.71 4.20068 11.5049 3.72217C11.2998 3.24365 11.0161 2.82666 10.6538 2.47119C10.2915 2.11572 9.87451 1.83545 9.40283 1.63037C8.93115 1.42529 8.42188 1.31934 7.875 1.3125C7.33496 1.3125 6.82568 1.41504 6.34717 1.62012C5.86865 1.8252 5.45166 2.10889 5.09619 2.47119C4.74072 2.8335 4.46045 3.25049 4.25537 3.72217C4.05029 4.19385 3.94434 4.70312 3.9375 5.25ZM16.4062 11.8125C17.042 11.8125 17.6367 11.9321 18.1904 12.1714C18.7441 12.4106 19.2295 12.7388 19.6465 13.1558C20.0635 13.5728 20.3916 14.0581 20.6309 14.6118C20.8701 15.1655 20.9932 15.7637 21 16.4062C21 17.042 20.8804 17.6367 20.6411 18.1904C20.4019 18.7441 20.0737 19.2295 19.6567 19.6465C19.2397 20.0635 18.7544 20.3916 18.2007 20.6309C17.647 20.8701 17.0488 20.9932 16.4062 21C15.7705 21 15.1758 20.8804 14.6221 20.6411C14.0684 20.4019 13.583 20.0737 13.166 19.6567C12.749 19.2397 12.4209 18.7544 12.1816 18.2007C11.9424 17.647 11.8193 17.0488 11.8125 16.4062C11.8125 15.7705 11.9321 15.1758 12.1714 14.6221C12.4106 14.0684 12.7388 13.583 13.1558 13.166C13.5728 12.749 14.0581 12.4209 14.6118 12.1816C15.1655 11.9424 15.7637 11.8193 16.4062 11.8125ZM16.4062 19.6875C16.7275 19.6875 17.042 19.6431 17.3496 19.5542C17.6572 19.4653 17.9443 19.3286 18.2109 19.144L13.6685 14.6016C13.4907 14.8682 13.3574 15.1553 13.2686 15.4629C13.1797 15.7705 13.1318 16.085 13.125 16.4062C13.125 16.8574 13.2104 17.2812 13.3813 17.6777C13.5522 18.0742 13.7881 18.4194 14.0889 18.7134C14.3896 19.0073 14.7383 19.2432 15.1348 19.4209C15.5312 19.5986 15.9551 19.6875 16.4062 19.6875ZM19.144 18.2109C19.3218 17.9443 19.4551 17.6572 19.5439 17.3496C19.6328 17.042 19.6807 16.7275 19.6875 16.4062C19.6875 15.9551 19.6021 15.5312 19.4312 15.1348C19.2603 14.7383 19.0244 14.3931 18.7236 14.0991C18.4229 13.8052 18.0742 13.5693 17.6777 13.3916C17.2812 13.2139 16.8574 13.125 16.4062 13.125C16.085 13.125 15.7705 13.1694 15.4629 13.2583C15.1553 13.3472 14.8682 13.4839 14.6016 13.6685L19.144 18.2109Z" fill="black" fill-opacity="0.5"/>
</svg>
