<svg width="16" height="16" viewBox="0 0 16 16" fill="none" xmlns="http://www.w3.org/2000/svg">
<path d="M14.7565 4.63777L11.2582 1.12027C10.6003 0.458767 9.45312 0.451766 8.782 1.11502C8.6105 1.28652 8.47575 1.49652 8.41625 1.66539C7.84487 2.85714 7.2315 3.60352 6.444 4.05152L6.25412 4.14339C5.40712 4.56777 4.25475 5.00002 2.125 5.00002C1.89225 5.00002 1.66913 5.04552 1.45475 5.13302C1.027 5.31281 0.686999 5.65344 0.508 6.08152C0.333839 6.50926 0.333839 6.98815 0.508 7.41589C0.599 7.63377 0.72675 7.82802 0.888625 7.98552L3.71925 10.8161L0.375 15.5L5.058 12.1558L7.88163 14.9794C8.04438 15.1448 8.23687 15.276 8.45562 15.3653C8.66767 15.4545 8.89539 15.5004 9.12544 15.5004C9.35548 15.5004 9.58321 15.4545 9.79525 15.3653C10.0078 15.2791 10.2009 15.1512 10.3632 14.9892C10.5255 14.8272 10.6537 14.6344 10.7403 14.422C10.8304 14.2103 10.8759 13.9784 10.8759 13.75C10.8759 11.6185 11.3081 10.467 11.7316 9.61914C12.1656 8.75114 12.9295 8.08964 14.1414 7.50689C14.3785 7.41589 14.5876 7.28289 14.7635 7.10702C15.088 6.77758 15.2693 6.33335 15.268 5.87095C15.2667 5.40855 15.0828 4.96536 14.7565 4.63777ZM10.1645 8.83864C9.44788 10.2763 9.125 11.7874 9.11888 13.7421L2.125 6.75002C3.99662 6.75002 5.46225 6.45689 6.8465 5.80152L7.05212 5.70964C8.27625 5.09802 9.21162 4.05327 10.0166 2.35489L13.4501 5.89952C11.82 6.68089 10.7761 7.61452 10.1645 8.83864Z" fill="black" fill-opacity="0.5"/>
</svg>
