<svg width="21" height="21" viewBox="0 0 21 21" fill="none" xmlns="http://www.w3.org/2000/svg">
<path d="M15.4116 13.5769C16.6825 11.8427 17.2517 9.69252 17.0054 7.55663C16.759 5.42075 15.7153 3.45663 14.083 2.05723C12.4507 0.657835 10.3502 -0.0736443 8.2018 0.00913923C6.05335 0.0919227 4.01538 0.982864 2.49562 2.50372C0.975851 4.02457 0.0863682 6.06318 0.00512201 8.21168C-0.0761241 10.3602 0.656858 12.4601 2.05742 14.0914C3.45799 15.7227 5.42285 16.765 7.55891 17.0098C9.69497 17.2546 11.8447 16.6839 13.578 15.4117H13.5767C13.6161 15.4642 13.6581 15.5141 13.7053 15.5627L18.7585 20.6158C19.0046 20.8621 19.3384 21.0005 19.6866 21.0006C20.0347 21.0008 20.3687 20.8626 20.615 20.6165C20.8613 20.3704 20.9997 20.0365 20.9998 19.6883C20.9999 19.3402 20.8617 19.0062 20.6156 18.7599L15.5625 13.7068C15.5156 13.6593 15.4651 13.6154 15.4116 13.5756V13.5769ZM15.7502 8.53163C15.7502 9.47961 15.5635 10.4183 15.2007 11.2941C14.8379 12.1699 14.3062 12.9657 13.6359 13.6361C12.9656 14.3064 12.1698 14.8381 11.2939 15.2009C10.4181 15.5637 9.47943 15.7504 8.53145 15.7504C7.58347 15.7504 6.64478 15.5637 5.76896 15.2009C4.89314 14.8381 4.09735 14.3064 3.42702 13.6361C2.7567 12.9657 2.22497 12.1699 1.8622 11.2941C1.49942 10.4183 1.3127 9.47961 1.3127 8.53163C1.3127 6.61709 2.07325 4.78098 3.42702 3.4272C4.7808 2.07342 6.61692 1.31288 8.53145 1.31288C10.446 1.31288 12.2821 2.07342 13.6359 3.4272C14.9897 4.78098 15.7502 6.61709 15.7502 8.53163Z" fill="#818C99"/>
</svg>
