<svg width="21" height="21" viewBox="0 0 21 21" fill="none" xmlns="http://www.w3.org/2000/svg">
<path d="M9.68927 2.30388C9.96927 1.56538 11.0289 1.56538 11.3098 2.30388L13.121 7.32112C13.1842 7.48456 13.2955 7.625 13.4401 7.72388C13.5848 7.82277 13.756 7.87546 13.9313 7.875H18.3824C19.2049 7.875 19.5636 8.89875 18.917 9.40013L15.7495 12.25C15.6076 12.3591 15.5039 12.5103 15.4533 12.682C15.4027 12.8536 15.4078 13.0369 15.4678 13.2055L16.6245 18.1081C16.9063 18.8956 15.9945 19.572 15.305 19.0872L11.0026 16.3573C10.8553 16.2537 10.6796 16.1981 10.4995 16.1981C10.3194 16.1981 10.1437 16.2537 9.99639 16.3573L5.69402 19.0872C5.00539 19.572 4.09277 18.8947 4.37452 18.1081L5.53127 13.2055C5.59127 13.0369 5.59633 12.8536 5.54571 12.682C5.4951 12.5103 5.3914 12.3591 5.24952 12.25L2.08202 9.40013C1.43452 8.89875 1.79502 7.875 2.61577 7.875H7.06689C7.24215 7.87558 7.41345 7.82294 7.55813 7.72404C7.70282 7.62513 7.81406 7.48463 7.87714 7.32112L9.68839 2.30388H9.68927Z" stroke="#7A7777" stroke-width="2" stroke-linecap="round" stroke-linejoin="round"/>
</svg>
