<svg width="21" height="21" viewBox="0 0 21 21" fill="none" xmlns="http://www.w3.org/2000/svg">
<path d="M7.875 7.875H9.1875V15.75H7.875V7.875ZM11.8125 7.875H13.125V15.75H11.8125V7.875Z" fill="#7A7777"/>
<path d="M2.625 3.9375V5.25H3.9375V18.375C3.9375 18.7231 4.07578 19.0569 4.32192 19.3031C4.56806 19.5492 4.9019 19.6875 5.25 19.6875H15.75C16.0981 19.6875 16.4319 19.5492 16.6781 19.3031C16.9242 19.0569 17.0625 18.7231 17.0625 18.375V5.25H18.375V3.9375H2.625ZM5.25 18.375V5.25H15.75V18.375H5.25ZM7.875 1.3125H13.125V2.625H7.875V1.3125Z" fill="#7A7777"/>
</svg>
