<svg width="24" height="25" viewBox="0 0 24 25" fill="none" xmlns="http://www.w3.org/2000/svg">
<path d="M8.61259 24.25C7.57986 24.245 6.55844 24.0347 5.60777 23.6313C4.6571 23.2278 3.79617 22.6393 3.07509 21.9C2.35942 21.2217 1.78453 20.4089 1.38331 19.5082C0.982098 18.6075 0.762434 17.6365 0.736892 16.6508C0.711349 15.6651 0.880429 14.684 1.23446 13.7637C1.58848 12.8434 2.12051 12.002 2.80009 11.2875L12.0001 2.00001C12.4914 1.50961 13.077 1.12386 13.7215 0.866047C14.366 0.608238 15.0561 0.483721 15.7501 0.500011C16.4935 0.502543 17.2289 0.65306 17.9135 0.942785C18.5981 1.23251 19.2182 1.65564 19.7376 2.18751C20.7713 3.18281 21.3708 4.54565 21.4059 5.98023C21.441 7.41481 20.9089 8.80534 19.9251 9.85001L10.6751 19.1375C10.3788 19.4358 10.0263 19.6723 9.63787 19.8332C9.24948 19.9941 8.833 20.0763 8.41259 20.075C7.95843 20.0756 7.50876 19.9852 7.09011 19.8092C6.67146 19.6331 6.29233 19.375 5.97509 19.05C5.341 18.4361 4.9748 17.5967 4.95608 16.7143C4.93735 15.8319 5.26761 14.9778 5.87509 14.3375L14.4126 5.76251C14.6556 5.60114 14.9473 5.52982 15.2373 5.56091C15.5274 5.59199 15.7974 5.72352 16.0006 5.93271C16.2039 6.14191 16.3276 6.4156 16.3503 6.7064C16.3731 6.99719 16.2934 7.28678 16.1251 7.52501L7.58759 16.1C7.44522 16.2715 7.37593 16.4921 7.39463 16.7142C7.41334 16.9363 7.51854 17.1422 7.68759 17.2875C7.86348 17.4646 8.10059 17.5675 8.35009 17.575C8.44251 17.5763 8.53427 17.5593 8.62009 17.525C8.70591 17.4907 8.78408 17.4397 8.85009 17.375L18.0876 8.08751C18.6061 7.51149 18.8771 6.75455 18.842 5.98032C18.8069 5.2061 18.4686 4.47678 17.9001 3.95001C17.3721 3.40181 16.654 3.07684 15.8937 3.04196C15.1334 3.00708 14.3886 3.26495 13.8126 3.76251L4.57509 13C4.12589 13.4825 3.77654 14.049 3.54712 14.667C3.3177 15.285 3.21276 15.9423 3.23831 16.601C3.26387 17.2597 3.41943 17.9068 3.69604 18.5052C3.97266 19.1035 4.36486 19.6413 4.85009 20.0875C5.33668 20.5919 5.91892 20.9943 6.56279 21.2712C7.20666 21.5481 7.89924 21.6938 8.60009 21.7C9.20436 21.7049 9.80365 21.5904 10.3635 21.363C10.9234 21.1356 11.4329 20.7999 11.8626 20.375L21.1001 11.0875C21.2158 10.971 21.3534 10.8784 21.5049 10.815C21.6564 10.7516 21.8189 10.7186 21.9832 10.7181C22.1474 10.7175 22.3102 10.7493 22.4621 10.8116C22.6141 10.8739 22.7523 10.9655 22.8688 11.0813C22.9854 11.197 23.078 11.3345 23.1414 11.4861C23.2048 11.6376 23.2377 11.8001 23.2383 11.9643C23.2389 12.1286 23.2071 12.2913 23.1448 12.4433C23.0825 12.5953 22.9908 12.7335 22.8751 12.85L13.6376 22.1375C12.9817 22.805 12.1997 23.3354 11.3371 23.6981C10.4745 24.0607 9.54836 24.2484 8.61259 24.25Z" fill="#A8ADB8"/>
</svg>
