<svg width="22" height="20" viewBox="0 0 22 20" fill="none" xmlns="http://www.w3.org/2000/svg">
<path d="M4.64 1.5V3.41H1.25V5.28C1.25 8.41 2.18 10.155 4.415 11.24C5.2459 11.6867 6.0128 12.2434 6.695 12.895C7.24332 13.4799 7.91204 13.9388 8.655 14.24L9.5 14.5V16.765H8.21C6.65 16.765 6.125 17.12 6.125 18.175V18.885H15.875V18.25C15.875 17.215 15.235 16.75 13.755 16.75H12.5V14.5L13.36 14.245C14.104 13.9434 14.773 13.4827 15.32 12.895C16.0317 12.2167 16.8283 11.6335 17.69 11.16C18.3591 10.838 18.9566 10.3849 19.447 9.82741C19.9375 9.26996 20.3109 8.61961 20.545 7.915C20.7042 7.04259 20.7779 6.15672 20.765 5.27V3.415H17.36V1.5H4.64ZM11 4.685L12.025 6.805H14.495L12.56 8.59L13.115 10.87L11 9.735L8.885 10.885L9.44 8.605L7.5 6.82H9.975L11 4.685ZM3.03 5.32H4.61V9.26C4.445 9.36 3.93 8.76 3.555 8.075C3.3421 7.55057 3.2057 6.99825 3.15 6.435L3.03 5.32ZM17.39 5.32H19.11L18.965 6.42C18.9309 7.33569 18.5627 8.20721 17.93 8.87C17.7811 9.07286 17.5922 9.24304 17.375 9.37L17.39 5.32Z" stroke="black" stroke-opacity="0.5" stroke-width="1.5" stroke-linecap="round" stroke-linejoin="round"/>
</svg>
