<svg width="26" height="27" viewBox="0 0 26 27" fill="none" xmlns="http://www.w3.org/2000/svg">
<path d="M15.25 11.5H12.75V9H15.25V11.5ZM15.25 6.5H12.75V0.25H15.25V6.5ZM7.75 21.5C6.375 21.5 5.2625 22.625 5.2625 24C5.2625 25.375 6.375 26.5 7.75 26.5C9.125 26.5 10.25 25.375 10.25 24C10.25 22.625 9.125 21.5 7.75 21.5ZM20.25 21.5C18.875 21.5 17.7625 22.625 17.7625 24C17.7625 25.375 18.875 26.5 20.25 26.5C21.625 26.5 22.75 25.375 22.75 24C22.75 22.625 21.625 21.5 20.25 21.5ZM9.125 15.25H18.4375C19.375 15.25 20.2 14.7375 20.625 13.9625L25.25 5.2L23.0625 4L18.4375 12.75H9.6625L4.3375 1.5H0.25V4H2.75L7.25 13.4875L5.5625 16.5375C4.65 18.2125 5.85 20.25 7.75 20.25H22.75V17.75H7.75L9.125 15.25Z" fill="#FE6637"/>
</svg>
