<svg width="20" height="20" viewBox="0 0 20 20" fill="none" xmlns="http://www.w3.org/2000/svg">
<path d="M10.75 1.94C11.75 1.22 12.91 0.859998 14.22 0.859998C14.94 0.859998 15.73 1.05 16.59 1.45C17.45 1.84 18.13 2.3 18.63 2.83C19.66 4.11 20.09 5.6 19.94 7.3C19.78 9 19.22 10.33 18.25 11.27L10.66 18.86C10.47 19.05 10.23 19.14 9.95005 19.14C9.67005 19.14 9.44005 19.05 9.25005 18.86C9.15769 18.7689 9.08515 18.6597 9.03696 18.5392C8.98878 18.4188 8.966 18.2897 8.97005 18.16C8.97005 17.88 9.06005 17.64 9.25005 17.45L13.84 12.86C14.09 12.64 14.09 12.41 13.84 12.16C13.59 11.91 13.36 11.91 13.14 12.16L8.55005 16.75C8.45749 16.8432 8.34661 16.9162 8.2244 16.9644C8.1022 17.0126 7.97132 17.035 7.84005 17.03C7.56005 17.03 7.33005 16.94 7.14005 16.75C7.04769 16.6589 6.97515 16.5497 6.92696 16.4292C6.87878 16.3088 6.856 16.1797 6.86005 16.05C6.86005 15.77 6.95005 15.53 7.14005 15.34L11.73 10.75C12 10.5 12 10.25 11.73 10C11.5 9.75 11.28 9.75 11.03 10L6.44005 14.64C6.34645 14.7318 6.23538 14.8039 6.11343 14.852C5.99147 14.9001 5.8611 14.9232 5.73005 14.92C5.45005 14.92 5.21005 14.83 5.00005 14.64C4.80005 14.45 4.70005 14.22 4.70005 13.94C4.70005 13.66 4.81005 13.41 5.03005 13.19L9.63005 8.59C9.88005 8.34 9.88005 8.11 9.63005 7.89C9.38005 7.67 9.14005 7.67 8.92005 7.89L4.28005 12.5C4.06005 12.7 3.83005 12.81 3.58005 12.81C3.30005 12.81 3.06005 12.71 2.88005 12.5C2.69005 12.3 2.59005 12.06 2.59005 11.78C2.59005 11.5 2.69005 11.27 2.88005 11.08C5.94005 8 7.83005 6.14 8.55005 5.45L12.11 8.97C12.5 9.34 12.95 9.53 13.5 9.53C14.2 9.53 14.75 9.25 15.16 8.69C15.44 8.28 15.54 7.83 15.46 7.33C15.38 6.83 15.17 6.41 14.83 6.06L10.75 1.94ZM12.81 8.27L8.55005 4L1.47005 11.08C0.630048 10.23 0.150048 8.93 0.0400477 7.16C-0.0699523 5.4 0.410048 3.87 1.47005 2.59C2.66005 1.41 4.08005 0.809998 5.73005 0.809998C7.39005 0.809998 8.80005 1.41 9.95005 2.59L14.22 6.86C14.41 7.05 14.5 7.28 14.5 7.56C14.5 7.84 14.41 8.08 14.22 8.27C14.03 8.45 13.8 8.55 13.5 8.55C13.23 8.55 13 8.45 12.81 8.27Z" fill="black" fill-opacity="0.5"/>
</svg>
