<svg width="31" height="33" viewBox="0 0 31 33" fill="none" xmlns="http://www.w3.org/2000/svg">
<rect y="3" width="30" height="30" rx="15" fill="#FE6637"/>
<mask id="path-2-inside-1_0_1" fill="white">
<path d="M29.2109 0.465565C30.0205 0.938655 30.6168 1.72766 30.8686 2.65909C31.1205 3.59053 31.0073 4.58814 30.554 5.43257L19.0444 26.8669C18.7529 27.4097 18.3486 27.8777 17.8611 28.2365C17.3737 28.5953 16.8155 28.8358 16.2273 28.9405C15.6392 29.0452 15.036 29.0114 14.4621 28.8415C13.8881 28.6716 13.3578 28.37 12.9101 27.9587L4.18668 19.9456C3.49005 19.3058 3.06571 18.4036 3.00701 17.4374C2.94831 16.4713 3.26005 15.5205 3.87366 14.7941C4.48727 14.0676 5.35248 13.6251 6.27895 13.5639C7.20543 13.5027 8.11728 13.8278 8.8139 14.4676L14.2872 19.4951C14.3431 19.5464 14.4092 19.5841 14.4809 19.6053C14.5525 19.6265 14.6278 19.6308 14.7012 19.6178C14.7746 19.6048 14.8443 19.5749 14.9052 19.5302C14.9661 19.4855 15.0167 19.4272 15.0532 19.3596L24.4467 1.86609C24.9003 1.02157 25.6572 0.399577 26.5506 0.13693C27.4441 -0.125718 28.401 -0.00750444 29.2109 0.465565Z"/>
</mask>
<path d="M29.2109 0.465565C30.0205 0.938655 30.6168 1.72766 30.8686 2.65909C31.1205 3.59053 31.0073 4.58814 30.554 5.43257L19.0444 26.8669C18.7529 27.4097 18.3486 27.8777 17.8611 28.2365C17.3737 28.5953 16.8155 28.8358 16.2273 28.9405C15.6392 29.0452 15.036 29.0114 14.4621 28.8415C13.8881 28.6716 13.3578 28.37 12.9101 27.9587L4.18668 19.9456C3.49005 19.3058 3.06571 18.4036 3.00701 17.4374C2.94831 16.4713 3.26005 15.5205 3.87366 14.7941C4.48727 14.0676 5.35248 13.6251 6.27895 13.5639C7.20543 13.5027 8.11728 13.8278 8.8139 14.4676L14.2872 19.4951C14.3431 19.5464 14.4092 19.5841 14.4809 19.6053C14.5525 19.6265 14.6278 19.6308 14.7012 19.6178C14.7746 19.6048 14.8443 19.5749 14.9052 19.5302C14.9661 19.4855 15.0167 19.4272 15.0532 19.3596L24.4467 1.86609C24.9003 1.02157 25.6572 0.399577 26.5506 0.13693C27.4441 -0.125718 28.401 -0.00750444 29.2109 0.465565Z" fill="white"/>
<path d="M30.554 5.43257L31.435 5.90565L31.435 5.90558L30.554 5.43257ZM19.0444 26.8669L19.9254 27.34L19.9254 27.34L19.0444 26.8669ZM12.9101 27.9587L13.5866 27.2223L13.5866 27.2223L12.9101 27.9587ZM4.18668 19.9456L4.86316 19.2092L4.86314 19.2092L4.18668 19.9456ZM8.8139 14.4676L9.49038 13.7312L9.49036 13.7312L8.8139 14.4676ZM14.2872 19.4951L13.6107 20.2316L13.611 20.2319L14.2872 19.4951ZM15.0532 19.3596L15.9331 19.8347L15.9342 19.8326L15.0532 19.3596ZM24.4467 1.86609L23.5657 1.39284L23.5656 1.39301L24.4467 1.86609ZM28.7064 1.32896C29.282 1.66533 29.7178 2.23399 29.9033 2.92012L31.834 2.39807C31.5158 1.22133 30.759 0.211982 29.7154 -0.397831L28.7064 1.32896ZM29.9033 2.92012C30.089 3.60694 30.0046 4.34176 29.6729 4.95956L31.435 5.90558C32.01 4.83451 32.152 3.57412 31.834 2.39807L29.9033 2.92012ZM29.6729 4.95949L18.1634 26.3938L19.9254 27.34L31.435 5.90565L29.6729 4.95949ZM18.1634 26.3938C17.9408 26.8083 17.634 27.162 17.2683 27.4312L18.4539 29.0418C19.0631 28.5934 19.5649 28.0112 19.9254 27.34L18.1634 26.3938ZM17.2683 27.4312C16.9028 27.7002 16.4871 27.8786 16.0521 27.956L16.4025 29.9251C17.1438 29.7931 17.8446 29.4904 18.4539 29.0418L17.2683 27.4312ZM16.0521 27.956C15.6172 28.0334 15.1712 28.0085 14.7458 27.8826L14.1783 29.8004C14.9009 30.0143 15.6612 30.057 16.4025 29.9251L16.0521 27.956ZM14.7458 27.8826C14.3204 27.7567 13.9239 27.5321 13.5866 27.2223L12.2336 28.6952C12.7917 29.2079 13.4558 29.5866 14.1783 29.8004L14.7458 27.8826ZM13.5866 27.2223L4.86316 19.2092L3.51019 20.6821L12.2336 28.6952L13.5866 27.2223ZM4.86314 19.2092C4.36207 18.7489 4.04858 18.0912 4.00517 17.3768L2.00885 17.4981C2.08285 18.7159 2.61803 19.8626 3.51021 20.6821L4.86314 19.2092ZM4.00517 17.3768C3.96175 16.6623 4.1932 15.9655 4.6376 15.4393L3.10972 14.1488C2.32691 15.0755 1.93486 16.2804 2.00885 17.4981L4.00517 17.3768ZM4.6376 15.4393C5.08079 14.9147 5.69656 14.6046 6.34488 14.5617L6.21303 12.5661C5.0084 12.6457 3.89375 13.2206 3.10972 14.1488L4.6376 15.4393ZM6.34488 14.5617C6.99285 14.5189 7.63789 14.7453 8.13744 15.2041L9.49036 13.7312C8.59666 12.9103 7.41801 12.4865 6.21303 12.5661L6.34488 14.5617ZM8.13742 15.2041L13.6107 20.2316L14.9636 18.7587L9.49038 13.7312L8.13742 15.2041ZM13.611 20.2319C13.7772 20.3844 13.977 20.499 14.1968 20.5641L14.7649 18.6465C14.8415 18.6692 14.9089 18.7084 14.9633 18.7584L13.611 20.2319ZM14.1968 20.5641C14.4168 20.6293 14.649 20.6426 14.8754 20.6025L14.5269 18.6331C14.6065 18.619 14.6882 18.6237 14.7649 18.6465L14.1968 20.5641ZM14.8754 20.6025C15.1018 20.5624 15.3139 20.4706 15.4967 20.3365L14.3137 18.7239C14.3747 18.6791 14.4474 18.6472 14.5269 18.6331L14.8754 20.6025ZM15.4967 20.3365C15.6793 20.2026 15.8275 20.0304 15.9331 19.8347L14.1733 18.8844C14.2059 18.8241 14.2529 18.7684 14.3137 18.7239L15.4967 20.3365ZM15.9342 19.8326L25.3277 2.33917L23.5656 1.39301L14.1722 18.8865L15.9342 19.8326ZM25.3276 2.33933C25.6589 1.72268 26.2042 1.28109 26.8327 1.09633L26.2686 -0.822475C25.1102 -0.481939 24.1418 0.320469 23.5657 1.39284L25.3276 2.33933ZM26.8327 1.09633C27.4598 0.91197 28.1325 0.993727 28.7065 1.32905L29.7153 -0.397917C28.6696 -1.00874 27.4284 -1.16341 26.2686 -0.822475L26.8327 1.09633Z" fill="#FE6637" mask="url(#path-2-inside-1_0_1)"/>
</svg>
