<svg width="161" height="122" viewBox="0 0 161 122" fill="none" xmlns="http://www.w3.org/2000/svg">
<line y1="-4" x2="20.9732" y2="-4" transform="matrix(-0.764882 -0.644171 -0.644171 0.764882 86.2539 83.3488)" stroke="#FFDBBA" stroke-width="8"/>
<line y1="-4" x2="17.152" y2="-4" transform="matrix(-0.764882 -0.644171 -0.644171 0.764882 149.775 99.7294)" stroke="#FFDBBA" stroke-width="8"/>
<line y1="-4" x2="19.0578" y2="-4" transform="matrix(-0.764882 -0.644171 -0.644171 0.764882 129.447 105.447)" stroke="#FFDBBA" stroke-width="8"/>
<line y1="-4" x2="20.9635" y2="-4" transform="matrix(-0.764882 -0.644171 -0.644171 0.764882 161.211 122)" stroke="#FFDBBA" stroke-width="8"/>
<line y1="-4" x2="25.4104" y2="-4" transform="matrix(-0.764882 -0.644171 -0.644171 0.764882 124.365 57.4841)" stroke="#FFDBBA" stroke-width="8"/>
<line y1="-4" x2="20.3283" y2="-4" transform="matrix(-0.764882 -0.644171 -0.644171 0.764882 60.207 54.2104)" stroke="#FFDBBA" stroke-width="8"/>
<line y1="-4" x2="20.9635" y2="-4" transform="matrix(-0.764882 -0.644171 -0.644171 0.764882 56.2031 34.1143)" stroke="#FFDBBA" stroke-width="8"/>
<line y1="-4" x2="22.8693" y2="-4" transform="matrix(-0.764882 -0.644171 -0.644171 0.764882 74.8145 20.3157)" stroke="#FFDBBA" stroke-width="8"/>
<line y1="-4" x2="22.2341" y2="-4" transform="matrix(-0.764882 -0.644171 -0.644171 0.764882 17.0078 33.8392)" stroke="#FFDBBA" stroke-width="8"/>
<line y1="-4" x2="15.8815" y2="-4" transform="matrix(-0.764882 -0.644171 -0.644171 0.764882 86.1484 50.53)" stroke="#FFDBBA" stroke-width="8"/>
<line y1="-4" x2="15.8815" y2="-4" transform="matrix(-0.764882 -0.644171 -0.644171 0.764882 24.6309 13.2303)" stroke="#FFDBBA" stroke-width="8"/>
<line y1="-4" x2="25.4104" y2="-4" transform="matrix(-0.764882 -0.644171 -0.644171 0.764882 113.283 76.2264)" stroke="#FFDBBA" stroke-width="8"/>
</svg>
