<svg width="28" height="28" viewBox="0 0 28 28" fill="none" xmlns="http://www.w3.org/2000/svg">
<path d="M13.9885 2.33337C7.5485 2.33337 2.3335 7.56004 2.3335 14C2.3335 20.44 7.5485 25.6667 13.9885 25.6667C20.4402 25.6667 25.6668 20.44 25.6668 14C25.6668 7.56004 20.4402 2.33337 13.9885 2.33337ZM14.0002 23.3334C8.8435 23.3334 4.66683 19.1567 4.66683 14C4.66683 8.84337 8.8435 4.66671 14.0002 4.66671C19.1568 4.66671 23.3335 8.84337 23.3335 14C23.3335 19.1567 19.1568 23.3334 14.0002 23.3334Z" fill="#FE6637"/>
<path d="M14.5835 8.16663H12.8335V15.1666L18.9585 18.8416L19.8335 17.4066L14.5835 14.2916V8.16663Z" fill="#FE6637"/>
</svg>
