<svg width="22" height="19" viewBox="0 0 22 19" fill="none" xmlns="http://www.w3.org/2000/svg">
<path fill-rule="evenodd" clip-rule="evenodd" d="M11.9868 3.73999C12.371 3.52204 12.6723 3.18301 12.8436 2.77582C13.0148 2.36863 13.0465 1.91618 12.9336 1.48911C12.8206 1.06204 12.5695 0.684374 12.2193 0.415054C11.8692 0.145734 11.4397 -8.12321e-05 10.998 0.000367242C10.5562 0.000815717 10.1271 0.147503 9.77745 0.417533C9.42784 0.687563 9.17747 1.06574 9.06542 1.49304C8.95336 1.92034 8.98593 2.37272 9.15803 2.77956C9.33013 3.1864 9.63209 3.52482 10.0168 3.74199L10.0068 3.75999C9.35177 5.12699 8.44177 7.08499 7.03677 7.81999C5.88277 8.42299 4.22677 8.11999 2.99677 7.89399C2.97704 7.6143 2.87931 7.34574 2.71468 7.11878C2.55004 6.89182 2.32509 6.71555 2.06535 6.60997C1.8056 6.50438 1.52146 6.47371 1.24517 6.52144C0.968878 6.56916 0.711493 6.69337 0.502218 6.87997C0.292943 7.06657 0.140158 7.30809 0.0611975 7.57712C-0.0177631 7.84616 -0.0197377 8.13194 0.0554977 8.40204C0.130733 8.67214 0.280166 8.91575 0.486842 9.10522C0.693519 9.2947 0.949163 9.42245 1.22477 9.47399L4.17277 17.084C4.39139 17.6482 4.7755 18.133 5.27466 18.475C5.77383 18.8169 6.36472 18.9999 6.96977 19H15.0298C15.6348 18.9999 16.2257 18.8169 16.7249 18.475C17.224 18.133 17.6081 17.6482 17.8268 17.084L20.7738 9.47399C21.0476 9.42302 21.3019 9.29679 21.5081 9.10945C21.7142 8.92211 21.8642 8.68106 21.9411 8.4133C22.0179 8.14555 22.0187 7.86168 21.9434 7.59349C21.868 7.32531 21.7195 7.08341 21.5143 6.8949C21.3092 6.7064 21.0557 6.57873 20.7821 6.52621C20.5085 6.47369 20.2257 6.49839 19.9654 6.59755C19.7051 6.6967 19.4775 6.86639 19.3082 7.0876C19.1389 7.30881 19.0345 7.5728 19.0068 7.84999C17.7478 8.01299 16.1248 8.22099 14.9628 7.61399C13.5858 6.89399 12.6628 5.07099 11.9868 3.73999ZM11.0248 6.10699C11.7928 7.35299 12.7138 8.69399 14.0368 9.38699C15.3638 10.08 16.9968 10.045 18.4568 9.91999L15.9618 16.361C15.889 16.5491 15.761 16.7107 15.5947 16.8248C15.4284 16.9388 15.2314 16.9999 15.0298 17H6.96977C6.7681 16.9999 6.57119 16.9388 6.40486 16.8248C6.23853 16.7107 6.11057 16.5491 6.03777 16.361L3.57677 10.008C5.01577 10.192 6.64377 10.282 7.96277 9.59199C9.34077 8.87199 10.2628 7.41999 11.0248 6.10699Z" fill="black"/>
</svg>
