<svg width="18" height="24" viewBox="0 0 18 24" fill="none" xmlns="http://www.w3.org/2000/svg">
<path d="M0 3C0 2.20435 0.31607 1.44129 0.87868 0.87868C1.44129 0.316071 2.20435 0 3 0L15 0C15.7956 0 16.5587 0.316071 17.1213 0.87868C17.6839 1.44129 18 2.20435 18 3V23.25C17.9999 23.3857 17.9631 23.5188 17.8933 23.6351C17.8236 23.7515 17.7236 23.8468 17.604 23.9108C17.4844 23.9748 17.3497 24.0052 17.2142 23.9988C17.0787 23.9923 16.9474 23.9492 16.8345 23.874L9 19.6515L1.1655 23.874C1.05256 23.9492 0.921345 23.9923 0.785837 23.9988C0.650329 24.0052 0.5156 23.9748 0.395999 23.9108C0.276399 23.8468 0.176406 23.7515 0.106671 23.6351C0.036936 23.5188 7.00806e-05 23.3857 0 23.25V3ZM3 1.5C2.60218 1.5 2.22064 1.65804 1.93934 1.93934C1.65804 2.22064 1.5 2.60218 1.5 3V21.849L8.5845 18.126C8.70759 18.0441 8.85215 18.0004 9 18.0004C9.14785 18.0004 9.29241 18.0441 9.4155 18.126L16.5 21.849V3C16.5 2.60218 16.342 2.22064 16.0607 1.93934C15.7794 1.65804 15.3978 1.5 15 1.5H3Z" fill="black" fill-opacity="0.5"/>
</svg>
