<svg width="40" height="29" viewBox="0 0 40 29" fill="none" xmlns="http://www.w3.org/2000/svg">
<path d="M34 7.73484H30V13.5344H24V17.4008H30V23.2004H34V17.4008H40V13.5344H34V7.73484ZM4 7.73484C3.97537 8.75683 4.16546 9.77303 4.55878 10.722C4.9521 11.6709 5.54047 12.5329 6.2883 13.2558C7.03614 13.9786 7.92789 14.5473 8.90963 14.9275C9.89137 15.3077 10.9427 15.4914 12 15.4676C13.0573 15.4914 14.1086 15.3077 15.0904 14.9275C16.0721 14.5473 16.9639 13.9786 17.7117 13.2558C18.4595 12.5329 19.0479 11.6709 19.4412 10.722C19.8345 9.77303 20.0246 8.75683 20 7.73484C20.0246 6.71284 19.8345 5.69664 19.4412 4.74769C19.0479 3.79874 18.4595 2.93678 17.7117 2.21392C16.9639 1.49107 16.0721 0.922349 15.0904 0.542168C14.1086 0.161987 13.0573 -0.0217575 12 0.00205031C10.9427 -0.0217575 9.89137 0.161987 8.90963 0.542168C7.92789 0.922349 7.03614 1.49107 6.2883 2.21392C5.54047 2.93678 4.9521 3.79874 4.55878 4.74769C4.16546 5.69664 3.97537 6.71284 4 7.73484ZM16 7.73484C16.0257 8.24916 15.9399 8.76301 15.748 9.24336C15.556 9.72371 15.2623 10.1599 14.8856 10.5241C14.5089 10.8882 14.0576 11.1721 13.5606 11.3576C13.0637 11.5431 12.5321 11.6261 12 11.6012C11.4679 11.6261 10.9363 11.5431 10.4394 11.3576C9.9424 11.1721 9.49109 10.8882 9.1144 10.5241C8.73771 10.1599 8.44397 9.72371 8.25205 9.24336C8.06013 8.76301 7.97428 8.24916 8 7.73484C7.97428 7.22051 8.06013 6.70667 8.25205 6.22632C8.44397 5.74597 8.73771 5.30973 9.1144 4.94562C9.49109 4.58151 9.9424 4.29758 10.4394 4.11207C10.9363 3.92657 11.4679 3.84358 12 3.86844C12.5321 3.84358 13.0637 3.92657 13.5606 4.11207C14.0576 4.29758 14.5089 4.58151 14.8856 4.94562C15.2623 5.30973 15.556 5.74597 15.748 6.22632C15.9399 6.70667 16.0257 7.22051 16 7.73484ZM4 27.0668C4 25.5287 4.63214 24.0535 5.75736 22.9659C6.88258 21.8782 8.4087 21.2672 10 21.2672H14C15.5913 21.2672 17.1174 21.8782 18.2426 22.9659C19.3679 24.0535 20 25.5287 20 27.0668V29H24V27.0668C24 25.7974 23.7413 24.5405 23.2388 23.3678C22.7362 22.1951 21.9997 21.1295 21.0711 20.2319C20.1425 19.3344 19.0401 18.6224 17.8268 18.1366C16.6136 17.6508 15.3132 17.4008 14 17.4008H10C7.34784 17.4008 4.8043 18.4192 2.92893 20.2319C1.05357 22.0446 0 24.5032 0 27.0668V29H4V27.0668Z" fill="#818C99"/>
</svg>
