<svg width="20" height="19" viewBox="0 0 20 19" fill="none" xmlns="http://www.w3.org/2000/svg">
<path d="M14.4264 0.666656C12.5209 0.666656 10.8927 2.02682 9.99818 2.96454C9.10364 2.02682 7.47909 0.666656 5.57455 0.666656C2.29182 0.666656 0 2.95817 0 6.2384C0 9.85275 2.84636 12.1889 5.6 14.4485C6.9 15.5164 8.24545 16.6199 9.27727 17.8435C9.45091 18.0483 9.70545 18.1667 9.97273 18.1667H10.0255C10.2936 18.1667 10.5473 18.0474 10.72 17.8435C11.7536 16.6199 13.0982 15.5155 14.3991 14.4485C17.1518 12.1898 20 9.85366 20 6.2384C20 2.95817 17.7082 0.666656 14.4264 0.666656Z" fill="#FE6637"/>
</svg>
