<svg width="20" height="20" viewBox="0 0 20 20" fill="none" xmlns="http://www.w3.org/2000/svg">
<path d="M10 0C7.35831 0.0336892 4.8343 1.09807 2.96618 2.96618C1.09807 4.8343 0.0336892 7.35831 0 10C0.0123489 11.5389 0.379721 13.0542 1.07351 14.4279C1.7673 15.8016 2.76879 16.9967 4 17.92V18H4.1C5.79318 19.2975 7.86685 20.0006 10 20.0006C12.1332 20.0006 14.2068 19.2975 15.9 18H16V17.92C17.2312 16.9967 18.2327 15.8016 18.9265 14.4279C19.6203 13.0542 19.9877 11.5389 20 10C19.9663 7.35831 18.9019 4.8343 17.0338 2.96618C15.1657 1.09807 12.6417 0.0336892 10 0ZM6.07 16.93C6.21599 16.2614 6.58615 15.6629 7.11908 15.2336C7.65202 14.8044 8.31569 14.5702 9 14.57H11C11.6843 14.5702 12.348 14.8044 12.8809 15.2336C13.4138 15.6629 13.784 16.2614 13.93 16.93C12.7389 17.6308 11.382 18.0004 10 18.0004C8.618 18.0004 7.26113 17.6308 6.07 16.93ZM15.61 15.64C15.2296 14.7309 14.5891 13.9546 13.7689 13.4084C12.9487 12.8622 11.9854 12.5705 11 12.57H9C8.01458 12.5705 7.05127 12.8622 6.23108 13.4084C5.41088 13.9546 4.77037 14.7309 4.39 15.64C3.64066 14.903 3.0439 14.0255 2.63381 13.0578C2.22373 12.0901 2.00835 11.051 2 10C2.02594 7.88633 2.87712 5.86653 4.37183 4.37183C5.86653 2.87712 7.88633 2.02594 10 2C12.1137 2.02594 14.1335 2.87712 15.6282 4.37183C17.1229 5.86653 17.9741 7.88633 18 10C17.9916 11.051 17.7763 12.0901 17.3662 13.0578C16.9561 14.0255 16.3593 14.903 15.61 15.64Z" fill="black" fill-opacity="0.5"/>
<path d="M10 4C9.47135 3.98768 8.94569 4.08273 8.45482 4.27939C7.96395 4.47605 7.51807 4.77024 7.14415 5.14415C6.77023 5.51807 6.47605 5.96395 6.27939 6.45482C6.08273 6.94569 5.98768 7.47135 6 8C5.98768 8.52866 6.08273 9.05431 6.27939 9.54518C6.47605 10.0361 6.77023 10.4819 7.14415 10.8558C7.51807 11.2298 7.96395 11.524 8.45482 11.7206C8.94569 11.9173 9.47135 12.0123 10 12C10.5287 12.0123 11.0543 11.9173 11.5452 11.7206C12.0361 11.524 12.4819 11.2298 12.8558 10.8558C13.2298 10.4819 13.524 10.0361 13.7206 9.54518C13.9173 9.05431 14.0123 8.52866 14 8C14.0123 7.47135 13.9173 6.94569 13.7206 6.45482C13.524 5.96395 13.2298 5.51807 12.8558 5.14415C12.4819 4.77024 12.0361 4.47605 11.5452 4.27939C11.0543 4.08273 10.5287 3.98768 10 4ZM10 10C9.73395 10.0129 9.46815 9.96993 9.21968 9.87398C8.9712 9.77802 8.74554 9.63115 8.5572 9.4428C8.36885 9.25446 8.22198 9.0288 8.12602 8.78032C8.03007 8.53185 7.98714 8.26605 8 8C7.98714 7.73395 8.03007 7.46815 8.12602 7.21968C8.22198 6.9712 8.36885 6.74554 8.5572 6.5572C8.74554 6.36885 8.9712 6.22198 9.21968 6.12602C9.46815 6.03007 9.73395 5.98714 10 6C10.266 5.98714 10.5318 6.03007 10.7803 6.12602C11.0288 6.22198 11.2545 6.36885 11.4428 6.5572C11.6311 6.74554 11.778 6.9712 11.874 7.21968C11.9699 7.46815 12.0129 7.73395 12 8C12.0129 8.26605 11.9699 8.53185 11.874 8.78032C11.778 9.0288 11.6311 9.25446 11.4428 9.4428C11.2545 9.63115 11.0288 9.77802 10.7803 9.87398C10.5318 9.96993 10.266 10.0129 10 10Z" fill="black" fill-opacity="0.5"/>
</svg>
