<svg width="35" height="38" viewBox="0 0 35 38" fill="none" xmlns="http://www.w3.org/2000/svg">
<path d="M1.13892 30.7552V30.7555V32.2666C1.13892 32.6276 1.28232 32.9738 1.53758 33.2291C1.79283 33.4843 2.13904 33.6277 2.50003 33.6277H33.3889C33.7499 33.6277 34.0961 33.4843 34.3514 33.2291C34.6066 32.9738 34.75 32.6276 34.75 32.2666V30.7555V30.7552C34.7498 30.5619 34.7084 30.3709 34.6286 30.1949C34.5489 30.0191 34.4327 29.8623 34.2878 29.7349C33.2366 28.7976 32.3158 27.7236 31.5502 26.5415C30.7193 24.9131 30.2207 23.1357 30.0834 21.3128V15.8339C30.0909 12.8459 29.007 9.95796 27.0354 7.71273C25.1123 5.52275 22.4737 4.09126 19.5945 3.67074V2.4555C19.5945 1.99579 19.4119 1.55491 19.0868 1.22985C18.7617 0.904787 18.3208 0.722168 17.8611 0.722168C17.4014 0.722168 16.9606 0.904787 16.6355 1.22985C16.3104 1.55491 16.1278 1.99579 16.1278 2.4555V3.69519C13.2746 4.14134 10.6677 5.58103 8.76974 7.7638C6.82407 10.0014 5.75522 12.8683 5.76114 15.8335C5.76114 15.8336 5.76114 15.8337 5.76114 15.8338L5.76114 21.3128C5.62376 23.136 5.125 24.9137 4.29392 26.5423C3.54179 27.7217 2.63589 28.7956 1.60013 29.7357C1.45567 29.863 1.33986 30.0195 1.26035 30.1949C1.18056 30.3709 1.13916 30.5619 1.13892 30.7552ZM29.2775 27.9556C29.947 29.0165 30.7241 30.005 31.596 30.9055H4.30403C5.17597 30.005 5.95302 29.0165 6.62256 27.9556L6.62743 27.9479L6.63172 27.9398C7.72045 25.8986 8.35569 23.6464 8.49402 21.3371L8.49447 21.3296V21.3222V15.8333H8.49462L8.49433 15.8248C8.4514 14.5562 8.6642 13.2918 9.12007 12.1071C9.57593 10.9224 10.2655 9.84157 11.1478 8.92893C12.0301 8.01629 13.087 7.29052 14.2556 6.79485C15.4242 6.29917 16.6806 6.04373 17.95 6.04373C19.2194 6.04373 20.4758 6.29917 21.6444 6.79485C22.813 7.29052 23.87 8.01629 24.7522 8.92893C25.6345 9.84157 26.3241 10.9224 26.78 12.1071C27.2359 13.2918 27.4487 14.5562 27.4057 15.8248L27.4056 15.8248V15.8333V21.3222V21.3296L27.406 21.3371C27.5444 23.6464 28.1796 25.8986 29.2683 27.9398L29.2726 27.9479L29.2775 27.9556ZM18.0036 37.3388L18.0058 37.3388C18.7647 37.3213 19.493 37.036 20.0618 36.5333C20.6306 36.0306 21.0033 35.343 21.114 34.592L21.1562 34.3055H20.8667H15.0222H14.7327L14.7749 34.592C14.8887 35.3634 15.2789 36.0672 15.8728 36.5725C16.4667 37.0778 17.224 37.3501 18.0036 37.3388Z" fill="#818C99" stroke="#818C99" stroke-width="0.5"/>
</svg>
