<svg width="20" height="22" viewBox="0 0 20 22" fill="none" xmlns="http://www.w3.org/2000/svg">
<path d="M9.029 1.53998L8.5435 0.665742L8.54345 0.665772L9.029 1.53998ZM10 1.28845V0.288452V1.28845ZM10.971 1.53998L11.4566 0.665772L11.4565 0.665742L10.971 1.53998ZM18.486 5.71398L18.972 4.84002L18.9716 4.83977L18.486 5.71398ZM19 6.58798L18 6.58794V6.58798H19ZM19 14.823L20 14.8232V14.823H19ZM17.971 16.571L17.4855 15.6967L17.4853 15.6969L17.971 16.571ZM10.971 20.461L11.4565 21.3352L11.4567 21.3351L10.971 20.461ZM9.029 20.461L8.54325 21.3351L8.5435 21.3352L9.029 20.461ZM2.029 16.571L2.51475 15.6969L2.5145 15.6967L2.029 16.571ZM1 14.824L-2.70602e-07 14.824L2.72299e-07 14.8247L1 14.824ZM1 6.58798L2 6.58798L2 6.58794L1 6.58798ZM1.514 5.71398L1.02845 4.83977L1.028 4.84002L1.514 5.71398ZM5.01436 7.62582C4.53157 7.89403 4.35763 8.50284 4.62584 8.98562C4.89406 9.46841 5.50286 9.64235 5.98564 9.37414L5.01436 7.62582ZM14.9856 4.37414C15.4684 4.10592 15.6424 3.49712 15.3742 3.01434C15.1059 2.53155 14.4971 2.35761 14.0144 2.62582L14.9856 4.37414ZM4.48683 10.4545C4.00441 10.1856 3.39537 10.3587 3.1265 10.8411C2.85763 11.3236 3.03075 11.9326 3.51317 12.2015L4.48683 10.4545ZM6.51317 13.8735C6.99559 14.1423 7.60463 13.9692 7.8735 13.4868C8.14237 13.0044 7.96925 12.3954 7.48683 12.1265L6.51317 13.8735ZM9.5145 2.41422C9.66302 2.33173 9.83011 2.28845 10 2.28845V0.288452C9.49033 0.288452 8.98907 0.418299 8.5435 0.665742L9.5145 2.41422ZM10 2.28845C10.1699 2.28845 10.337 2.33173 10.4855 2.41422L11.4565 0.665742C11.0109 0.418299 10.5097 0.288452 10 0.288452L10 2.28845ZM10.4854 2.41419L18.0004 6.58819L18.9716 4.83977L11.4566 0.665772L10.4854 2.41419ZM18 6.58794L18 6.58794L19.724 5.57407C19.5432 5.26674 19.2836 5.0133 18.972 4.84002L18 6.58794ZM18 6.58794L18 6.58794L20 6.58802C20 6.23147 19.9047 5.8814 19.724 5.57407L18 6.58794ZM18 6.58798V14.823H20V6.58798H18ZM18 14.8227C18 15.0011 17.9522 15.1761 17.8618 15.3298L19.5853 16.3444C19.8567 15.8834 19.9999 15.3582 20 14.8232L18 14.8227ZM17.8618 15.3298C17.7713 15.4835 17.6414 15.6102 17.4855 15.6967L18.4565 17.4452C18.9242 17.1855 19.3139 16.8054 19.5853 16.3444L17.8618 15.3298ZM17.4853 15.6969L10.4853 19.5869L11.4567 21.3351L18.4567 17.4451L17.4853 15.6969ZM10.4855 19.5867C10.337 19.6692 10.1699 19.7125 10 19.7125V21.7125C10.5097 21.7125 11.0109 21.5827 11.4565 21.3352L10.4855 19.5867ZM10 19.7125C9.83011 19.7125 9.66302 19.6692 9.5145 19.5867L8.5435 21.3352C8.98907 21.5827 9.49033 21.7125 10 21.7125V19.7125ZM9.51475 19.5869L2.51475 15.6969L1.54325 17.4451L8.54325 21.3351L9.51475 19.5869ZM2.5145 15.6967C2.35868 15.6102 2.22881 15.4836 2.13836 15.33L0.415072 16.3451C0.686449 16.8058 1.07604 17.1856 1.5435 17.4452L2.5145 15.6967ZM2.13836 15.33C2.0479 15.1764 2.00013 15.0015 2 14.8232L2.72299e-07 14.8247C0.000394259 15.3594 0.143696 15.8843 0.415072 16.3451L2.13836 15.33ZM2 14.824V6.58798H8.48559e-10V14.824H2ZM2 6.58794L2 6.58794L0.27603 5.57407C0.0952854 5.88141 -1.46846e-05 6.23147 1.69688e-09 6.58802L2 6.58794ZM2 6.58794L2 6.58794L1.028 4.84002C0.716393 5.0133 0.456774 5.26673 0.27603 5.57407L2 6.58794ZM1.99955 6.58819L9.51455 2.41419L8.54345 0.665772L1.02845 4.83977L1.99955 6.58819ZM0.514357 6.87414L9.51436 11.8741L10.4856 10.1258L1.48564 5.12582L0.514357 6.87414ZM10.4856 11.8741L19.4856 6.87414L18.5144 5.12582L9.51436 10.1258L10.4856 11.8741ZM9 11V21H11V11H9ZM5.98564 9.37414L14.9856 4.37414L14.0144 2.62582L5.01436 7.62582L5.98564 9.37414ZM3.51317 12.2015L6.51317 13.8735L7.48683 12.1265L4.48683 10.4545L3.51317 12.2015Z" fill="black" fill-opacity="0.5"/>
</svg>
