<svg width="20" height="17" viewBox="0 0 20 17" fill="none" xmlns="http://www.w3.org/2000/svg">
<path d="M6.00006 6.76004H5.42006C4.62856 6.73143 3.83963 6.8658 3.10223 7.1548C2.36482 7.44379 1.69468 7.88126 1.13339 8.44004L0.973389 8.62671V14.1467H3.69339V11.0134L4.06006 10.6L4.22672 10.4067C5.09467 9.51504 6.17524 8.8589 7.36672 8.50004C6.77019 8.04613 6.29971 7.44713 6.00006 6.76004Z" fill="black" fill-opacity="0.5"/>
<path d="M18.8934 8.42004C18.3321 7.86126 17.662 7.42379 16.9246 7.1348C16.1871 6.8458 15.3982 6.71143 14.6067 6.74004C14.364 6.74073 14.1214 6.75408 13.8801 6.78004C13.5748 7.42464 13.1172 7.98523 12.5467 8.41337C13.8187 8.76527 14.971 9.45663 15.8801 10.4134L16.0467 10.6L16.4067 11.0134V14.1534H19.0334V8.6067L18.8934 8.42004Z" fill="black" fill-opacity="0.5"/>
<path d="M5.40006 5.46004H5.60672C5.5107 4.63553 5.65537 3.80086 6.02328 3.05676C6.39118 2.31267 6.96659 1.69097 7.68006 1.2667C7.42143 0.871604 7.06463 0.550443 6.64459 0.334669C6.22455 0.118895 5.75568 0.0159076 5.28388 0.0357897C4.81208 0.0556719 4.35353 0.197743 3.95313 0.44809C3.55274 0.698438 3.22422 1.04848 2.99976 1.46394C2.77529 1.8794 2.66257 2.34603 2.67263 2.81814C2.6827 3.29025 2.8152 3.75166 3.05716 4.15717C3.29912 4.56269 3.64225 4.89842 4.05295 5.13148C4.46365 5.36454 4.92784 5.48694 5.40006 5.4867V5.46004Z" fill="black" fill-opacity="0.5"/>
<path d="M14.2867 4.96004C14.2948 5.11326 14.2948 5.26681 14.2867 5.42004C14.4147 5.44032 14.5439 5.45146 14.6734 5.45337H14.8001C15.2702 5.4283 15.7258 5.28193 16.1226 5.02849C16.5194 4.77506 16.8438 4.4232 17.0642 4.00718C17.2847 3.59116 17.3936 3.12515 17.3805 2.65453C17.3673 2.1839 17.2326 1.72469 16.9893 1.32161C16.746 0.918526 16.4025 0.585306 15.9922 0.35439C15.5819 0.123474 15.1188 0.00273051 14.648 0.00391488C14.1772 0.00509925 13.7147 0.128171 13.3056 0.361149C12.8965 0.594126 12.5546 0.929071 12.3134 1.33337C12.9168 1.72733 13.4129 2.26491 13.7573 2.89788C14.1018 3.53086 14.2837 4.23943 14.2867 4.96004Z" fill="black" fill-opacity="0.5"/>
<path d="M9.91339 7.94671C11.5592 7.94671 12.8934 6.61251 12.8934 4.96671C12.8934 3.3209 11.5592 1.9867 9.91339 1.9867C8.26758 1.9867 6.93339 3.3209 6.93339 4.96671C6.93339 6.61251 8.26758 7.94671 9.91339 7.94671Z" fill="black" fill-opacity="0.5"/>
<path d="M10.0734 9.53337C9.20275 9.49822 8.334 9.63957 7.51941 9.9489C6.70483 10.2582 5.96124 10.7292 5.33339 11.3334L5.16672 11.52V15.74C5.16932 15.8775 5.19898 16.0131 5.254 16.1391C5.30902 16.2651 5.38832 16.379 5.48737 16.4743C5.58643 16.5697 5.70329 16.6446 5.8313 16.6947C5.9593 16.7449 6.09593 16.7694 6.23339 16.7667H13.8934C14.0308 16.7694 14.1675 16.7449 14.2955 16.6947C14.4235 16.6446 14.5404 16.5697 14.6394 16.4743C14.7385 16.379 14.8178 16.2651 14.8728 16.1391C14.9278 16.0131 14.9575 15.8775 14.9601 15.74V11.5334L14.8001 11.3334C14.1763 10.7273 13.4353 10.2551 12.6225 9.94553C11.8097 9.63601 10.9423 9.49576 10.0734 9.53337Z" fill="black" fill-opacity="0.5"/>
</svg>
