<svg width="15" height="16" viewBox="0 0 15 16" fill="none" xmlns="http://www.w3.org/2000/svg">
<path d="M8.0696 12.2727V11.5057C8.0696 10.9422 8.18797 10.4238 8.42472 9.95028C8.66619 9.4768 9.01657 9.09564 9.47585 8.80682C9.93513 8.51799 10.4915 8.37358 11.1449 8.37358C11.8172 8.37358 12.3807 8.51799 12.8352 8.80682C13.2898 9.09091 13.633 9.4697 13.8651 9.94318C14.1018 10.4167 14.2202 10.9375 14.2202 11.5057V12.2727C14.2202 12.8362 14.1018 13.3546 13.8651 13.8281C13.6283 14.3016 13.2803 14.6828 12.821 14.9716C12.3665 15.2604 11.8078 15.4048 11.1449 15.4048C10.482 15.4048 9.92093 15.2604 9.46165 14.9716C9.00237 14.6828 8.65436 14.3016 8.41761 13.8281C8.18561 13.3546 8.0696 12.8362 8.0696 12.2727ZM9.9233 11.5057V12.2727C9.9233 12.6468 10.0133 12.9901 10.1932 13.3026C10.3731 13.6151 10.6903 13.7713 11.1449 13.7713C11.6042 13.7713 11.919 13.6174 12.0895 13.3097C12.2647 12.9972 12.3523 12.6515 12.3523 12.2727V11.5057C12.3523 11.1269 12.2694 10.7812 12.1037 10.4688C11.938 10.1515 11.6184 9.9929 11.1449 9.9929C10.6998 9.9929 10.3849 10.1515 10.2003 10.4688C10.0156 10.7812 9.9233 11.1269 9.9233 11.5057ZM0.676136 3.94886V3.18182C0.676136 2.61364 0.796875 2.0928 1.03835 1.61932C1.27983 1.14583 1.63021 0.767045 2.08949 0.482954C2.54877 0.194128 3.10511 0.049715 3.75852 0.049715C4.42614 0.049715 4.98722 0.194128 5.44176 0.482954C5.90104 0.767045 6.24669 1.14583 6.47869 1.61932C6.7107 2.0928 6.8267 2.61364 6.8267 3.18182V3.94886C6.8267 4.51705 6.70833 5.03788 6.47159 5.51136C6.23958 5.98011 5.89394 6.35653 5.43466 6.64062C4.97538 6.92472 4.41667 7.06676 3.75852 7.06676C3.09091 7.06676 2.52746 6.92472 2.06818 6.64062C1.61364 6.35653 1.26799 5.97775 1.03125 5.50426C0.794508 5.03078 0.676136 4.51231 0.676136 3.94886ZM2.54403 3.18182V3.94886C2.54403 4.32765 2.63163 4.6733 2.80682 4.9858C2.98674 5.29356 3.30398 5.44744 3.75852 5.44744C4.21307 5.44744 4.52557 5.29356 4.69602 4.9858C4.87121 4.6733 4.95881 4.32765 4.95881 3.94886V3.18182C4.95881 2.80303 4.87595 2.45739 4.71023 2.14489C4.54451 1.82765 4.22727 1.66903 3.75852 1.66903C3.30871 1.66903 2.99384 1.82765 2.81392 2.14489C2.634 2.46212 2.54403 2.80777 2.54403 3.18182ZM1.4858 15L11.4858 0.454545H13.2614L3.26136 15H1.4858Z" fill="black"/>
</svg>

