<svg width="18" height="24" viewBox="0 0 18 24" fill="none" xmlns="http://www.w3.org/2000/svg">
<path d="M18 6.75V21C18 21.7956 17.6839 22.5587 17.1213 23.1213C16.5587 23.6839 15.7956 24 15 24H3C2.20435 24 1.44129 23.6839 0.87868 23.1213C0.31607 22.5587 0 21.7956 0 21V3C0 2.20435 0.31607 1.44129 0.87868 0.87868C1.44129 0.316071 2.20435 0 3 0H11.25L18 6.75ZM13.5 6.75C12.9033 6.75 12.331 6.51295 11.909 6.09099C11.4871 5.66903 11.25 5.09674 11.25 4.5V1.5H3C2.60218 1.5 2.22064 1.65804 1.93934 1.93934C1.65804 2.22064 1.5 2.60218 1.5 3V21C1.5 21.3978 1.65804 21.7794 1.93934 22.0607C2.22064 22.342 2.60218 22.5 3 22.5H15C15.3978 22.5 15.7794 22.342 16.0607 22.0607C16.342 21.7794 16.5 21.3978 16.5 21V6.75H13.5Z" fill="black" fill-opacity="0.5"/>
<path d="M3 9.75C3 9.55109 3.07902 9.36032 3.21967 9.21967C3.36032 9.07902 3.55109 9 3.75 9H14.25C14.4489 9 14.6397 9.07902 14.7803 9.21967C14.921 9.36032 15 9.55109 15 9.75V20.25C15 20.4489 14.921 20.6397 14.7803 20.7803C14.6397 20.921 14.4489 21 14.25 21H3.75C3.55109 21 3.36032 20.921 3.21967 20.7803C3.07902 20.6397 3 20.4489 3 20.25V9.75ZM3 5.25C3 5.05109 3.07902 4.86032 3.21967 4.71967C3.36032 4.57902 3.55109 4.5 3.75 4.5H7.5C7.69891 4.5 7.88968 4.57902 8.03033 4.71967C8.17098 4.86032 8.25 5.05109 8.25 5.25C8.25 5.44891 8.17098 5.63968 8.03033 5.78033C7.88968 5.92098 7.69891 6 7.5 6H3.75C3.55109 6 3.36032 5.92098 3.21967 5.78033C3.07902 5.63968 3 5.44891 3 5.25Z" fill="black" fill-opacity="0.5"/>
</svg>
