<svg width="37" height="37" viewBox="0 0 37 37" fill="none" xmlns="http://www.w3.org/2000/svg">
<path d="M20.0279 18.8694L5.90541 21.2225C5.74304 21.2496 5.59068 21.319 5.46363 21.4236C5.33658 21.5283 5.23933 21.6646 5.18166 21.8187L0.312284 34.865C-0.152716 36.065 1.10166 37.2087 2.25291 36.6312L36.0029 19.7562C36.2362 19.6393 36.4323 19.4598 36.5694 19.2378C36.7065 19.0158 36.7791 18.76 36.7791 18.4991C36.7791 18.2381 36.7065 17.9823 36.5694 17.7603C36.4323 17.5383 36.2362 17.3588 36.0029 17.2419L2.25291 0.366863C1.10166 -0.208762 -0.152716 0.934988 0.312284 2.13311L5.18353 15.1794C5.24121 15.3335 5.33846 15.4698 5.4655 15.5745C5.59255 15.6791 5.74492 15.7485 5.90728 15.7756L20.0298 18.1287C20.1179 18.1428 20.1981 18.1878 20.256 18.2557C20.3139 18.3236 20.3457 18.4098 20.3457 18.4991C20.3457 18.5883 20.3139 18.6746 20.256 18.7424C20.1981 18.8103 20.1179 18.8553 20.0298 18.8694H20.0279Z" fill="#D3D9DE"/>
</svg>
