<svg width="22" height="22" viewBox="0 0 22 22" fill="none" xmlns="http://www.w3.org/2000/svg">
<mask id="path-1-outside-1_319_9" maskUnits="userSpaceOnUse" x="-0.666504" y="-0.666626" width="23" height="23" fill="black">
<rect fill="white" x="-0.666504" y="-0.666626" width="23" height="23"/>
<path d="M11.0668 6.33337C8.46683 6.33337 6.40016 8.40004 6.40016 11C6.40016 13.6 8.46683 15.6667 11.0668 15.6667C13.6668 15.6667 15.7335 13.6 15.7335 11C15.7335 8.40004 13.6668 6.33337 11.0668 6.33337ZM11.0668 14.3334C9.20016 14.3334 7.7335 12.8667 7.7335 11C7.7335 9.13337 9.20016 7.66671 11.0668 7.66671C12.9335 7.66671 14.4002 9.13337 14.4002 11C14.4002 12.8667 12.9335 14.3334 11.0668 14.3334Z"/>
<path d="M20.8668 8.80004L19.0002 8.20004L18.6002 7.20004L19.5335 5.46671C19.7335 5.06671 19.6668 4.53337 19.3335 4.20004L17.7335 2.60004C17.4002 2.26671 16.8668 2.20004 16.4668 2.40004L14.7335 3.33337L13.7335 2.93337L13.1335 1.06671C13.0002 0.666707 12.6002 0.333374 12.1335 0.333374H9.86683C9.40016 0.333374 9.00016 0.666707 8.9335 1.13337L8.3335 3.00004C7.9335 3.06671 7.60016 3.20004 7.26683 3.40004L5.5335 2.46671C5.1335 2.26671 4.60016 2.33337 4.26683 2.66671L2.66683 4.26671C2.3335 4.60004 2.26683 5.13337 2.46683 5.53337L3.3335 7.20004C3.20016 7.53337 3.06683 7.93337 2.9335 8.26671L1.06683 8.86671C0.666829 9.00004 0.333496 9.40004 0.333496 9.86671V12.1334C0.333496 12.6 0.666829 13 1.1335 13.1334L3.00016 13.7334L3.40016 14.7334L2.46683 16.4667C2.26683 16.8667 2.3335 17.4 2.66683 17.7334L4.26683 19.3334C4.60016 19.6667 5.1335 19.7334 5.5335 19.5334L7.26683 18.6L8.26683 19L8.86683 20.9334C9.00016 21.3334 9.40016 21.6667 9.86683 21.6667H12.1335C12.6002 21.6667 13.0002 21.3334 13.1335 20.9334L13.7335 19L14.7335 18.6L16.4668 19.5334C16.8668 19.7334 17.4002 19.6667 17.7335 19.3334L19.3335 17.7334C19.6668 17.4 19.7335 16.8667 19.5335 16.4667L18.6002 14.7334L19.0002 13.7334L20.9335 13.1334C21.3335 13 21.6668 12.6 21.6668 12.1334V9.86671C21.6668 9.40004 21.3335 8.93337 20.8668 8.80004ZM20.3335 11.9334L17.9335 12.6667L17.8668 13L17.2668 14.4L17.0668 14.7334L18.2668 16.9334L16.9335 18.2667L14.7335 17.0667L14.4002 17.2667C13.9335 17.5334 13.4668 17.7334 13.0002 17.8667L12.6668 17.9334L11.9335 20.3334H10.0668L9.3335 17.9334L9.00016 17.8667L7.60016 17.2667L7.26683 17.0667L5.06683 18.2667L3.7335 16.9334L4.9335 14.7334L4.7335 14.4C4.46683 13.9334 4.26683 13.4667 4.1335 13L4.06683 12.6667L1.66683 11.9334V10.0667L3.9335 9.40004L4.06683 9.06671C4.20016 8.53337 4.40016 8.06671 4.66683 7.60004L4.86683 7.26671L3.7335 5.06671L5.06683 3.73337L7.20016 4.93337L7.5335 4.73337C8.00016 4.46671 8.46683 4.26671 9.00016 4.13337L9.3335 4.00004L10.0668 1.66671H11.9335L12.6668 4.00004L13.0002 4.13337C13.4668 4.26671 13.9335 4.46671 14.4002 4.73337L14.7335 4.93337L16.9335 3.73337L18.2668 5.06671L17.0668 7.26671L17.2668 7.60004C17.5335 8.06671 17.7335 8.53337 17.8668 9.00004L17.9335 9.33337L20.3335 10.0667V11.9334Z"/>
</mask>
<path d="M11.0668 6.33337C8.46683 6.33337 6.40016 8.40004 6.40016 11C6.40016 13.6 8.46683 15.6667 11.0668 15.6667C13.6668 15.6667 15.7335 13.6 15.7335 11C15.7335 8.40004 13.6668 6.33337 11.0668 6.33337ZM11.0668 14.3334C9.20016 14.3334 7.7335 12.8667 7.7335 11C7.7335 9.13337 9.20016 7.66671 11.0668 7.66671C12.9335 7.66671 14.4002 9.13337 14.4002 11C14.4002 12.8667 12.9335 14.3334 11.0668 14.3334Z" fill="black"/>
<path d="M20.8668 8.80004L19.0002 8.20004L18.6002 7.20004L19.5335 5.46671C19.7335 5.06671 19.6668 4.53337 19.3335 4.20004L17.7335 2.60004C17.4002 2.26671 16.8668 2.20004 16.4668 2.40004L14.7335 3.33337L13.7335 2.93337L13.1335 1.06671C13.0002 0.666707 12.6002 0.333374 12.1335 0.333374H9.86683C9.40016 0.333374 9.00016 0.666707 8.9335 1.13337L8.3335 3.00004C7.9335 3.06671 7.60016 3.20004 7.26683 3.40004L5.5335 2.46671C5.1335 2.26671 4.60016 2.33337 4.26683 2.66671L2.66683 4.26671C2.3335 4.60004 2.26683 5.13337 2.46683 5.53337L3.3335 7.20004C3.20016 7.53337 3.06683 7.93337 2.9335 8.26671L1.06683 8.86671C0.666829 9.00004 0.333496 9.40004 0.333496 9.86671V12.1334C0.333496 12.6 0.666829 13 1.1335 13.1334L3.00016 13.7334L3.40016 14.7334L2.46683 16.4667C2.26683 16.8667 2.3335 17.4 2.66683 17.7334L4.26683 19.3334C4.60016 19.6667 5.1335 19.7334 5.5335 19.5334L7.26683 18.6L8.26683 19L8.86683 20.9334C9.00016 21.3334 9.40016 21.6667 9.86683 21.6667H12.1335C12.6002 21.6667 13.0002 21.3334 13.1335 20.9334L13.7335 19L14.7335 18.6L16.4668 19.5334C16.8668 19.7334 17.4002 19.6667 17.7335 19.3334L19.3335 17.7334C19.6668 17.4 19.7335 16.8667 19.5335 16.4667L18.6002 14.7334L19.0002 13.7334L20.9335 13.1334C21.3335 13 21.6668 12.6 21.6668 12.1334V9.86671C21.6668 9.40004 21.3335 8.93337 20.8668 8.80004ZM20.3335 11.9334L17.9335 12.6667L17.8668 13L17.2668 14.4L17.0668 14.7334L18.2668 16.9334L16.9335 18.2667L14.7335 17.0667L14.4002 17.2667C13.9335 17.5334 13.4668 17.7334 13.0002 17.8667L12.6668 17.9334L11.9335 20.3334H10.0668L9.3335 17.9334L9.00016 17.8667L7.60016 17.2667L7.26683 17.0667L5.06683 18.2667L3.7335 16.9334L4.9335 14.7334L4.7335 14.4C4.46683 13.9334 4.26683 13.4667 4.1335 13L4.06683 12.6667L1.66683 11.9334V10.0667L3.9335 9.40004L4.06683 9.06671C4.20016 8.53337 4.40016 8.06671 4.66683 7.60004L4.86683 7.26671L3.7335 5.06671L5.06683 3.73337L7.20016 4.93337L7.5335 4.73337C8.00016 4.46671 8.46683 4.26671 9.00016 4.13337L9.3335 4.00004L10.0668 1.66671H11.9335L12.6668 4.00004L13.0002 4.13337C13.4668 4.26671 13.9335 4.46671 14.4002 4.73337L14.7335 4.93337L16.9335 3.73337L18.2668 5.06671L17.0668 7.26671L17.2668 7.60004C17.5335 8.06671 17.7335 8.53337 17.8668 9.00004L17.9335 9.33337L20.3335 10.0667V11.9334Z" fill="black"/>
<path d="M11.0668 6.33337C8.46683 6.33337 6.40016 8.40004 6.40016 11C6.40016 13.6 8.46683 15.6667 11.0668 15.6667C13.6668 15.6667 15.7335 13.6 15.7335 11C15.7335 8.40004 13.6668 6.33337 11.0668 6.33337ZM11.0668 14.3334C9.20016 14.3334 7.7335 12.8667 7.7335 11C7.7335 9.13337 9.20016 7.66671 11.0668 7.66671C12.9335 7.66671 14.4002 9.13337 14.4002 11C14.4002 12.8667 12.9335 14.3334 11.0668 14.3334Z" stroke="black" stroke-width="0.6" mask="url(#path-1-outside-1_319_9)"/>
<path d="M20.8668 8.80004L19.0002 8.20004L18.6002 7.20004L19.5335 5.46671C19.7335 5.06671 19.6668 4.53337 19.3335 4.20004L17.7335 2.60004C17.4002 2.26671 16.8668 2.20004 16.4668 2.40004L14.7335 3.33337L13.7335 2.93337L13.1335 1.06671C13.0002 0.666707 12.6002 0.333374 12.1335 0.333374H9.86683C9.40016 0.333374 9.00016 0.666707 8.9335 1.13337L8.3335 3.00004C7.9335 3.06671 7.60016 3.20004 7.26683 3.40004L5.5335 2.46671C5.1335 2.26671 4.60016 2.33337 4.26683 2.66671L2.66683 4.26671C2.3335 4.60004 2.26683 5.13337 2.46683 5.53337L3.3335 7.20004C3.20016 7.53337 3.06683 7.93337 2.9335 8.26671L1.06683 8.86671C0.666829 9.00004 0.333496 9.40004 0.333496 9.86671V12.1334C0.333496 12.6 0.666829 13 1.1335 13.1334L3.00016 13.7334L3.40016 14.7334L2.46683 16.4667C2.26683 16.8667 2.3335 17.4 2.66683 17.7334L4.26683 19.3334C4.60016 19.6667 5.1335 19.7334 5.5335 19.5334L7.26683 18.6L8.26683 19L8.86683 20.9334C9.00016 21.3334 9.40016 21.6667 9.86683 21.6667H12.1335C12.6002 21.6667 13.0002 21.3334 13.1335 20.9334L13.7335 19L14.7335 18.6L16.4668 19.5334C16.8668 19.7334 17.4002 19.6667 17.7335 19.3334L19.3335 17.7334C19.6668 17.4 19.7335 16.8667 19.5335 16.4667L18.6002 14.7334L19.0002 13.7334L20.9335 13.1334C21.3335 13 21.6668 12.6 21.6668 12.1334V9.86671C21.6668 9.40004 21.3335 8.93337 20.8668 8.80004ZM20.3335 11.9334L17.9335 12.6667L17.8668 13L17.2668 14.4L17.0668 14.7334L18.2668 16.9334L16.9335 18.2667L14.7335 17.0667L14.4002 17.2667C13.9335 17.5334 13.4668 17.7334 13.0002 17.8667L12.6668 17.9334L11.9335 20.3334H10.0668L9.3335 17.9334L9.00016 17.8667L7.60016 17.2667L7.26683 17.0667L5.06683 18.2667L3.7335 16.9334L4.9335 14.7334L4.7335 14.4C4.46683 13.9334 4.26683 13.4667 4.1335 13L4.06683 12.6667L1.66683 11.9334V10.0667L3.9335 9.40004L4.06683 9.06671C4.20016 8.53337 4.40016 8.06671 4.66683 7.60004L4.86683 7.26671L3.7335 5.06671L5.06683 3.73337L7.20016 4.93337L7.5335 4.73337C8.00016 4.46671 8.46683 4.26671 9.00016 4.13337L9.3335 4.00004L10.0668 1.66671H11.9335L12.6668 4.00004L13.0002 4.13337C13.4668 4.26671 13.9335 4.46671 14.4002 4.73337L14.7335 4.93337L16.9335 3.73337L18.2668 5.06671L17.0668 7.26671L17.2668 7.60004C17.5335 8.06671 17.7335 8.53337 17.8668 9.00004L17.9335 9.33337L20.3335 10.0667V11.9334Z" stroke="black" stroke-width="0.6" mask="url(#path-1-outside-1_319_9)"/>
</svg>
