<svg width="20" height="20" viewBox="0 0 20 20" fill="none" xmlns="http://www.w3.org/2000/svg">
<path fill-rule="evenodd" clip-rule="evenodd" d="M12.7612 0.878462C12.9326 0.82209 13.1181 0.818452 13.2918 0.868055C13.4655 0.917659 13.6186 1.01803 13.7299 1.15513L19.8167 8.65508C19.9354 8.80137 19.9999 8.98141 19.9999 9.16674C19.9999 9.35208 19.9354 9.53212 19.8167 9.67841L13.7299 17.1784C13.6186 17.3153 13.4655 17.4156 13.2919 17.4651C13.1183 17.5146 12.9328 17.5109 12.7615 17.4546C12.5902 17.3982 12.4415 17.292 12.3362 17.1508C12.231 17.0095 12.1743 16.8403 12.1743 16.6667V13.3417C7.49695 13.4351 5.25004 14.2859 4.12137 15.2109C3.04835 16.09 2.85183 17.1242 2.64749 18.2075L2.59444 18.4867C2.55542 18.6864 2.44158 18.8656 2.27433 18.9906C2.10708 19.1155 1.89795 19.1776 1.68629 19.1651C1.47464 19.1526 1.27504 19.0664 1.12505 18.9228C0.975058 18.7791 0.885018 18.5879 0.871869 18.385C0.722306 16.095 0.94665 12.7767 2.63444 10.0009C4.27267 7.30676 7.22218 5.21668 12.1743 5.00001V1.66679C12.1742 1.49317 12.2307 1.32386 12.336 1.18253C12.4412 1.0412 12.5899 0.93489 12.7612 0.878462Z" fill="#818C99"/>
</svg>
