<svg width="21" height="21" viewBox="0 0 21 21" fill="none" xmlns="http://www.w3.org/2000/svg">
<path d="M12.8281 8.17204C12.078 7.42216 11.0607 7.0009 10.0001 7.0009C8.93942 7.0009 7.92219 7.42216 7.17208 8.17204L3.17208 12.172C2.79004 12.541 2.48531 12.9824 2.27567 13.4704C2.06604 13.9584 1.95569 14.4833 1.95108 15.0144C1.94646 15.5456 2.04767 16.0723 2.24879 16.5639C2.44992 17.0554 2.74693 17.5021 3.1225 17.8776C3.49807 18.2532 3.94468 18.5502 4.43626 18.7513C4.92785 18.9525 5.45457 19.0537 5.98569 19.049C6.5168 19.0444 7.04168 18.9341 7.5297 18.7244C8.01771 18.5148 8.45909 18.2101 8.82808 17.828L9.93008 16.727M9.17208 11.828C9.92219 12.5779 10.9394 12.9992 12.0001 12.9992C13.0607 12.9992 14.078 12.5779 14.8281 11.828L18.8281 7.82804C19.5567 7.07363 19.9599 6.06322 19.9508 5.01444C19.9417 3.96565 19.521 2.9624 18.7794 2.22077C18.0377 1.47913 17.0345 1.05846 15.9857 1.04935C14.9369 1.04023 13.9265 1.44341 13.1721 2.17204L12.0721 3.27204" stroke="black" stroke-opacity="0.5" stroke-width="2" stroke-linecap="round" stroke-linejoin="round"/>
</svg>
