<svg width="34" height="34" viewBox="0 0 34 34" fill="none" xmlns="http://www.w3.org/2000/svg">
<path d="M30.3333 10.3334H3.66659V7.00004H30.3333V10.3334ZM26.9999 0.333374H6.99992V3.66671H26.9999V0.333374ZM33.6666 17V30.3334C33.6666 31.2174 33.3154 32.0653 32.6903 32.6904C32.0652 33.3155 31.2173 33.6667 30.3333 33.6667H3.66659C2.78334 33.6641 1.93703 33.312 1.31248 32.6875C0.687926 32.0629 0.33589 31.2166 0.333252 30.3334V17C0.33589 16.1168 0.687926 15.2705 1.31248 14.6459C1.93703 14.0214 2.78334 13.6693 3.66659 13.6667H30.3333C31.2165 13.6693 32.0628 14.0214 32.6874 14.6459C33.3119 15.2705 33.6639 16.1168 33.6666 17ZM20.2116 25.4034L24.0833 22.0934L18.9849 21.6667L16.9999 17L15.0149 21.6667L9.91658 22.0934L13.7883 25.4034L12.6216 30.3334L16.9999 27.7134L21.3783 30.3334L20.2116 25.4034Z" fill="#818C99"/>
</svg>
