<svg width="20" height="20" viewBox="0 0 20 20" fill="none" xmlns="http://www.w3.org/2000/svg">
<path d="M18 6H2V4H18V6ZM16 0H4V2H16V0ZM20 10V18C20 18.5304 19.7893 19.0391 19.4142 19.4142C19.0391 19.7893 18.5304 20 18 20H2C1.47005 19.9984 0.962265 19.7872 0.587535 19.4125C0.212805 19.0377 0.00158273 18.5299 0 18V10C0.00158273 9.47005 0.212805 8.96227 0.587535 8.58753C0.962265 8.2128 1.47005 8.00158 2 8H18C18.5299 8.00158 19.0377 8.2128 19.4125 8.58753C19.7872 8.96227 19.9984 9.47005 20 10ZM11.927 15.042L14.25 13.056L11.191 12.8L10 10L8.809 12.8L5.75 13.056L8.073 15.042L7.373 18L10 16.428L12.627 18L11.927 15.042Z" fill="black" fill-opacity="0.5"/>
</svg>
