<svg width="30" height="30" viewBox="0 0 30 30" fill="none" xmlns="http://www.w3.org/2000/svg">
<rect width="30" height="30" rx="6" fill="#FF0000"/>
<g clip-path="url(#clip0_101_1211)">
<path d="M25.5139 10.3396C25.3877 9.88738 25.1415 9.47512 24.7999 9.14386C24.4583 8.81259 24.0332 8.57388 23.5669 8.4515C21.8596 8 14.9886 8 14.9886 8C14.9886 8 8.11721 8.01367 6.40998 8.46517C5.94364 8.58756 5.5185 8.82628 5.1769 9.15756C4.83529 9.48884 4.58915 9.90111 4.46298 10.3533C3.94658 13.2948 3.74626 17.777 4.47716 20.6008C4.60334 21.053 4.84949 21.4653 5.19109 21.7966C5.53269 22.1278 5.95783 22.3665 6.42416 22.4889C8.13139 22.9404 15.0026 22.9404 15.0026 22.9404C15.0026 22.9404 21.8737 22.9404 23.5809 22.4889C24.0472 22.3665 24.4724 22.1278 24.814 21.7966C25.1556 21.4653 25.4018 21.053 25.528 20.6008C26.0726 17.6552 26.2405 13.1758 25.5139 10.3397V10.3396Z" fill="white"/>
<path d="M12.8018 18.6716L18.5018 15.4701L12.8018 12.2686V18.6716Z" fill="#FF0000"/>
</g>
<defs>
<clipPath id="clip0_101_1211">
<rect width="22" height="15" fill="white" transform="translate(4 8)"/>
</clipPath>
</defs>
</svg>
